{"glyphs":{"0":{"ha":797,"x_min":0,"x_max":0,"o":"m 335 -22 b 492 23 392 -22 445 -7 b 610 140 540 53 579 92 b 690 306 641 188 668 244 b 736 492 711 368 727 430 b 750 675 745 554 750 615 b 689 914 750 773 730 853 b 499 1006 648 975 585 1006 b 308 938 427 1006 364 983 b 178 764 253 893 209 835 b 107 540 146 693 123 618 b 83 306 91 461 83 383 b 144 69 83 208 103 129 b 335 -22 184 8 248 -22 z m 493 939 b 628 863 556 939 601 914 b 669 667 656 813 669 747 b 630 372 669 564 656 466 b 513 138 603 278 565 200 b 340 46 462 77 404 46 b 163 315 222 46 162 136 b 203 610 163 417 176 515 b 320 845 230 704 269 783 b 493 939 372 908 429 939 z "},"1":{"ha":797,"x_min":0,"x_max":0,"o":"m 408 0 l 582 983 l 511 983 l 240 793 l 279 735 l 488 888 l 332 0 z "},"2":{"ha":797,"x_min":0,"x_max":0,"o":"m 621 0 l 633 69 l 114 69 l 521 432 b 689 607 601 503 657 562 b 736 781 720 652 736 710 b 660 945 736 850 711 905 b 474 1006 609 985 547 1006 b 282 945 400 1006 336 985 b 165 785 228 905 189 851 l 239 768 b 327 892 257 820 287 861 b 471 939 367 923 415 939 b 602 894 523 939 566 924 b 656 774 638 864 656 824 b 614 635 655 724 641 678 b 479 489 587 593 542 544 l 25 83 l 11 0 z "},"3":{"ha":797,"x_min":0,"x_max":0,"o":"m 326 -22 b 574 70 430 -22 513 9 b 665 300 635 132 665 208 b 617 438 665 353 649 399 b 493 513 585 478 544 502 l 493 515 b 660 613 567 533 623 565 b 717 779 698 660 717 715 b 644 944 717 849 693 904 b 465 1006 596 985 537 1006 b 193 861 350 1006 260 957 l 257 824 b 463 939 304 900 373 939 b 588 895 513 939 554 924 b 638 779 621 866 638 827 b 566 610 638 707 614 650 b 365 549 518 569 451 549 l 326 549 l 315 482 l 354 482 b 520 434 423 482 478 466 b 583 293 562 402 583 355 b 515 115 583 221 560 162 b 333 46 469 69 408 46 b 194 85 281 46 234 59 b 115 193 155 112 128 148 l 39 165 b 145 28 58 107 94 61 b 326 -22 197 -6 257 -22 z "},"4":{"ha":797,"x_min":0,"x_max":0,"o":"m 713 243 l 725 313 l 574 313 l 693 983 l 583 983 l 44 325 l 31 243 l 485 243 l 443 0 l 519 0 l 561 243 z m 497 313 l 122 313 l 597 894 l 601 894 z "},"5":{"ha":797,"x_min":0,"x_max":0,"o":"m 315 -22 b 584 84 431 -22 521 13 b 679 347 647 155 679 243 b 601 536 679 423 653 486 b 396 611 548 586 480 611 b 261 585 348 611 303 602 l 326 914 l 717 914 l 729 983 l 267 983 l 171 494 b 375 549 231 531 299 549 b 535 488 442 549 495 528 b 596 333 576 448 596 396 b 521 128 596 251 571 182 b 317 46 471 73 403 46 b 192 81 270 46 229 58 b 114 176 156 105 130 137 l 42 142 b 146 23 63 93 98 53 b 315 -22 194 -7 250 -22 z "},"6":{"ha":797,"x_min":0,"x_max":0,"o":"m 143 250 b 222 443 143 326 169 390 b 419 522 275 496 341 522 b 563 464 480 522 528 503 b 617 319 599 425 617 377 b 542 123 617 242 592 176 b 347 43 492 70 427 43 b 199 103 286 43 237 63 b 143 250 162 143 143 192 z m 63 251 b 142 56 63 173 89 107 b 344 -22 194 4 262 -22 b 598 76 448 -22 533 11 b 696 325 663 142 696 225 b 622 513 696 403 671 466 b 432 585 573 561 510 585 b 283 539 377 585 328 569 l 281 542 l 640 983 l 544 983 l 200 549 b 95 390 152 488 117 436 b 63 251 73 345 63 299 z "},"7":{"ha":797,"x_min":0,"x_max":0,"o":"m 781 983 l 215 983 l 203 914 l 686 914 l 107 0 l 199 0 l 767 908 z "},"8":{"ha":797,"x_min":0,"x_max":0,"o":"m 689 308 b 644 444 689 361 674 406 b 529 519 614 481 575 506 l 529 522 b 675 615 588 539 637 570 b 732 776 713 659 732 713 b 663 945 732 849 709 905 b 481 1006 616 985 556 1006 b 270 923 397 1006 327 978 b 185 717 213 868 185 799 b 219 602 185 674 196 636 b 315 528 241 568 274 544 l 315 525 b 135 421 243 509 183 475 b 64 228 88 367 64 303 b 144 44 64 149 91 88 b 342 -22 197 0 263 -22 b 585 65 435 -22 516 7 b 689 308 654 122 689 204 z m 261 721 b 323 874 261 779 282 830 b 476 939 364 917 415 939 b 607 894 531 939 575 924 b 656 765 639 864 656 821 b 591 621 656 713 634 665 b 428 554 548 576 494 554 b 306 602 377 554 336 570 b 261 721 276 634 261 674 z m 143 232 b 222 415 143 304 169 365 b 414 489 274 464 338 489 b 554 435 470 489 517 471 b 610 304 591 400 610 356 b 537 119 610 229 585 167 b 343 46 488 70 424 46 b 199 97 284 46 236 63 b 143 232 162 131 143 176 z "},"9":{"ha":797,"x_min":0,"x_max":0,"o":"m 701 733 b 622 542 701 657 675 594 b 424 464 568 490 502 464 b 279 522 363 464 315 483 b 225 667 243 561 225 609 b 300 861 225 744 250 808 b 494 940 350 914 415 940 b 644 881 556 940 606 920 b 701 733 682 841 701 792 z m 779 732 b 700 928 779 811 753 876 b 497 1006 647 980 580 1006 b 245 908 394 1006 310 973 b 147 660 180 844 147 761 b 220 472 147 582 172 519 b 410 400 269 424 332 400 b 560 444 467 400 517 415 l 563 442 l 201 0 l 299 0 l 643 435 b 747 593 690 495 725 548 b 779 732 768 638 779 685 z "},"\u0000":{"ha":694,"x_min":0,"x_max":0,"o":""},"\r":{"ha":0,"x_min":0,"x_max":0,"o":""}," ":{"ha":347,"x_min":0,"x_max":0,"o":""},"!":{"ha":385,"x_min":0,"x_max":0,"o":"m 336 983 l 257 983 l 131 268 l 210 268 z m 140 -8 b 185 11 158 -8 173 -2 b 203 57 197 24 203 39 b 186 101 203 75 197 90 b 143 118 175 113 161 118 b 99 99 126 118 112 112 b 79 51 86 86 79 70 b 97 8 79 33 85 18 b 140 -8 108 -3 123 -8 z "},"\"":{"ha":557,"x_min":0,"x_max":0,"o":"m 249 660 l 306 983 l 239 983 l 181 660 z m 450 660 l 507 983 l 439 983 l 382 660 z "},"#":{"ha":769,"x_min":0,"x_max":0,"o":"m 750 613 l 761 678 l 628 678 l 724 983 l 656 983 l 560 678 l 360 678 l 454 983 l 388 983 l 292 678 l 132 678 l 121 613 l 272 613 l 196 374 l 42 374 l 32 308 l 176 308 l 81 0 l 149 0 l 244 308 l 444 308 l 349 0 l 417 0 l 513 308 l 660 308 l 671 374 l 532 374 l 607 613 z m 539 613 l 464 374 l 264 374 l 339 613 z "},"$":{"ha":797,"x_min":0,"x_max":0,"o":"m 510 933 b 622 905 550 932 588 923 b 696 839 656 887 681 865 l 761 886 b 522 1001 709 957 630 996 l 539 1100 l 490 1100 l 474 1003 b 242 917 378 998 301 969 b 154 715 184 864 154 797 b 215 565 154 651 174 601 b 381 474 255 529 310 499 l 306 49 b 181 87 259 52 218 65 b 99 165 145 109 117 135 l 32 121 b 140 25 56 81 92 49 b 294 -17 187 1 239 -13 l 276 -117 l 326 -117 l 343 -18 b 590 75 451 -14 534 17 b 674 279 646 133 674 201 b 611 433 674 344 653 395 b 440 531 569 470 513 503 z m 426 457 b 551 382 480 436 522 411 b 594 269 580 353 594 316 b 527 113 594 206 572 154 b 356 49 482 72 425 50 z m 461 935 l 393 547 b 272 617 338 569 298 592 b 232 724 245 643 232 678 b 301 875 232 788 255 839 b 461 935 347 911 400 931 z "},"%":{"ha":1151,"x_min":0,"x_max":0,"o":"m 311 529 b 499 609 387 529 450 556 b 572 804 548 662 572 727 b 517 943 572 861 554 907 b 368 997 480 979 430 997 b 180 917 292 997 229 970 b 106 724 130 863 106 799 b 163 584 106 667 125 621 b 311 529 200 547 250 529 z m 504 799 b 451 651 504 741 487 692 b 317 590 416 611 371 590 b 214 630 273 590 239 603 b 176 731 189 656 176 690 b 229 877 176 787 194 836 b 363 939 264 918 309 939 b 467 899 407 939 442 926 b 504 799 492 873 504 839 z m 163 -11 l 214 -42 l 1017 994 l 967 1025 z m 621 182 b 678 42 621 125 640 79 b 826 -12 716 6 765 -12 b 1014 67 902 -13 965 14 b 1088 263 1063 121 1088 186 b 1032 401 1088 319 1069 365 b 883 456 995 438 945 456 b 695 375 807 456 745 429 b 621 182 646 321 621 257 z m 1019 257 b 966 110 1019 200 1002 150 b 831 49 930 69 885 49 b 728 88 787 49 753 62 b 690 188 703 113 690 147 b 744 335 690 245 708 294 b 878 397 779 377 824 397 b 982 358 922 397 957 384 b 1019 257 1007 331 1019 298 z "},"&":{"ha":978,"x_min":0,"x_max":0,"o":"m 860 0 l 689 217 l 918 526 l 825 526 l 644 269 l 443 526 b 711 810 622 600 711 695 b 652 954 711 870 691 918 b 497 1008 613 990 561 1008 b 323 938 427 1008 369 985 b 254 758 277 891 254 831 b 338 549 254 688 282 618 b 50 225 146 470 50 362 b 126 43 50 145 75 85 b 324 -19 177 1 243 -19 b 492 23 386 -19 442 -5 b 642 154 543 51 593 95 l 760 0 z m 633 803 b 576 676 633 754 614 712 b 407 576 537 641 481 608 b 328 764 354 641 328 704 b 377 894 328 818 344 861 b 497 944 410 928 450 944 b 597 905 539 944 572 931 b 633 803 621 878 633 844 z m 597 206 b 328 47 513 100 423 47 b 189 96 272 47 226 63 b 133 228 152 128 133 172 b 374 496 133 342 213 431 z "},"'":{"ha":356,"x_min":0,"x_max":0,"o":"m 249 660 l 306 983 l 239 983 l 181 660 z "},"(":{"ha":417,"x_min":0,"x_max":0,"o":"m 368 1019 b 133 648 270 912 192 788 b 46 221 75 508 46 365 b 154 -218 46 49 82 -98 l 213 -187 b 119 222 150 -75 119 62 b 205 636 119 363 148 501 b 421 983 262 771 334 887 z "},")":{"ha":417,"x_min":0,"x_max":0,"o":"m 50 -219 b 285 152 148 -112 226 12 b 372 579 343 292 372 435 b 265 1018 372 750 337 897 l 206 988 b 299 578 268 875 299 738 b 213 164 299 437 270 299 b -3 -183 156 29 84 -87 z "},"*":{"ha":617,"x_min":0,"x_max":0,"o":"m 383 771 l 383 983 l 321 983 l 321 771 l 114 836 l 93 781 l 304 717 l 171 533 l 218 499 l 353 685 l 488 499 l 533 533 l 401 717 l 611 781 l 592 836 z "},"+":{"ha":925,"x_min":0,"x_max":0,"o":"m 497 389 l 807 389 l 807 454 l 497 454 l 497 769 l 429 769 l 429 454 l 118 454 l 118 389 l 429 389 l 429 74 l 497 74 z "},",":{"ha":353,"x_min":0,"x_max":0,"o":"m 196 131 l 117 131 l -31 -193 l 32 -193 z "},"-":{"ha":436,"x_min":0,"x_max":0,"o":"m 350 310 l 361 374 l 68 374 l 57 310 z "},".":{"ha":353,"x_min":0,"x_max":0,"o":"m 108 -8 b 153 11 126 -8 141 -2 b 172 57 166 24 172 39 b 156 101 172 75 167 90 b 113 118 144 113 130 118 b 67 99 95 118 80 112 b 49 51 55 86 49 70 b 65 8 49 33 54 18 b 108 -8 76 -3 91 -8 z "},"/":{"ha":514,"x_min":0,"x_max":0,"o":"m 604 988 l 546 1010 l -56 -3 l 6 -24 z "},":":{"ha":408,"x_min":0,"x_max":0,"o":"m 143 -8 b 188 11 161 -8 175 -2 b 206 57 200 24 206 39 b 189 101 206 75 200 90 b 146 118 178 113 163 118 b 101 99 129 118 114 112 b 82 51 88 86 82 70 b 99 8 82 33 88 18 b 143 -8 111 -3 125 -8 z m 226 526 b 271 546 244 526 259 533 b 289 592 283 559 289 574 b 272 636 289 610 283 625 b 231 653 261 647 247 653 b 185 633 213 653 198 646 b 167 586 173 620 167 605 b 183 542 167 568 172 553 b 226 526 194 532 209 526 z "},";":{"ha":408,"x_min":0,"x_max":0,"o":"m 215 131 l 133 131 l -14 -193 l 53 -193 z m 226 526 b 271 546 244 526 259 533 b 289 592 283 559 289 574 b 272 636 289 610 283 625 b 231 653 261 647 247 653 b 185 633 213 653 198 646 b 167 586 173 620 167 605 b 183 542 167 568 172 553 b 226 526 194 532 209 526 z "},"<":{"ha":925,"x_min":0,"x_max":0,"o":"m 807 68 l 807 136 l 201 421 l 807 706 l 807 774 l 118 449 l 118 393 z "},"=":{"ha":925,"x_min":0,"x_max":0,"o":"m 807 497 l 807 563 l 118 563 l 118 497 z m 807 279 l 807 346 l 118 346 l 118 279 z "},">":{"ha":925,"x_min":0,"x_max":0,"o":"m 118 68 l 807 393 l 807 449 l 118 774 l 118 706 l 724 421 l 118 136 z "},"?":{"ha":665,"x_min":0,"x_max":0,"o":"m 356 328 b 399 438 364 374 378 411 b 504 532 419 464 454 496 b 626 647 557 570 598 608 b 669 785 655 685 669 731 b 603 947 669 856 647 910 b 432 1003 558 984 501 1003 b 249 942 363 1003 302 982 b 142 776 197 901 161 846 l 214 761 b 290 886 228 813 253 855 b 432 933 326 918 374 933 b 546 893 478 933 516 920 b 590 782 575 866 590 829 b 469 593 589 714 549 651 l 421 557 b 285 350 344 501 299 432 l 271 269 l 346 269 z m 288 -8 b 331 11 304 -8 319 -2 b 350 57 344 24 350 39 b 333 101 350 75 344 90 b 290 118 322 113 308 118 b 246 99 274 118 259 112 b 226 51 233 86 226 70 b 244 8 226 33 232 18 b 288 -8 255 -3 270 -8 z "},"@":{"ha":1111,"x_min":0,"x_max":0,"o":"m 786 222 b 1010 342 880 222 954 262 b 1094 629 1066 422 1094 518 b 974 906 1094 745 1054 837 b 667 1010 893 975 791 1010 b 238 833 495 1010 352 951 b 65 404 123 715 65 572 b 194 94 65 278 108 175 b 535 -26 279 14 393 -26 b 975 142 703 -26 850 30 l 940 192 b 542 39 824 90 691 39 b 253 140 422 39 326 73 b 144 407 181 208 144 297 b 294 785 144 554 194 680 b 663 943 393 891 516 943 b 923 854 769 943 856 913 b 1024 618 990 795 1024 716 b 959 386 1024 531 1002 454 b 803 285 916 319 864 285 b 732 346 756 285 732 305 b 765 463 732 374 743 413 l 882 742 l 813 742 l 782 668 l 776 668 b 733 737 772 696 757 719 b 642 764 708 755 678 764 b 502 726 592 764 545 751 b 398 629 459 700 424 668 b 337 508 372 590 351 550 b 315 390 322 466 315 426 b 356 269 315 340 329 300 b 482 222 384 238 425 222 b 594 257 523 222 560 234 b 672 333 628 280 654 306 l 676 333 b 674 310 675 328 674 320 b 706 247 674 284 684 263 b 786 222 727 230 754 222 z m 732 593 b 701 463 732 553 722 510 b 613 340 681 416 652 375 b 492 288 575 305 534 288 b 396 394 428 288 396 323 b 467 601 396 469 420 538 b 633 697 515 665 570 697 b 732 593 699 697 732 663 z "},"A":{"ha":939,"x_min":0,"x_max":0,"o":"m 844 0 l 649 983 l 567 983 l -67 0 l 26 0 l 193 265 l 711 265 l 763 0 z m 699 338 l 238 338 l 592 899 z "},"B":{"ha":856,"x_min":0,"x_max":0,"o":"m 357 0 b 650 77 478 0 576 26 b 761 301 724 128 761 203 b 706 446 761 360 743 408 b 571 515 670 484 625 507 l 571 518 b 736 606 641 534 696 563 b 796 769 776 649 796 704 b 713 931 796 842 768 895 b 514 983 657 966 591 983 l 240 983 l 67 0 z m 714 754 b 636 597 714 684 688 631 b 450 546 584 563 522 546 l 240 546 l 306 917 l 493 917 b 652 876 558 917 611 903 b 714 754 693 848 714 808 z m 681 303 b 592 126 681 224 651 165 b 361 67 532 86 456 67 l 157 67 l 229 481 l 451 481 b 617 434 520 481 575 465 b 681 303 659 403 681 359 z "},"C":{"ha":1001,"x_min":0,"x_max":0,"o":"m 856 183 b 538 43 771 90 665 43 b 271 146 423 43 334 77 b 176 407 208 214 176 301 b 320 779 176 548 224 672 b 675 940 416 887 534 940 b 832 904 734 940 787 928 b 932 813 877 880 911 850 l 999 861 b 869 970 970 907 927 944 b 678 1010 811 997 747 1010 b 264 830 515 1010 377 950 b 94 399 151 710 94 566 b 213 91 94 272 134 169 b 535 -26 292 13 400 -26 b 907 136 688 -26 812 28 z "},"D":{"ha":1058,"x_min":0,"x_max":0,"o":"m 376 0 b 815 154 554 0 700 51 b 988 574 930 257 988 397 b 949 757 988 642 975 703 b 844 886 923 811 888 854 b 697 959 800 919 751 943 b 525 983 644 975 586 983 l 240 983 l 67 0 z m 508 914 b 801 818 634 914 732 882 b 904 565 870 754 904 670 b 761 209 904 421 856 302 b 381 69 666 116 539 69 l 157 69 l 307 914 z "},"E":{"ha":804,"x_min":0,"x_max":0,"o":"m 681 0 l 693 69 l 157 69 l 229 478 l 707 478 l 718 544 l 240 544 l 306 914 l 804 914 l 817 983 l 240 983 l 67 0 z "},"F":{"ha":760,"x_min":0,"x_max":0,"o":"m 792 914 l 804 983 l 240 983 l 67 0 l 144 0 l 229 476 l 683 476 l 694 544 l 240 544 l 306 914 z "},"G":{"ha":1069,"x_min":0,"x_max":0,"o":"m 533 -26 b 894 67 669 -26 790 5 l 971 506 l 656 506 l 643 439 l 882 439 l 825 111 b 538 43 748 66 652 43 b 270 146 422 43 333 77 b 176 407 208 214 176 301 b 320 779 176 548 224 672 b 675 940 416 887 534 940 b 834 904 734 940 787 928 b 940 813 881 880 916 850 l 1003 861 b 873 970 974 907 931 944 b 678 1010 815 997 750 1010 b 264 830 515 1010 377 950 b 94 399 151 710 94 566 b 213 90 94 271 134 168 b 533 -26 291 13 398 -26 z "},"H":{"ha":989,"x_min":0,"x_max":0,"o":"m 782 0 l 956 983 l 878 983 l 800 546 l 240 546 l 318 983 l 240 983 l 67 0 l 144 0 l 228 475 l 788 475 l 704 0 z "},"I":{"ha":350,"x_min":0,"x_max":0,"o":"m 144 0 l 318 983 l 240 983 l 67 0 z "},"J":{"ha":668,"x_min":0,"x_max":0,"o":"m 644 983 l 565 983 l 443 285 b 374 108 429 210 406 151 b 229 43 342 65 294 43 b 58 178 141 43 84 88 l -7 156 b 69 26 2 104 28 61 b 229 -25 110 -8 163 -25 b 357 1 278 -25 321 -16 b 442 74 393 18 422 42 b 491 169 463 106 479 138 b 519 279 503 201 512 238 z "},"K":{"ha":789,"x_min":0,"x_max":0,"o":"m 240 540 l 318 983 l 240 983 l 67 0 l 144 0 l 238 525 l 642 0 l 743 0 l 328 528 l 869 983 l 756 983 l 242 540 z "},"L":{"ha":703,"x_min":0,"x_max":0,"o":"m 613 0 l 625 69 l 156 69 l 318 983 l 240 983 l 67 0 z "},"M":{"ha":1236,"x_min":0,"x_max":0,"o":"m 1029 0 l 1203 983 l 1081 983 l 569 132 l 360 983 l 240 983 l 67 0 l 143 0 l 299 879 l 301 879 l 525 0 l 569 0 l 1103 879 l 1106 879 l 951 0 z "},"N":{"ha":1042,"x_min":0,"x_max":0,"o":"m 836 0 l 1010 983 l 931 983 l 776 110 l 774 110 l 340 983 l 240 983 l 67 0 l 146 0 l 300 882 l 304 882 l 736 0 z "},"O":{"ha":1174,"x_min":0,"x_max":0,"o":"m 1019 576 b 960 316 1019 484 1000 397 b 788 119 920 235 863 169 b 536 43 713 68 629 43 b 271 146 422 43 334 77 b 176 407 208 214 176 301 b 313 780 176 549 222 673 b 661 940 404 887 520 940 b 926 838 775 940 863 906 b 1019 576 988 769 1019 682 z m 94 401 b 214 92 94 274 134 170 b 533 -26 294 13 400 -26 b 827 57 642 -26 740 1 b 1031 279 915 112 982 187 b 1103 583 1079 372 1103 473 b 983 892 1103 710 1063 813 b 664 1010 904 970 797 1010 b 258 832 502 1010 366 950 b 94 401 149 713 94 570 z "},"P":{"ha":797,"x_min":0,"x_max":0,"o":"m 428 465 b 693 542 540 465 628 491 b 790 753 758 593 790 663 b 711 924 790 827 764 884 b 499 983 658 963 588 983 l 240 983 l 67 0 l 144 0 l 226 465 z m 711 746 b 638 587 711 677 687 624 b 435 531 590 549 522 531 l 238 531 l 306 917 l 494 917 b 711 746 639 917 711 860 z "},"Q":{"ha":1181,"x_min":0,"x_max":0,"o":"m 547 0 l 1076 0 l 1089 69 l 775 69 l 775 72 b 1011 269 872 110 951 176 b 1101 585 1071 362 1101 467 b 981 892 1101 711 1061 813 b 661 1010 900 970 794 1010 b 257 834 499 1010 364 951 b 96 410 150 717 96 575 b 220 107 96 279 137 178 b 547 0 303 36 412 0 z m 551 68 b 275 163 433 68 341 100 b 176 421 209 225 176 312 b 313 783 176 557 222 678 b 658 940 403 888 519 940 b 924 836 772 940 861 906 b 1019 572 988 767 1019 679 b 882 217 1019 435 974 317 b 551 68 790 118 680 68 z "},"R":{"ha":831,"x_min":0,"x_max":0,"o":"m 718 0 l 499 476 b 709 555 584 485 654 511 b 792 757 764 599 792 666 b 708 927 792 833 764 890 b 494 983 653 965 581 983 l 240 983 l 67 0 l 144 0 l 228 471 l 418 471 l 629 0 z m 713 747 b 428 538 713 607 618 538 l 239 538 l 306 917 l 481 917 b 650 874 552 917 608 903 b 713 747 692 846 713 804 z "},"S":{"ha":786,"x_min":0,"x_max":0,"o":"m 764 893 b 661 978 742 928 707 956 b 496 1010 615 999 560 1010 b 247 928 394 1010 311 983 b 150 718 182 874 150 804 b 196 584 150 664 165 620 b 306 503 226 548 263 521 b 435 450 349 484 392 467 b 546 381 478 433 515 410 b 592 268 576 351 592 313 b 517 105 592 200 567 146 b 331 43 467 64 405 43 b 92 160 228 43 148 82 l 32 115 b 153 11 60 71 100 36 b 325 -26 206 -14 263 -26 b 483 1 384 -26 437 -17 b 593 72 530 19 566 43 b 654 170 620 102 640 134 b 675 281 668 206 675 243 b 651 383 675 319 667 354 b 588 455 634 413 613 437 b 501 503 562 473 533 489 b 407 544 470 518 438 531 b 321 586 375 557 347 571 b 258 644 295 601 274 620 b 233 728 241 669 233 696 b 313 885 233 796 260 849 b 492 940 365 922 425 940 b 704 846 583 940 654 909 z "},"T":{"ha":746,"x_min":0,"x_max":0,"o":"m 829 914 l 842 983 l 101 983 l 89 914 l 421 914 l 260 0 l 338 0 l 500 914 z "},"U":{"ha":989,"x_min":0,"x_max":0,"o":"m 965 983 l 888 983 l 781 378 b 747 254 772 331 761 290 b 690 149 733 218 714 183 b 591 71 665 116 632 89 b 446 43 550 52 501 43 b 257 106 362 43 299 64 b 194 283 215 147 194 206 b 204 379 194 308 198 340 l 310 983 l 232 983 l 128 386 b 118 281 121 351 118 316 b 202 53 118 182 146 107 b 442 -26 258 0 338 -26 b 622 8 510 -26 570 -15 b 746 104 674 31 715 63 b 817 228 776 145 800 186 b 857 368 834 271 848 317 z "},"V":{"ha":828,"x_min":0,"x_max":0,"o":"m 947 983 l 860 983 l 340 99 l 338 99 l 200 983 l 117 983 l 276 0 l 363 0 z "},"W":{"ha":1326,"x_min":0,"x_max":0,"o":"m 1424 983 l 1340 983 l 910 106 l 907 106 l 826 983 l 728 983 l 296 106 l 293 106 l 214 983 l 131 983 l 226 0 l 322 0 l 758 878 l 761 878 l 840 0 l 936 0 z "},"X":{"ha":839,"x_min":0,"x_max":0,"o":"m 900 983 l 797 983 l 442 574 l 246 983 l 153 983 l 385 517 l -71 0 l 36 0 l 424 449 l 640 0 l 735 0 l 481 507 z "},"Y":{"ha":756,"x_min":0,"x_max":0,"o":"m 878 983 l 781 983 l 378 492 l 178 983 l 86 983 l 329 425 l 253 0 l 332 0 l 407 425 z "},"Z":{"ha":804,"x_min":0,"x_max":0,"o":"m 686 0 l 699 69 l 93 69 l 839 913 l 851 983 l 178 983 l 165 914 l 740 914 l -6 69 l -18 0 z "},"[":{"ha":417,"x_min":0,"x_max":0,"o":"m 197 -217 l 208 -156 l 67 -156 l 263 956 l 406 956 l 415 1017 l 200 1017 l -18 -217 z "},"\\":{"ha":514,"x_min":0,"x_max":0,"o":"m 14 988 l 436 -24 l 500 -3 l 78 1010 z "},"]":{"ha":417,"x_min":0,"x_max":0,"o":"m 3 -217 l 219 -217 l 438 1017 l 221 1017 l 211 956 l 354 956 l 157 -156 l 14 -156 z "},"^":{"ha":925,"x_min":0,"x_max":0,"o":"m 118 368 l 188 368 l 463 908 l 738 368 l 807 368 l 490 983 l 435 983 z "},"_":{"ha":694,"x_min":0,"x_max":0,"o":"m 694 -169 l 694 -112 l 0 -112 l 0 -169 z "},"`":{"ha":333,"x_min":0,"x_max":0,"o":"m 60 983 l 235 783 l 299 783 l 157 983 z "},"a":{"ha":732,"x_min":0,"x_max":0,"o":"m 567 146 l 614 406 b 619 475 618 430 619 453 b 558 615 619 536 599 583 b 396 664 516 648 463 664 b 265 640 353 664 310 656 b 151 575 221 623 183 602 l 186 525 b 388 601 249 576 316 601 b 549 461 495 601 549 555 b 540 392 549 442 546 419 b 356 383 471 392 409 389 b 199 349 302 377 250 366 b 83 276 149 333 110 309 b 42 153 55 243 42 202 b 101 26 42 95 62 53 b 242 -14 141 0 188 -14 b 493 119 345 -14 429 31 l 496 119 b 485 0 488 78 485 38 l 551 0 b 567 146 551 36 556 85 z m 521 278 b 435 114 510 214 481 159 b 265 46 390 69 333 46 b 161 72 225 46 190 55 b 118 161 132 90 118 119 b 503 333 118 276 246 333 l 531 333 z "},"b":{"ha":871,"x_min":0,"x_max":0,"o":"m 229 524 l 324 1050 l 250 1050 l 64 0 l 138 0 l 161 131 l 164 131 b 258 22 181 85 213 49 b 406 -18 303 -5 352 -18 b 672 99 514 -18 603 21 b 776 382 742 176 776 271 b 701 586 776 466 751 534 b 492 664 650 638 581 664 b 339 624 437 664 386 650 b 233 524 292 597 256 563 z m 481 601 b 643 538 550 601 604 580 b 701 378 682 496 701 443 b 618 142 701 285 674 207 b 403 46 563 78 491 46 b 242 109 336 46 282 67 b 181 269 201 151 181 205 b 268 503 181 359 210 437 b 481 601 326 569 397 601 z "},"c":{"ha":681,"x_min":0,"x_max":0,"o":"m 363 44 b 199 107 293 44 239 65 b 140 268 160 149 140 202 b 228 503 140 359 169 437 b 446 601 286 569 359 601 b 611 521 519 601 574 575 l 668 560 b 447 664 626 629 553 664 b 172 547 335 664 243 625 b 64 261 100 468 64 373 b 141 58 64 178 90 110 b 353 -19 192 6 263 -19 b 604 83 447 -19 531 15 l 560 129 b 363 44 503 73 438 44 z "},"d":{"ha":863,"x_min":0,"x_max":0,"o":"m 346 -18 b 498 22 400 -18 451 -5 b 603 124 545 49 580 83 l 606 124 l 582 0 l 657 0 l 843 1050 l 768 1050 l 675 517 l 671 517 b 578 624 652 562 621 598 b 429 664 534 651 485 664 b 163 549 321 664 232 626 b 58 269 93 473 58 380 b 135 60 58 182 84 113 b 346 -18 187 8 257 -18 z m 356 46 b 193 109 286 46 232 67 b 135 269 154 151 135 205 b 217 506 135 364 162 443 b 433 601 272 570 344 601 b 594 539 500 601 553 581 b 654 379 634 497 654 444 b 567 145 654 289 625 211 b 356 46 509 79 439 46 z "},"e":{"ha":781,"x_min":0,"x_max":0,"o":"m 683 308 b 696 411 692 338 696 372 b 626 594 696 486 673 547 b 429 664 580 641 514 664 b 165 547 325 664 237 625 b 58 269 94 469 58 377 b 140 60 58 181 85 112 b 353 -18 194 8 265 -18 b 513 18 410 -18 464 -6 b 635 117 563 42 603 75 l 586 156 b 358 46 526 82 450 46 b 196 108 292 46 238 66 b 133 267 154 149 133 202 b 136 308 133 285 134 299 z m 618 364 l 146 364 b 242 531 160 428 192 483 b 428 601 293 578 355 601 b 570 551 489 601 536 584 b 621 415 604 517 621 472 b 618 364 621 403 620 386 z "},"f":{"ha":404,"x_min":0,"x_max":0,"o":"m 533 1057 b 461 1067 513 1063 489 1067 b 310 1006 399 1067 349 1046 b 235 839 272 965 247 909 l 201 647 l 67 647 l 56 585 l 192 585 l 89 0 l 164 0 l 267 585 l 425 585 l 438 647 l 276 647 l 308 832 b 454 1001 327 945 375 1001 b 517 996 475 1001 496 1000 z "},"g":{"ha":867,"x_min":0,"x_max":0,"o":"m 619 139 l 596 15 b 503 -194 579 -73 548 -143 b 303 -272 459 -246 392 -272 b 53 -161 200 -272 117 -235 l 8 -210 b 131 -303 39 -250 80 -281 b 299 -337 181 -326 238 -337 b 440 -315 351 -337 398 -330 b 539 -260 481 -300 514 -282 b 604 -178 564 -239 586 -211 b 645 -85 623 -146 636 -115 b 668 14 654 -56 662 -23 l 779 647 l 707 647 l 683 515 l 679 515 b 589 624 663 561 632 597 b 443 664 545 650 497 664 b 176 551 336 664 247 626 b 69 279 105 476 69 386 b 147 74 69 196 95 128 b 357 -6 198 21 268 -6 b 506 33 411 -6 460 7 b 617 139 552 59 589 94 z m 368 57 b 203 120 298 57 243 78 b 144 278 164 162 144 215 b 227 510 144 371 172 449 b 442 601 282 571 354 601 b 603 538 508 601 562 580 b 664 379 644 495 664 442 b 579 153 664 292 636 217 b 368 57 523 89 452 57 z "},"h":{"ha":797,"x_min":0,"x_max":0,"o":"m 228 521 l 319 1050 l 246 1050 l 61 0 l 135 0 l 193 329 b 287 531 209 416 240 483 b 449 601 334 578 388 601 b 562 556 499 601 536 586 b 600 433 587 526 600 485 b 593 365 600 414 598 391 l 528 0 l 601 0 l 665 358 b 674 443 671 389 674 417 b 619 606 674 513 656 568 b 464 664 583 645 531 664 b 329 625 416 664 371 651 b 231 521 288 599 255 564 z "},"i":{"ha":338,"x_min":0,"x_max":0,"o":"m 136 0 l 250 647 l 176 647 l 61 0 z m 250 849 b 290 866 266 849 279 854 b 307 907 301 878 307 891 b 292 947 307 924 302 937 b 254 961 281 956 269 961 b 214 944 238 961 225 955 b 197 901 203 932 197 918 b 213 863 197 886 202 873 b 250 849 223 853 235 849 z "},"j":{"ha":339,"x_min":0,"x_max":0,"o":"m 251 647 l 178 647 l 42 -121 b 3 -232 32 -170 19 -207 b -83 -269 -14 -257 -43 -269 b -136 -264 -104 -269 -121 -268 l -149 -325 b -82 -333 -131 -331 -109 -333 b 51 -284 -23 -333 22 -317 b 114 -131 81 -251 102 -200 z m 250 849 b 290 866 266 849 279 854 b 307 907 301 878 307 891 b 292 947 307 924 302 937 b 254 961 281 956 269 961 b 214 944 238 961 225 955 b 197 901 203 932 197 918 b 213 863 197 886 202 873 b 250 849 223 853 235 849 z "},"k":{"ha":656,"x_min":0,"x_max":0,"o":"m 199 354 l 322 1050 l 247 1050 l 63 0 l 138 0 l 197 340 l 201 340 l 492 0 l 589 0 l 286 346 l 653 647 l 547 647 l 201 354 z "},"l":{"ha":339,"x_min":0,"x_max":0,"o":"m 138 0 l 322 1050 l 247 1050 l 63 0 z "},"m":{"ha":1219,"x_min":0,"x_max":0,"o":"m 61 0 l 135 0 l 193 329 b 284 530 208 415 238 482 b 436 601 330 578 381 601 b 578 450 531 601 578 551 b 571 379 578 431 575 407 l 503 0 l 576 0 l 638 338 b 717 528 652 416 679 480 b 869 601 755 577 806 601 b 1022 438 971 601 1022 547 b 1015 365 1022 419 1020 395 l 950 0 l 1025 0 l 1089 361 b 1097 450 1094 393 1097 422 b 1043 609 1097 519 1079 572 b 888 664 1007 646 955 664 b 747 624 837 664 790 651 b 646 510 705 598 671 560 b 581 625 637 561 615 599 b 458 664 546 651 506 664 b 226 518 359 664 282 615 l 224 518 b 240 647 232 572 238 615 l 169 647 b 149 499 168 623 161 574 z "},"n":{"ha":797,"x_min":0,"x_max":0,"o":"m 224 518 b 242 647 228 543 234 586 l 169 647 b 149 499 168 623 161 574 l 61 0 l 135 0 l 193 329 b 287 531 209 416 240 483 b 449 601 334 578 388 601 b 562 556 499 601 536 586 b 600 433 587 526 600 485 b 593 365 600 414 598 391 l 528 0 l 601 0 l 665 358 b 674 443 671 389 674 417 b 619 606 674 513 656 568 b 464 664 583 645 531 664 b 327 624 416 664 370 650 b 226 518 284 597 250 562 z "},"o":{"ha":829,"x_min":0,"x_max":0,"o":"m 660 378 b 575 144 660 287 631 209 b 360 46 519 78 447 46 b 195 109 289 46 234 67 b 136 269 156 151 136 205 b 221 503 136 360 164 438 b 433 601 277 569 348 601 b 599 538 504 601 559 580 b 660 378 640 496 660 443 z m 58 265 b 140 61 58 182 85 114 b 356 -18 194 8 266 -18 b 628 99 467 -18 558 21 b 735 382 699 176 735 271 b 654 585 735 465 708 533 b 439 664 600 638 529 664 b 165 547 328 664 237 625 b 58 265 94 469 58 375 z "},"p":{"ha":871,"x_min":0,"x_max":0,"o":"m 161 131 l 164 131 b 258 22 182 85 214 49 b 404 -18 302 -5 350 -18 b 672 99 513 -18 602 21 b 776 382 741 176 776 271 b 700 586 776 466 751 534 b 489 664 649 638 579 664 b 338 624 434 664 384 650 b 233 524 291 597 256 563 l 229 524 l 253 647 l 178 647 l 4 -333 l 79 -333 z m 481 601 b 643 538 550 601 604 580 b 701 378 682 496 701 443 b 618 142 701 285 674 207 b 403 46 563 78 491 46 b 242 109 336 46 282 67 b 181 269 201 151 181 205 b 268 503 181 359 210 437 b 481 601 326 569 397 601 z "},"q":{"ha":860,"x_min":0,"x_max":0,"o":"m 675 517 l 671 517 b 577 624 652 562 621 598 b 431 664 533 651 484 664 b 164 547 323 664 234 625 b 58 264 94 469 58 375 b 137 60 58 180 84 112 b 349 -18 189 8 260 -18 b 499 22 403 -18 453 -5 b 603 124 545 49 580 83 l 606 124 l 525 -333 l 599 -333 l 772 647 l 697 647 z m 356 46 b 193 109 286 46 232 67 b 135 269 154 151 135 205 b 218 505 135 362 163 441 b 433 601 274 569 345 601 b 594 539 500 601 553 581 b 654 379 634 497 654 444 b 567 145 654 289 625 211 b 356 46 509 79 439 46 z "},"r":{"ha":467,"x_min":0,"x_max":0,"o":"m 226 518 l 224 518 b 240 647 232 572 238 615 l 169 647 b 149 499 168 623 161 574 l 61 0 l 135 0 l 193 332 b 280 524 208 413 237 478 b 433 594 323 571 374 594 b 485 589 455 594 472 593 l 501 658 b 451 664 488 662 471 664 b 323 626 405 664 362 651 b 226 518 284 600 251 564 z "},"s":{"ha":599,"x_min":0,"x_max":0,"o":"m 8 90 b 249 -17 65 19 145 -17 b 421 35 315 -17 373 1 b 493 182 469 70 493 119 b 448 293 493 228 478 265 b 304 365 418 321 370 345 b 202 410 256 380 222 395 b 172 481 182 425 172 448 b 219 569 172 519 188 548 b 333 601 251 591 289 601 b 493 526 405 601 458 576 l 549 567 b 467 637 532 595 505 619 b 339 664 429 655 386 664 b 172 615 275 664 219 648 b 100 475 124 583 100 536 b 144 370 100 430 115 395 b 274 306 173 346 216 324 b 384 252 325 289 361 271 b 418 174 407 233 418 207 b 370 81 418 134 402 103 b 251 47 338 58 299 47 b 64 136 173 47 110 77 z "},"t":{"ha":421,"x_min":0,"x_max":0,"o":"m 224 -11 b 321 7 263 -11 295 -5 l 329 71 b 253 53 310 59 284 53 b 167 131 195 53 167 79 b 172 178 167 142 169 157 l 244 585 l 419 585 l 432 647 l 254 647 l 286 832 l 213 832 l 179 647 l 43 647 l 32 585 l 169 585 l 94 161 b 90 111 92 145 90 129 b 128 18 90 69 103 38 b 224 -11 154 -1 186 -11 z "},"u":{"ha":797,"x_min":0,"x_max":0,"o":"m 300 -18 b 433 21 346 -18 391 -5 b 535 128 475 47 509 82 l 538 128 b 519 0 532 99 526 56 l 592 0 b 613 149 594 41 601 90 l 700 647 l 626 647 l 568 318 b 474 117 552 231 521 164 b 314 46 426 69 373 46 b 161 207 212 46 161 100 b 168 281 161 226 163 251 l 233 647 l 160 647 l 94 281 b 86 194 89 249 86 220 b 141 36 86 125 104 72 b 300 -18 178 0 231 -18 z "},"v":{"ha":643,"x_min":0,"x_max":0,"o":"m 660 647 l 581 647 l 247 79 l 244 79 l 138 647 l 60 647 l 190 0 l 272 0 z "},"w":{"ha":1001,"x_min":0,"x_max":0,"o":"m 1010 647 l 929 647 l 657 94 l 653 94 l 575 647 l 500 647 l 208 94 l 206 94 l 160 647 l 82 647 l 147 0 l 229 0 l 519 550 l 522 550 l 597 0 l 681 0 z "},"x":{"ha":643,"x_min":0,"x_max":0,"o":"m 644 647 l 553 647 l 313 386 l 181 647 l 100 647 l 261 342 l -64 0 l 29 0 l 293 286 l 444 0 l 532 0 l 344 332 z "},"y":{"ha":649,"x_min":0,"x_max":0,"o":"m -19 -335 b 90 -297 23 -335 60 -322 b 182 -181 121 -271 151 -232 l 667 647 l 585 647 l 263 76 l 260 76 l 150 647 l 71 647 l 207 -4 l 124 -150 b 58 -238 102 -189 80 -218 b -22 -268 35 -258 8 -268 b -81 -260 -44 -268 -64 -265 l -92 -325 b -19 -335 -66 -331 -42 -335 z "},"z":{"ha":608,"x_min":0,"x_max":0,"o":"m 490 0 l 501 65 l 89 65 l 579 590 l 590 647 l 114 647 l 103 583 l 479 583 l -11 56 l -21 0 z "},"{":{"ha":417,"x_min":0,"x_max":0,"o":"m 150 -217 l 231 -217 l 242 -156 l 176 -156 b 104 -82 128 -156 104 -131 b 106 -62 104 -74 105 -67 b 131 97 106 -59 114 -6 b 156 254 147 199 156 251 l 156 268 b 128 362 156 310 147 341 b 69 399 110 383 91 395 l 69 401 b 155 449 96 405 125 421 b 215 576 185 478 205 520 l 260 832 b 372 956 274 914 311 956 l 439 956 l 449 1017 l 368 1017 b 253 976 324 1017 285 1003 b 189 843 220 948 199 904 l 144 589 b 7 433 124 485 78 433 l -6 367 b 81 264 52 367 81 332 l 81 246 b 55 84 81 243 72 189 b 29 -79 38 -21 29 -75 b 28 -88 29 -81 29 -84 b 28 -97 28 -92 28 -95 b 150 -217 28 -177 69 -217 z "},"|":{"ha":308,"x_min":0,"x_max":0,"o":"m 119 1042 l 119 -347 l 188 -347 l 188 1042 z "},"}":{"ha":417,"x_min":0,"x_max":0,"o":"m 411 367 l 424 433 b 338 529 366 433 338 465 b 339 551 338 538 338 546 b 365 715 339 555 348 610 b 392 879 383 821 392 875 l 392 896 b 268 1017 392 976 350 1017 l 188 1017 l 178 956 l 244 956 b 315 878 292 956 315 930 l 315 863 b 290 703 315 860 307 807 b 264 544 272 600 264 547 l 264 531 b 291 438 264 490 273 459 b 350 401 309 417 329 405 l 350 399 b 264 351 322 395 294 379 b 204 224 234 322 214 280 l 160 -32 b 47 -156 146 -114 108 -156 l -19 -156 l -31 -217 l 50 -217 b 232 -43 150 -217 211 -159 l 276 211 b 411 367 294 315 339 367 z "},"~":{"ha":925,"x_min":0,"x_max":0,"o":"m 125 381 l 174 336 b 315 442 212 406 259 442 b 381 429 338 442 360 438 b 464 382 401 421 429 405 b 614 333 512 350 562 333 b 800 461 684 333 746 376 l 753 507 b 611 400 710 436 663 400 b 461 461 572 400 522 420 b 313 510 413 494 363 510 b 125 381 245 510 182 467 z "}," ":{"ha":347,"x_min":0,"x_max":0,"o":""},"¡":{"ha":385,"x_min":0,"x_max":0,"o":"m 22 -314 l 101 -314 l 228 401 l 149 401 z m 218 678 b 174 658 201 678 187 671 b 156 613 162 645 156 630 b 172 568 156 594 161 579 b 215 551 183 557 198 551 b 260 571 232 551 247 558 b 279 617 273 584 279 599 b 262 661 279 635 273 650 b 218 678 250 672 236 678 z "},"¢":{"ha":797,"x_min":0,"x_max":0,"o":"m 463 664 b 206 537 358 656 272 614 b 106 261 139 459 106 368 b 168 74 106 186 126 124 b 343 -15 210 25 268 -5 l 328 -100 l 383 -100 l 399 -19 b 650 86 496 -19 580 16 l 604 129 b 410 44 552 74 488 45 l 508 601 b 593 574 539 599 567 590 b 650 518 619 559 638 540 l 714 563 b 518 663 677 623 612 656 l 533 750 l 478 750 z m 453 600 l 356 50 b 228 122 300 58 257 82 b 183 268 198 162 183 211 b 260 492 183 352 209 427 b 453 600 311 556 375 593 z "},"£":{"ha":797,"x_min":0,"x_max":0,"o":"m 338 542 l 361 682 b 376 751 366 708 371 731 b 403 819 382 772 391 794 b 444 882 415 844 428 865 b 504 924 459 899 479 913 b 589 942 529 936 557 942 b 731 882 650 942 697 922 l 779 938 b 590 1008 734 985 671 1008 b 285 689 425 1008 324 902 l 258 542 l 128 542 l 115 478 l 249 478 l 178 65 l 33 65 l 21 0 l 606 0 l 618 65 l 256 65 l 328 478 l 561 478 l 574 542 z "},"€":{"ha":797,"x_min":0,"x_max":0,"o":"m 781 897 l 815 965 b 624 1010 765 995 701 1010 b 351 908 524 1010 433 976 b 168 642 269 840 208 751 l 83 642 l 50 579 l 147 579 b 115 403 126 511 115 452 l 42 403 l 10 340 l 113 340 b 204 81 113 238 143 152 b 463 -26 265 9 351 -26 b 693 39 547 -26 624 -5 l 667 101 b 476 44 606 63 542 44 b 273 126 391 44 323 72 b 197 340 222 180 197 251 l 533 340 l 564 403 l 199 403 b 232 579 200 465 212 524 l 646 579 l 678 642 l 254 642 b 399 855 288 728 336 799 b 617 939 462 911 534 939 b 781 897 683 939 738 925 z "},"¥":{"ha":797,"x_min":0,"x_max":0,"o":"m 375 468 l 346 310 l 107 310 l 97 251 l 338 251 l 292 0 l 365 0 l 410 251 l 651 251 l 661 310 l 419 310 l 449 468 l 690 468 l 699 526 l 485 526 l 871 983 l 775 983 l 429 554 l 232 983 l 146 983 l 371 526 l 144 526 l 135 468 z "},"Š":{"ha":786,"x_min":0,"x_max":0,"o":"m 764 893 b 661 978 742 928 707 956 b 496 1010 615 999 560 1010 b 247 928 394 1010 311 983 b 150 718 182 874 150 804 b 196 584 150 664 165 620 b 306 503 226 548 263 521 b 435 450 349 484 392 467 b 546 381 478 433 515 410 b 592 268 576 351 592 313 b 517 105 592 200 567 146 b 331 43 467 64 405 43 b 92 160 228 43 148 82 l 32 115 b 153 11 60 71 100 36 b 325 -26 206 -14 263 -26 b 483 1 384 -26 437 -17 b 593 72 530 19 566 43 b 654 170 620 102 640 134 b 675 281 668 206 675 243 b 651 383 675 319 667 354 b 588 455 634 413 613 437 b 501 503 562 473 533 489 b 407 544 470 518 438 531 b 321 586 375 557 347 571 b 258 644 295 601 274 620 b 233 728 241 669 233 696 b 313 885 233 796 260 849 b 492 940 365 922 425 940 b 704 846 583 940 654 909 z m 544 1061 l 729 1261 l 653 1261 l 503 1101 l 413 1261 l 343 1261 l 454 1061 z "},"§":{"ha":797,"x_min":0,"x_max":0,"o":"m 471 196 b 600 272 525 212 568 237 b 649 406 632 307 649 352 b 602 526 649 455 633 495 b 442 619 571 557 518 588 b 331 683 390 641 353 662 b 299 771 309 703 299 733 b 350 889 299 818 316 857 b 489 936 384 920 431 936 b 649 858 562 936 615 910 l 711 904 b 490 1003 669 970 596 1003 b 293 933 408 1003 342 980 b 219 761 244 887 219 830 b 307 615 219 696 249 648 b 171 539 250 600 204 575 b 121 406 138 503 121 458 b 167 284 121 356 136 315 b 326 194 197 253 250 223 b 438 131 379 175 416 154 b 471 40 460 107 471 77 b 415 -81 471 -12 452 -53 b 274 -122 378 -108 331 -122 b 169 -94 238 -122 203 -113 b 93 -15 136 -76 111 -50 l 28 -62 b 128 -155 51 -100 84 -131 b 272 -190 171 -178 219 -190 b 472 -126 354 -190 420 -169 b 550 50 524 -83 550 -24 b 471 196 549 111 523 160 z m 410 239 l 333 269 b 233 328 288 287 254 306 b 200 417 211 349 200 379 b 254 526 200 462 218 499 b 371 574 290 554 329 570 l 446 542 b 537 483 485 525 515 505 b 569 393 559 460 569 430 b 520 289 569 351 553 317 b 410 239 487 261 450 244 z "},"š":{"ha":599,"x_min":0,"x_max":0,"o":"m 8 90 b 249 -17 65 19 145 -17 b 421 35 315 -17 373 1 b 493 182 469 70 493 119 b 448 293 493 228 478 265 b 304 365 418 321 370 345 b 202 410 256 380 222 395 b 172 481 182 425 172 448 b 219 569 172 519 188 548 b 333 601 251 591 289 601 b 493 526 405 601 458 576 l 549 567 b 467 637 532 595 505 619 b 339 664 429 655 386 664 b 172 615 275 664 219 648 b 100 475 124 583 100 536 b 144 370 100 430 115 395 b 274 306 173 346 216 324 b 384 252 325 289 361 271 b 418 174 407 233 418 207 b 370 81 418 134 402 103 b 251 47 338 58 299 47 b 64 136 173 47 110 77 z m 410 783 l 594 983 l 518 983 l 368 824 l 278 983 l 208 983 l 319 783 z "},"©":{"ha":1111,"x_min":0,"x_max":0,"o":"m 28 490 b 183 122 28 346 79 223 b 557 -31 286 20 411 -31 b 929 122 702 -31 826 20 b 1083 490 1032 223 1083 346 b 929 861 1083 636 1032 759 b 557 1014 826 963 702 1014 b 183 861 411 1014 286 963 b 28 490 79 759 28 636 z m 96 490 b 231 815 96 617 141 725 b 557 950 322 905 430 950 b 881 815 684 950 792 905 b 1015 490 971 725 1015 617 b 881 167 1015 364 971 257 b 557 33 792 78 684 33 b 231 167 430 33 322 78 b 96 490 141 257 96 364 z m 788 707 b 694 781 764 738 733 763 b 572 808 656 799 615 808 b 351 719 483 808 409 779 b 263 496 292 660 263 586 b 351 271 263 405 292 330 b 572 182 409 212 483 182 b 701 213 619 182 663 192 b 796 293 740 233 772 260 l 739 332 b 572 249 696 276 641 249 b 403 321 502 249 445 273 b 339 496 360 369 339 427 b 404 669 339 563 361 621 b 574 742 448 718 504 742 b 662 719 604 742 634 734 b 729 663 690 703 713 685 z "},"ª":{"ha":486,"x_min":0,"x_max":0,"o":"m 449 688 l 478 844 b 482 886 481 867 482 881 b 442 972 482 924 469 953 b 340 1001 415 992 381 1001 b 188 946 282 1001 231 983 l 213 906 b 332 951 250 936 289 951 b 424 876 393 951 424 926 b 419 840 424 863 422 851 b 310 835 378 840 341 839 b 216 816 278 832 247 826 b 144 772 185 806 161 791 b 119 696 128 752 119 726 b 160 615 119 660 133 633 b 249 589 187 598 216 589 b 397 672 313 589 362 617 l 399 672 b 392 600 394 646 392 622 l 440 600 b 449 688 440 618 443 647 z m 407 765 b 360 674 400 729 385 699 b 265 638 335 650 303 638 b 182 701 210 638 182 659 b 396 796 182 764 253 796 l 413 796 z "},"«":{"ha":683,"x_min":0,"x_max":0,"o":"m 79 333 l 219 47 l 275 83 l 158 328 l 363 578 l 317 618 z m 325 333 l 464 47 l 521 83 l 404 328 l 608 578 l 563 618 z "},"¬":{"ha":925,"x_min":0,"x_max":0,"o":"m 811 182 l 811 563 l 115 563 l 115 497 l 743 497 l 743 182 z "},"­":{"ha":436,"x_min":0,"x_max":0,"o":"m 350 310 l 361 374 l 68 374 l 57 310 z "},"®":{"ha":833,"x_min":0,"x_max":0,"o":"m 617 510 l 518 667 b 579 698 543 671 563 682 b 603 761 595 714 603 735 b 567 839 603 796 591 822 b 476 864 544 856 513 864 l 354 864 l 354 510 l 407 510 l 407 660 l 463 660 l 551 510 z m 550 763 b 464 703 550 723 521 703 l 407 703 l 407 818 l 475 818 b 550 763 525 818 550 800 z m 156 685 b 248 463 156 598 186 524 b 472 372 309 403 384 372 b 697 463 560 372 635 403 b 789 685 758 524 789 598 b 697 908 789 772 758 846 b 472 1000 635 969 560 1000 b 248 908 384 1000 309 969 b 156 685 186 846 156 772 z m 200 685 b 280 877 200 760 227 824 b 472 957 333 930 397 957 b 665 877 547 957 611 930 b 744 685 718 824 744 760 b 665 493 744 611 718 547 b 472 413 611 439 547 413 b 280 493 397 413 333 439 b 200 685 227 547 200 611 z "},"¯":{"ha":333,"x_min":0,"x_max":0,"o":"m 425 842 l 436 903 l 76 903 l 67 842 z "},"°":{"ha":556,"x_min":0,"x_max":0,"o":"m 556 793 b 497 940 556 851 536 900 b 351 999 458 979 410 999 b 204 940 292 999 243 979 b 146 793 165 900 146 851 b 204 647 146 735 165 686 b 351 588 243 607 292 588 b 497 647 410 588 458 607 b 556 793 536 686 556 735 z m 501 793 b 458 687 501 751 487 716 b 351 643 428 658 393 643 b 245 687 310 643 274 658 b 201 793 216 716 201 751 b 245 899 201 835 216 870 b 351 943 274 928 310 943 b 458 899 393 943 428 928 b 501 793 487 870 501 835 z "},"±":{"ha":925,"x_min":0,"x_max":0,"o":"m 811 481 l 811 547 l 494 547 l 494 781 l 428 781 l 428 547 l 115 547 l 115 481 l 428 481 l 428 253 l 496 253 l 496 481 z m 808 67 l 808 133 l 117 133 l 117 67 z "},"²":{"ha":506,"x_min":0,"x_max":0,"o":"m 158 689 l 368 869 b 478 979 421 915 457 951 b 508 1078 498 1007 508 1040 b 467 1184 508 1122 494 1158 b 346 1224 439 1210 399 1224 b 231 1187 303 1224 265 1211 b 154 1083 196 1162 171 1128 l 215 1067 b 342 1165 241 1132 283 1165 b 417 1142 373 1165 398 1157 b 444 1074 435 1126 444 1103 b 339 917 444 1030 409 978 l 82 694 l 71 628 l 449 628 l 461 689 z "},"³":{"ha":506,"x_min":0,"x_max":0,"o":"m 261 617 b 405 666 319 617 367 633 b 461 801 442 699 461 744 b 433 887 461 835 452 863 b 358 932 414 910 389 925 l 360 933 b 451 982 396 941 426 957 b 489 1082 476 1007 489 1040 b 447 1187 489 1126 475 1161 b 336 1225 418 1212 381 1225 b 164 1133 262 1225 205 1194 l 215 1100 b 328 1167 243 1144 281 1167 b 396 1143 356 1167 378 1159 b 422 1078 413 1127 422 1106 b 383 992 422 1042 409 1013 b 271 961 356 972 319 961 l 243 961 l 233 906 l 258 906 b 356 879 298 906 331 897 b 394 796 382 862 394 834 b 358 709 394 760 382 731 b 261 676 334 687 302 676 b 143 756 201 676 162 703 l 78 736 b 145 649 91 699 113 670 b 261 617 177 627 216 617 z "},"Ž":{"ha":804,"x_min":0,"x_max":0,"o":"m 686 0 l 699 69 l 93 69 l 839 913 l 851 983 l 178 983 l 165 914 l 740 914 l -6 69 l -18 0 z m 557 1061 l 742 1261 l 665 1261 l 515 1101 l 425 1261 l 356 1261 l 467 1061 z "},"µ":{"ha":772,"x_min":0,"x_max":0,"o":"m 110 647 l 110 -317 l 182 -317 l 182 46 b 350 -18 222 3 278 -18 b 483 22 396 -18 441 -5 b 578 124 526 49 557 83 l 581 124 l 581 0 l 660 0 b 654 149 656 59 654 109 l 654 647 l 581 647 l 581 318 b 520 121 581 235 560 169 b 367 49 480 73 429 49 b 224 107 299 49 251 68 b 182 281 196 146 182 204 l 182 647 z "},"¶":{"ha":833,"x_min":0,"x_max":0,"o":"m 594 -175 l 799 983 l 489 983 b 224 891 381 983 292 953 b 121 661 155 829 121 753 b 190 509 121 600 144 549 b 372 449 235 469 296 449 l 263 -175 l 336 -175 l 529 924 l 714 924 l 521 -175 z "},"·":{"ha":353,"x_min":0,"x_max":0,"o":"m 179 349 b 224 368 197 349 212 355 b 243 414 237 381 243 396 b 226 458 243 432 237 447 b 183 475 214 469 200 475 b 138 456 166 475 151 469 b 119 408 126 443 119 427 b 136 365 119 390 125 375 b 179 349 147 354 162 349 z "},"ž":{"ha":608,"x_min":0,"x_max":0,"o":"m 490 0 l 501 65 l 89 65 l 579 590 l 590 647 l 114 647 l 103 583 l 479 583 l -11 56 l -21 0 z m 410 783 l 594 983 l 518 983 l 368 824 l 278 983 l 208 983 l 319 783 z "},"¹":{"ha":506,"x_min":0,"x_max":0,"o":"m 306 628 l 410 1213 l 351 1213 l 176 1094 l 210 1047 l 326 1129 l 238 628 z "},"º":{"ha":486,"x_min":0,"x_max":0,"o":"m 456 825 b 408 694 456 774 440 730 b 288 639 377 657 337 639 b 197 674 249 639 218 651 b 164 764 175 698 164 728 b 210 896 164 816 179 860 b 331 950 241 932 281 950 b 422 915 369 950 400 938 b 456 825 444 891 456 861 z m 100 760 b 150 636 100 709 117 668 b 283 589 183 605 228 589 b 452 660 352 589 408 613 b 518 831 496 707 518 764 b 467 953 518 881 501 921 b 333 1000 434 984 389 1000 b 166 929 266 1000 210 976 b 100 760 122 882 100 825 z "},"»":{"ha":683,"x_min":0,"x_max":0,"o":"m 585 333 l 444 618 l 389 582 l 506 339 l 301 89 l 347 49 z m 339 333 l 199 618 l 143 582 l 260 339 l 56 89 l 101 49 z "},"Œ":{"ha":1343,"x_min":0,"x_max":0,"o":"m 556 0 l 1221 0 l 1233 69 l 733 69 l 806 478 l 1246 478 l 1258 544 l 817 544 l 882 914 l 1344 914 l 1357 983 l 706 983 b 267 829 528 983 381 932 b 94 410 152 726 94 587 b 133 226 94 341 107 280 b 238 97 159 173 194 130 b 384 24 281 65 330 41 b 556 0 438 8 495 0 z m 574 69 b 281 165 448 69 350 101 b 176 418 211 229 176 313 b 319 774 176 563 224 681 b 700 914 415 867 542 914 l 804 914 l 654 69 z "},"œ":{"ha":1372,"x_min":0,"x_max":0,"o":"m 660 378 b 575 144 660 287 631 209 b 360 46 519 78 447 46 b 195 109 289 46 234 67 b 136 269 156 151 136 205 b 221 503 136 360 164 438 b 433 601 277 569 348 601 b 599 538 504 601 559 580 b 660 378 640 496 660 443 z m 950 46 b 788 108 883 46 829 67 b 725 272 746 150 725 205 b 728 308 725 278 726 290 l 1275 308 b 1288 411 1283 338 1288 372 b 1219 594 1288 487 1265 548 b 1022 664 1173 641 1107 664 b 840 613 956 664 896 647 b 714 481 785 579 743 535 b 613 613 695 535 662 579 b 439 664 565 647 506 664 b 165 547 328 664 237 625 b 58 265 94 469 58 375 b 140 61 58 182 85 114 b 356 -18 194 8 266 -18 b 674 165 498 -18 604 43 b 769 33 691 111 723 66 b 944 -18 816 -1 874 -18 b 1226 117 1059 -18 1153 27 l 1181 161 b 950 46 1120 84 1044 46 z m 1210 364 l 738 364 b 835 531 752 429 785 484 b 1021 601 886 578 948 601 b 1163 551 1081 601 1128 584 b 1214 415 1197 517 1214 472 b 1210 364 1214 398 1213 381 z "},"Ÿ":{"ha":756,"x_min":0,"x_max":0,"o":"m 878 983 l 781 983 l 378 492 l 178 983 l 86 983 l 329 425 l 253 0 l 332 0 l 407 425 z m 374 1124 b 414 1142 389 1124 403 1130 b 431 1185 425 1154 431 1168 b 416 1225 431 1201 426 1215 b 378 1240 406 1235 394 1240 b 336 1222 362 1240 348 1234 b 318 1179 324 1210 318 1196 b 335 1139 318 1163 324 1149 b 374 1124 346 1129 359 1124 z m 628 1124 b 669 1142 644 1124 657 1130 b 686 1185 680 1154 686 1168 b 671 1225 686 1201 681 1215 b 632 1240 661 1235 648 1240 b 591 1223 616 1240 603 1234 b 574 1179 579 1211 574 1197 b 589 1139 574 1163 579 1149 b 628 1124 599 1129 612 1124 z "},"¿":{"ha":665,"x_min":0,"x_max":0,"o":"m 286 342 b 243 230 278 294 263 257 b 138 136 223 203 188 171 b 16 21 86 98 45 60 b -28 -115 -13 -18 -28 -63 b 38 -278 -28 -187 -6 -241 b 207 -333 81 -315 138 -333 b 392 -272 277 -333 339 -313 b 500 -107 444 -231 481 -176 l 428 -93 b 349 -216 414 -143 388 -184 b 210 -264 311 -248 264 -264 b 96 -224 163 -264 125 -250 b 51 -114 66 -197 51 -160 b 78 -12 50 -72 59 -38 b 168 76 97 15 127 44 l 215 114 b 313 210 258 148 291 180 b 357 318 336 239 350 275 l 371 399 l 296 399 z m 354 678 b 310 658 337 678 322 671 b 292 613 298 645 292 630 b 308 568 292 594 297 579 b 351 551 319 557 334 551 b 396 571 368 551 383 558 b 415 617 409 584 415 599 b 398 661 415 635 409 650 b 354 678 386 672 372 678 z "},"À":{"ha":939,"x_min":0,"x_max":0,"o":"m 844 0 l 649 983 l 567 983 l -67 0 l 26 0 l 193 265 l 711 265 l 763 0 z m 699 338 l 238 338 l 592 899 z m 411 1261 l 586 1061 l 650 1061 l 508 1261 z "},"Á":{"ha":939,"x_min":0,"x_max":0,"o":"m 844 0 l 649 983 l 567 983 l -67 0 l 26 0 l 193 265 l 711 265 l 763 0 z m 699 338 l 238 338 l 592 899 z m 842 1261 l 744 1261 l 569 1061 l 632 1061 z "},"Â":{"ha":939,"x_min":0,"x_max":0,"o":"m 844 0 l 649 983 l 567 983 l -67 0 l 26 0 l 193 265 l 711 265 l 763 0 z m 699 338 l 238 338 l 592 899 z m 610 1261 l 424 1061 l 501 1061 l 650 1221 l 742 1061 l 811 1061 l 700 1261 z "},"Ã":{"ha":939,"x_min":0,"x_max":0,"o":"m 844 0 l 649 983 l 567 983 l -67 0 l 26 0 l 193 265 l 711 265 l 763 0 z m 699 338 l 238 338 l 592 899 z m 646 1182 b 554 1215 608 1204 577 1215 b 418 1085 492 1215 447 1172 l 467 1085 b 543 1154 484 1131 510 1154 b 628 1122 559 1154 587 1143 b 719 1089 669 1100 699 1089 b 856 1218 781 1089 826 1132 l 807 1218 b 731 1150 788 1173 763 1150 b 646 1182 712 1150 684 1161 z "},"Ä":{"ha":939,"x_min":0,"x_max":0,"o":"m 844 0 l 649 983 l 567 983 l -67 0 l 26 0 l 193 265 l 711 265 l 763 0 z m 699 338 l 238 338 l 592 899 z m 511 1124 b 551 1142 527 1124 540 1130 b 568 1185 563 1154 568 1168 b 553 1225 568 1201 563 1215 b 515 1240 544 1235 531 1240 b 474 1222 500 1240 486 1234 b 456 1179 462 1210 456 1196 b 472 1139 456 1163 461 1149 b 511 1124 483 1129 496 1124 z m 765 1124 b 806 1142 781 1124 795 1130 b 824 1185 818 1154 824 1168 b 808 1225 824 1201 819 1215 b 769 1240 798 1235 785 1240 b 728 1223 754 1240 740 1234 b 711 1179 717 1211 711 1197 b 726 1139 711 1163 716 1149 b 765 1124 737 1129 750 1124 z "},"Å":{"ha":939,"x_min":0,"x_max":0,"o":"m 844 0 l 649 983 l 567 983 l -67 0 l 26 0 l 193 265 l 711 265 l 763 0 z m 699 338 l 238 338 l 592 899 z m 732 1201 b 702 1118 732 1169 722 1141 b 628 1083 682 1095 657 1083 b 571 1106 604 1083 585 1091 b 550 1161 557 1120 550 1139 b 579 1244 550 1194 560 1221 b 654 1279 599 1268 624 1279 b 711 1257 678 1279 697 1272 b 732 1201 725 1242 732 1224 z m 508 1158 b 540 1078 508 1126 519 1099 b 625 1047 562 1058 590 1047 b 731 1093 668 1047 703 1063 b 774 1203 759 1124 774 1160 b 742 1283 774 1236 763 1263 b 656 1314 720 1304 692 1314 b 550 1268 613 1314 578 1299 b 508 1158 522 1238 508 1201 z "},"Æ":{"ha":1353,"x_min":0,"x_max":0,"o":"m 1354 983 l 763 983 l -50 0 l 47 0 l 278 281 l 689 281 l 640 0 l 1218 0 l 1231 69 l 729 69 l 801 478 l 1243 478 l 1256 544 l 814 544 l 879 914 l 1342 914 z m 701 349 l 331 349 l 794 914 l 801 914 z "},"Ç":{"ha":1001,"x_min":0,"x_max":0,"o":"m 476 -318 b 593 -287 521 -318 560 -308 b 643 -192 626 -266 643 -234 b 611 -123 643 -160 632 -137 b 538 -101 590 -109 565 -101 b 486 -108 518 -101 501 -104 l 554 -25 b 907 136 698 -19 815 34 l 856 183 b 538 43 771 90 665 43 b 271 146 423 43 334 77 b 176 407 208 214 176 301 b 320 779 176 548 224 672 b 675 940 416 887 534 940 b 832 904 734 940 787 928 b 932 813 877 880 911 850 l 999 861 b 869 970 970 907 927 944 b 678 1010 811 997 747 1010 b 264 830 515 1010 377 950 b 94 399 151 710 94 566 b 204 101 94 277 131 178 b 504 -25 277 23 377 -19 l 413 -137 l 431 -156 b 504 -142 454 -146 478 -142 b 557 -156 525 -142 543 -146 b 578 -197 571 -165 578 -179 b 548 -251 578 -220 568 -238 b 472 -269 528 -263 503 -269 b 365 -247 430 -269 394 -262 l 344 -290 b 476 -318 381 -309 425 -318 z "},"È":{"ha":804,"x_min":0,"x_max":0,"o":"m 681 0 l 693 69 l 157 69 l 229 478 l 707 478 l 718 544 l 240 544 l 306 914 l 804 914 l 817 983 l 240 983 l 67 0 z m 372 1261 l 547 1061 l 611 1061 l 469 1261 z "},"É":{"ha":804,"x_min":0,"x_max":0,"o":"m 681 0 l 693 69 l 157 69 l 229 478 l 707 478 l 718 544 l 240 544 l 306 914 l 804 914 l 817 983 l 240 983 l 67 0 z m 764 1261 l 667 1261 l 492 1061 l 554 1061 z "},"Ê":{"ha":804,"x_min":0,"x_max":0,"o":"m 681 0 l 693 69 l 157 69 l 229 478 l 707 478 l 718 544 l 240 544 l 306 914 l 804 914 l 817 983 l 240 983 l 67 0 z m 533 1261 l 347 1061 l 425 1061 l 574 1221 l 665 1061 l 735 1061 l 624 1261 z "},"Ë":{"ha":804,"x_min":0,"x_max":0,"o":"m 681 0 l 693 69 l 157 69 l 229 478 l 707 478 l 718 544 l 240 544 l 306 914 l 804 914 l 817 983 l 240 983 l 67 0 z m 431 1124 b 471 1142 446 1124 460 1130 b 488 1185 482 1154 488 1168 b 473 1225 488 1201 483 1215 b 435 1240 463 1235 450 1240 b 393 1222 419 1240 405 1234 b 375 1179 381 1210 375 1196 b 392 1139 375 1163 381 1149 b 431 1124 403 1129 416 1124 z m 685 1124 b 726 1142 700 1124 714 1130 b 743 1185 737 1154 743 1168 b 728 1225 743 1201 738 1215 b 689 1240 718 1235 705 1240 b 648 1223 673 1240 659 1234 b 631 1179 636 1211 631 1197 b 646 1139 631 1163 636 1149 b 685 1124 656 1129 669 1124 z "},"Ì":{"ha":350,"x_min":0,"x_max":0,"o":"m 144 0 l 318 983 l 240 983 l 67 0 z m 85 1261 l 260 1061 l 324 1061 l 182 1261 z "},"Í":{"ha":350,"x_min":0,"x_max":0,"o":"m 144 0 l 318 983 l 240 983 l 67 0 z m 522 1261 l 425 1261 l 250 1061 l 313 1061 z "},"Î":{"ha":350,"x_min":0,"x_max":0,"o":"m 144 0 l 318 983 l 240 983 l 67 0 z m 282 1261 l 96 1061 l 174 1061 l 322 1221 l 414 1061 l 483 1061 l 372 1261 z "},"Ï":{"ha":350,"x_min":0,"x_max":0,"o":"m 144 0 l 318 983 l 240 983 l 67 0 z m 179 1124 b 219 1142 195 1124 208 1130 b 236 1185 231 1154 236 1168 b 222 1225 236 1201 231 1215 b 183 1240 212 1235 199 1240 b 142 1222 168 1240 154 1234 b 124 1179 130 1210 124 1196 b 140 1139 124 1163 129 1149 b 179 1124 151 1129 164 1124 z m 433 1124 b 474 1142 449 1124 463 1130 b 492 1185 486 1154 492 1168 b 476 1225 492 1201 487 1215 b 438 1240 466 1235 453 1240 b 397 1223 422 1240 408 1234 b 379 1179 385 1211 379 1197 b 394 1139 379 1163 384 1149 b 433 1124 405 1129 418 1124 z "},"Ð":{"ha":1058,"x_min":0,"x_max":0,"o":"m 151 486 l 67 0 l 376 0 b 815 154 554 0 700 51 b 988 574 930 257 988 397 b 949 757 988 642 975 703 b 844 886 923 811 888 854 b 697 959 800 919 751 943 b 525 983 644 975 586 983 l 240 983 l 164 547 l 63 547 l 51 486 z m 242 547 l 307 914 l 508 914 b 801 818 634 914 732 882 b 904 565 870 754 904 670 b 761 209 904 421 856 302 b 381 69 666 116 539 69 l 157 69 l 231 486 l 586 486 l 597 547 z "},"Ñ":{"ha":1042,"x_min":0,"x_max":0,"o":"m 836 0 l 1010 983 l 931 983 l 776 110 l 774 110 l 340 983 l 240 983 l 67 0 l 146 0 l 300 882 l 304 882 l 736 0 z m 657 1182 b 565 1215 619 1204 588 1215 b 429 1085 503 1215 458 1172 l 478 1085 b 554 1154 495 1131 521 1154 b 639 1122 570 1154 598 1143 b 731 1089 680 1100 710 1089 b 867 1218 792 1089 837 1132 l 818 1218 b 742 1150 800 1173 774 1150 b 657 1182 723 1150 695 1161 z "},"Ò":{"ha":1174,"x_min":0,"x_max":0,"o":"m 1019 576 b 960 316 1019 484 1000 397 b 788 119 920 235 863 169 b 536 43 713 68 629 43 b 271 146 422 43 334 77 b 176 407 208 214 176 301 b 313 780 176 549 222 673 b 661 940 404 887 520 940 b 926 838 775 940 863 906 b 1019 576 988 769 1019 682 z m 94 401 b 214 92 94 274 134 170 b 533 -26 294 13 400 -26 b 827 57 642 -26 740 1 b 1031 279 915 112 982 187 b 1103 583 1079 372 1103 473 b 983 892 1103 710 1063 813 b 664 1010 904 970 797 1010 b 258 832 502 1010 366 950 b 94 401 149 713 94 570 z m 514 1261 l 689 1061 l 753 1061 l 611 1261 z "},"Ó":{"ha":1174,"x_min":0,"x_max":0,"o":"m 1019 576 b 960 316 1019 484 1000 397 b 788 119 920 235 863 169 b 536 43 713 68 629 43 b 271 146 422 43 334 77 b 176 407 208 214 176 301 b 313 780 176 549 222 673 b 661 940 404 887 520 940 b 926 838 775 940 863 906 b 1019 576 988 769 1019 682 z m 94 401 b 214 92 94 274 134 170 b 533 -26 294 13 400 -26 b 827 57 642 -26 740 1 b 1031 279 915 112 982 187 b 1103 583 1079 372 1103 473 b 983 892 1103 710 1063 813 b 664 1010 904 970 797 1010 b 258 832 502 1010 366 950 b 94 401 149 713 94 570 z m 903 1261 l 806 1261 l 631 1061 l 693 1061 z "},"Ô":{"ha":1174,"x_min":0,"x_max":0,"o":"m 1019 576 b 960 316 1019 484 1000 397 b 788 119 920 235 863 169 b 536 43 713 68 629 43 b 271 146 422 43 334 77 b 176 407 208 214 176 301 b 313 780 176 549 222 673 b 661 940 404 887 520 940 b 926 838 775 940 863 906 b 1019 576 988 769 1019 682 z m 94 401 b 214 92 94 274 134 170 b 533 -26 294 13 400 -26 b 827 57 642 -26 740 1 b 1031 279 915 112 982 187 b 1103 583 1079 372 1103 473 b 983 892 1103 710 1063 813 b 664 1010 904 970 797 1010 b 258 832 502 1010 366 950 b 94 401 149 713 94 570 z m 693 1261 l 507 1061 l 585 1061 l 733 1221 l 825 1061 l 894 1061 l 783 1261 z "},"Õ":{"ha":1174,"x_min":0,"x_max":0,"o":"m 1019 576 b 960 316 1019 484 1000 397 b 788 119 920 235 863 169 b 536 43 713 68 629 43 b 271 146 422 43 334 77 b 176 407 208 214 176 301 b 313 780 176 549 222 673 b 661 940 404 887 520 940 b 926 838 775 940 863 906 b 1019 576 988 769 1019 682 z m 94 401 b 214 92 94 274 134 170 b 533 -26 294 13 400 -26 b 827 57 642 -26 740 1 b 1031 279 915 112 982 187 b 1103 583 1079 372 1103 473 b 983 892 1103 710 1063 813 b 664 1010 904 970 797 1010 b 258 832 502 1010 366 950 b 94 401 149 713 94 570 z m 721 1182 b 629 1215 683 1204 652 1215 b 493 1085 567 1215 522 1172 l 542 1085 b 618 1154 559 1131 585 1154 b 703 1122 634 1154 662 1143 b 794 1089 744 1100 774 1089 b 931 1218 856 1089 901 1132 l 882 1218 b 806 1150 863 1173 838 1150 b 721 1182 787 1150 759 1161 z "},"Ö":{"ha":1174,"x_min":0,"x_max":0,"o":"m 1019 576 b 960 316 1019 484 1000 397 b 788 119 920 235 863 169 b 536 43 713 68 629 43 b 271 146 422 43 334 77 b 176 407 208 214 176 301 b 313 780 176 549 222 673 b 661 940 404 887 520 940 b 926 838 775 940 863 906 b 1019 576 988 769 1019 682 z m 94 401 b 214 92 94 274 134 170 b 533 -26 294 13 400 -26 b 827 57 642 -26 740 1 b 1031 279 915 112 982 187 b 1103 583 1079 372 1103 473 b 983 892 1103 710 1063 813 b 664 1010 904 970 797 1010 b 258 832 502 1010 366 950 b 94 401 149 713 94 570 z m 588 1124 b 628 1142 603 1124 617 1130 b 644 1185 639 1154 644 1168 b 630 1225 644 1201 640 1215 b 592 1240 620 1235 607 1240 b 550 1222 576 1240 562 1234 b 532 1179 538 1210 532 1196 b 549 1139 532 1163 538 1149 b 588 1124 560 1129 573 1124 z m 842 1124 b 883 1142 857 1124 871 1130 b 900 1185 894 1154 900 1168 b 885 1225 900 1201 895 1215 b 846 1240 875 1235 862 1240 b 805 1223 830 1240 816 1234 b 788 1179 793 1211 788 1197 b 803 1139 788 1163 793 1149 b 842 1124 813 1129 826 1124 z "},"×":{"ha":925,"x_min":0,"x_max":0,"o":"m 510 422 l 739 653 l 692 700 l 463 471 l 233 700 l 188 653 l 417 422 l 188 193 l 233 146 l 463 375 l 692 146 l 739 193 z "},"Ø":{"ha":1174,"x_min":0,"x_max":0,"o":"m 536 43 b 268 149 422 43 333 78 l 963 800 b 1026 576 1005 738 1026 663 b 886 203 1026 434 980 309 b 536 43 793 96 676 43 z m 238 188 b 176 407 197 250 176 324 b 238 665 176 499 197 585 b 413 863 278 746 337 812 b 668 940 490 915 575 940 b 929 840 778 940 865 907 z m 86 -22 l 210 96 b 533 -26 291 14 399 -26 b 944 153 697 -26 834 33 b 1110 583 1055 272 1110 416 b 1022 854 1110 693 1081 783 l 1143 968 l 1108 1007 l 988 893 b 671 1010 907 971 801 1010 b 260 831 508 1010 371 950 b 94 401 150 712 94 569 b 176 133 94 298 122 208 l 53 17 z "},"Ù":{"ha":989,"x_min":0,"x_max":0,"o":"m 965 983 l 888 983 l 781 378 b 747 254 772 331 761 290 b 690 149 733 218 714 183 b 591 71 665 116 632 89 b 446 43 550 52 501 43 b 257 106 362 43 299 64 b 194 283 215 147 194 206 b 204 379 194 308 198 340 l 310 983 l 232 983 l 128 386 b 118 281 121 351 118 316 b 202 53 118 182 146 107 b 442 -26 258 0 338 -26 b 622 8 510 -26 570 -15 b 746 104 674 31 715 63 b 817 228 776 145 800 186 b 857 368 834 271 848 317 z m 422 1261 l 597 1061 l 661 1061 l 519 1261 z "},"Ú":{"ha":989,"x_min":0,"x_max":0,"o":"m 965 983 l 888 983 l 781 378 b 747 254 772 331 761 290 b 690 149 733 218 714 183 b 591 71 665 116 632 89 b 446 43 550 52 501 43 b 257 106 362 43 299 64 b 194 283 215 147 194 206 b 204 379 194 308 198 340 l 310 983 l 232 983 l 128 386 b 118 281 121 351 118 316 b 202 53 118 182 146 107 b 442 -26 258 0 338 -26 b 622 8 510 -26 570 -15 b 746 104 674 31 715 63 b 817 228 776 145 800 186 b 857 368 834 271 848 317 z m 815 1261 l 718 1261 l 543 1061 l 606 1061 z "},"Û":{"ha":989,"x_min":0,"x_max":0,"o":"m 965 983 l 888 983 l 781 378 b 747 254 772 331 761 290 b 690 149 733 218 714 183 b 591 71 665 116 632 89 b 446 43 550 52 501 43 b 257 106 362 43 299 64 b 194 283 215 147 194 206 b 204 379 194 308 198 340 l 310 983 l 232 983 l 128 386 b 118 281 121 351 118 316 b 202 53 118 182 146 107 b 442 -26 258 0 338 -26 b 622 8 510 -26 570 -15 b 746 104 674 31 715 63 b 817 228 776 145 800 186 b 857 368 834 271 848 317 z m 603 1261 l 417 1061 l 494 1061 l 643 1221 l 735 1061 l 804 1061 l 693 1261 z "},"Ü":{"ha":989,"x_min":0,"x_max":0,"o":"m 965 983 l 888 983 l 781 378 b 747 254 772 331 761 290 b 690 149 733 218 714 183 b 591 71 665 116 632 89 b 446 43 550 52 501 43 b 257 106 362 43 299 64 b 194 283 215 147 194 206 b 204 379 194 308 198 340 l 310 983 l 232 983 l 128 386 b 118 281 121 351 118 316 b 202 53 118 182 146 107 b 442 -26 258 0 338 -26 b 622 8 510 -26 570 -15 b 746 104 674 31 715 63 b 817 228 776 145 800 186 b 857 368 834 271 848 317 z m 499 1124 b 539 1142 514 1124 528 1130 b 556 1185 550 1154 556 1168 b 541 1225 556 1201 551 1215 b 503 1240 531 1235 519 1240 b 461 1222 487 1240 473 1234 b 443 1179 449 1210 443 1196 b 460 1139 443 1163 449 1149 b 499 1124 471 1129 484 1124 z m 753 1124 b 794 1142 769 1124 782 1130 b 811 1185 805 1154 811 1168 b 796 1225 811 1201 806 1215 b 757 1240 786 1235 773 1240 b 716 1223 741 1240 728 1234 b 699 1179 704 1211 699 1197 b 714 1139 699 1163 704 1149 b 753 1124 724 1129 737 1124 z "},"Ý":{"ha":756,"x_min":0,"x_max":0,"o":"m 878 983 l 781 983 l 378 492 l 178 983 l 86 983 l 329 425 l 253 0 l 332 0 l 407 425 z m 711 1261 l 614 1261 l 439 1061 l 501 1061 z "},"Þ":{"ha":797,"x_min":0,"x_max":0,"o":"m 390 249 b 656 325 503 249 592 274 b 753 536 721 376 753 446 b 674 708 753 611 726 668 b 461 767 621 747 550 767 l 282 767 l 319 983 l 240 983 l 67 0 l 146 0 l 190 249 z m 674 529 b 601 371 674 462 650 409 b 399 314 553 333 486 314 l 201 314 l 269 700 l 458 700 b 674 529 602 700 674 643 z "},"ß":{"ha":817,"x_min":0,"x_max":0,"o":"m 353 -15 b 627 83 467 -15 558 18 b 731 343 696 149 731 236 b 677 511 731 410 713 466 b 538 596 641 556 595 585 l 539 599 b 691 683 601 613 652 641 b 750 843 730 726 750 779 b 681 1006 750 911 727 965 b 501 1067 635 1046 575 1067 b 369 1040 451 1067 407 1058 b 276 965 330 1022 299 997 b 219 867 252 934 233 901 b 188 753 206 832 195 794 l 56 0 l 128 0 l 261 750 b 500 1000 291 917 370 1000 b 625 958 552 1000 594 986 b 672 835 656 929 672 888 b 601 683 672 770 649 719 b 431 628 554 646 497 628 l 417 628 l 404 561 l 419 561 b 590 499 492 561 549 540 b 653 339 632 457 653 404 b 566 123 653 244 624 172 b 353 49 508 73 437 49 b 285 54 333 49 311 50 l 274 -10 b 353 -15 292 -13 319 -15 z "},"à":{"ha":732,"x_min":0,"x_max":0,"o":"m 567 146 l 614 406 b 619 475 618 430 619 453 b 558 615 619 536 599 583 b 396 664 516 648 463 664 b 265 640 353 664 310 656 b 151 575 221 623 183 602 l 186 525 b 388 601 249 576 316 601 b 549 461 495 601 549 555 b 540 392 549 442 546 419 b 356 383 471 392 409 389 b 199 349 302 377 250 366 b 83 276 149 333 110 309 b 42 153 55 243 42 202 b 101 26 42 95 62 53 b 242 -14 141 0 188 -14 b 493 119 345 -14 429 31 l 496 119 b 485 0 488 78 485 38 l 551 0 b 567 146 551 36 556 85 z m 521 278 b 435 114 510 214 481 159 b 265 46 390 69 333 46 b 161 72 225 46 190 55 b 118 161 132 90 118 119 b 503 333 118 276 246 333 l 531 333 z m 246 983 l 421 783 l 485 783 l 343 983 z "},"á":{"ha":732,"x_min":0,"x_max":0,"o":"m 567 146 l 614 406 b 619 475 618 430 619 453 b 558 615 619 536 599 583 b 396 664 516 648 463 664 b 265 640 353 664 310 656 b 151 575 221 623 183 602 l 186 525 b 388 601 249 576 316 601 b 549 461 495 601 549 555 b 540 392 549 442 546 419 b 356 383 471 392 409 389 b 199 349 302 377 250 366 b 83 276 149 333 110 309 b 42 153 55 243 42 202 b 101 26 42 95 62 53 b 242 -14 141 0 188 -14 b 493 119 345 -14 429 31 l 496 119 b 485 0 488 78 485 38 l 551 0 b 567 146 551 36 556 85 z m 521 278 b 435 114 510 214 481 159 b 265 46 390 69 333 46 b 161 72 225 46 190 55 b 118 161 132 90 118 119 b 503 333 118 276 246 333 l 531 333 z m 640 983 l 543 983 l 368 783 l 431 783 z "},"â":{"ha":732,"x_min":0,"x_max":0,"o":"m 567 146 l 614 406 b 619 475 618 430 619 453 b 558 615 619 536 599 583 b 396 664 516 648 463 664 b 265 640 353 664 310 656 b 151 575 221 623 183 602 l 186 525 b 388 601 249 576 316 601 b 549 461 495 601 549 555 b 540 392 549 442 546 419 b 356 383 471 392 409 389 b 199 349 302 377 250 366 b 83 276 149 333 110 309 b 42 153 55 243 42 202 b 101 26 42 95 62 53 b 242 -14 141 0 188 -14 b 493 119 345 -14 429 31 l 496 119 b 485 0 488 78 485 38 l 551 0 b 567 146 551 36 556 85 z m 521 278 b 435 114 510 214 481 159 b 265 46 390 69 333 46 b 161 72 225 46 190 55 b 118 161 132 90 118 119 b 503 333 118 276 246 333 l 531 333 z m 428 983 l 242 783 l 319 783 l 468 943 l 560 783 l 629 783 l 518 983 z "},"ã":{"ha":732,"x_min":0,"x_max":0,"o":"m 567 146 l 614 406 b 619 475 618 430 619 453 b 558 615 619 536 599 583 b 396 664 516 648 463 664 b 265 640 353 664 310 656 b 151 575 221 623 183 602 l 186 525 b 388 601 249 576 316 601 b 549 461 495 601 549 555 b 540 392 549 442 546 419 b 356 383 471 392 409 389 b 199 349 302 377 250 366 b 83 276 149 333 110 309 b 42 153 55 243 42 202 b 101 26 42 95 62 53 b 242 -14 141 0 188 -14 b 493 119 345 -14 429 31 l 496 119 b 485 0 488 78 485 38 l 551 0 b 567 146 551 36 556 85 z m 521 278 b 435 114 510 214 481 159 b 265 46 390 69 333 46 b 161 72 225 46 190 55 b 118 161 132 90 118 119 b 503 333 118 276 246 333 l 531 333 z m 454 904 b 363 938 416 926 386 938 b 226 807 300 938 255 894 l 275 807 b 351 876 293 853 318 876 b 436 844 367 876 395 866 b 528 811 477 822 507 811 b 664 940 589 811 634 854 l 615 940 b 539 872 597 895 571 872 b 454 904 520 872 492 883 z "},"ä":{"ha":732,"x_min":0,"x_max":0,"o":"m 567 146 l 614 406 b 619 475 618 430 619 453 b 558 615 619 536 599 583 b 396 664 516 648 463 664 b 265 640 353 664 310 656 b 151 575 221 623 183 602 l 186 525 b 388 601 249 576 316 601 b 549 461 495 601 549 555 b 540 392 549 442 546 419 b 356 383 471 392 409 389 b 199 349 302 377 250 366 b 83 276 149 333 110 309 b 42 153 55 243 42 202 b 101 26 42 95 62 53 b 242 -14 141 0 188 -14 b 493 119 345 -14 429 31 l 496 119 b 485 0 488 78 485 38 l 551 0 b 567 146 551 36 556 85 z m 521 278 b 435 114 510 214 481 159 b 265 46 390 69 333 46 b 161 72 225 46 190 55 b 118 161 132 90 118 119 b 503 333 118 276 246 333 l 531 333 z m 321 846 b 361 864 337 846 350 852 b 378 907 372 876 378 890 b 363 947 378 924 373 937 b 325 963 353 957 341 963 b 283 944 309 963 295 956 b 265 901 271 932 265 918 b 282 861 265 885 271 871 b 321 846 293 851 306 846 z m 575 846 b 616 864 591 846 604 852 b 633 907 628 876 633 890 b 618 947 633 924 628 937 b 579 963 608 957 595 963 b 538 945 563 963 550 957 b 521 901 527 934 521 919 b 536 861 521 885 526 871 b 575 846 546 851 559 846 z "},"å":{"ha":732,"x_min":0,"x_max":0,"o":"m 567 146 l 614 406 b 619 475 618 430 619 453 b 558 615 619 536 599 583 b 396 664 516 648 463 664 b 265 640 353 664 310 656 b 151 575 221 623 183 602 l 186 525 b 388 601 249 576 316 601 b 549 461 495 601 549 555 b 540 392 549 442 546 419 b 356 383 471 392 409 389 b 199 349 302 377 250 366 b 83 276 149 333 110 309 b 42 153 55 243 42 202 b 101 26 42 95 62 53 b 242 -14 141 0 188 -14 b 493 119 345 -14 429 31 l 496 119 b 485 0 488 78 485 38 l 551 0 b 567 146 551 36 556 85 z m 521 278 b 435 114 510 214 481 159 b 265 46 390 69 333 46 b 161 72 225 46 190 55 b 118 161 132 90 118 119 b 503 333 118 276 246 333 l 531 333 z m 543 924 b 513 840 543 891 533 863 b 439 806 493 817 469 806 b 382 828 415 806 396 813 b 361 883 368 843 361 861 b 390 967 361 916 371 944 b 465 1001 410 990 435 1001 b 522 979 489 1001 508 994 b 543 924 536 964 543 946 z m 319 881 b 351 801 319 848 330 822 b 436 769 373 780 401 769 b 542 815 479 769 514 785 b 585 925 571 846 585 882 b 553 1006 585 958 574 985 b 467 1036 531 1026 503 1036 b 361 990 424 1036 389 1021 b 319 881 333 960 319 923 z "},"æ":{"ha":1225,"x_min":0,"x_max":0,"o":"m 803 46 b 649 108 738 46 687 67 b 592 272 611 150 592 205 b 594 308 592 278 593 290 l 1128 308 b 1139 411 1135 339 1139 373 b 1071 594 1139 487 1116 548 b 875 664 1025 641 960 664 b 723 624 822 664 772 650 b 611 521 674 597 637 563 b 537 628 600 568 575 604 b 394 664 498 652 451 664 b 265 640 352 664 309 656 b 151 575 222 623 184 602 l 186 525 b 388 601 249 576 316 601 b 549 461 495 601 549 555 b 535 365 549 442 544 410 b 388 361 479 365 430 364 b 255 344 345 358 301 353 b 142 308 209 335 172 323 b 70 246 113 294 89 273 b 42 151 51 219 42 188 b 105 26 42 94 63 52 b 256 -14 147 -1 197 -14 b 433 37 325 -14 384 3 b 544 171 482 71 519 115 b 632 35 557 115 587 70 b 797 -18 677 0 732 -18 b 1079 117 912 -18 1006 27 l 1033 161 b 803 46 973 84 896 46 z m 519 278 b 435 113 507 212 479 157 b 265 46 390 68 334 46 b 161 72 225 46 190 55 b 118 160 132 90 118 119 b 497 308 118 259 244 308 l 525 308 z m 1063 364 l 604 364 b 697 531 619 429 650 484 b 872 601 744 578 803 601 b 1015 551 933 601 981 584 b 1065 415 1048 517 1065 472 b 1063 364 1065 403 1064 386 z "},"ç":{"ha":681,"x_min":0,"x_max":0,"o":"m 285 -318 b 401 -287 329 -318 368 -308 b 451 -192 435 -266 451 -234 b 419 -123 451 -160 441 -137 b 346 -101 398 -109 374 -101 b 294 -108 326 -101 309 -104 l 368 -19 b 604 83 456 -16 535 19 l 560 129 b 363 44 503 73 438 44 b 199 107 293 44 239 65 b 140 268 160 149 140 202 b 228 503 140 359 169 437 b 446 601 286 569 359 601 b 611 521 519 601 574 575 l 668 560 b 447 664 626 629 553 664 b 172 547 335 664 243 625 b 64 261 100 468 64 373 b 131 67 64 182 86 118 b 318 -18 176 17 238 -12 l 221 -137 l 239 -156 b 313 -142 262 -146 287 -142 b 365 -156 334 -142 351 -146 b 386 -197 379 -165 386 -179 b 356 -251 386 -220 376 -238 b 281 -269 336 -263 311 -269 b 174 -247 238 -269 202 -262 l 153 -290 b 285 -318 190 -309 234 -318 z "},"è":{"ha":781,"x_min":0,"x_max":0,"o":"m 683 308 b 696 411 692 338 696 372 b 626 594 696 486 673 547 b 429 664 580 641 514 664 b 165 547 325 664 237 625 b 58 269 94 469 58 377 b 140 60 58 181 85 112 b 353 -18 194 8 265 -18 b 513 18 410 -18 464 -6 b 635 117 563 42 603 75 l 586 156 b 358 46 526 82 450 46 b 196 108 292 46 238 66 b 133 267 154 149 133 202 b 136 308 133 285 134 299 z m 618 364 l 146 364 b 242 531 160 428 192 483 b 428 601 293 578 355 601 b 570 551 489 601 536 584 b 621 415 604 517 621 472 b 618 364 621 403 620 386 z m 271 983 l 446 783 l 510 783 l 368 983 z "},"é":{"ha":781,"x_min":0,"x_max":0,"o":"m 683 308 b 696 411 692 338 696 372 b 626 594 696 486 673 547 b 429 664 580 641 514 664 b 165 547 325 664 237 625 b 58 269 94 469 58 377 b 140 60 58 181 85 112 b 353 -18 194 8 265 -18 b 513 18 410 -18 464 -6 b 635 117 563 42 603 75 l 586 156 b 358 46 526 82 450 46 b 196 108 292 46 238 66 b 133 267 154 149 133 202 b 136 308 133 285 134 299 z m 618 364 l 146 364 b 242 531 160 428 192 483 b 428 601 293 578 355 601 b 570 551 489 601 536 584 b 621 415 604 517 621 472 b 618 364 621 403 620 386 z m 657 983 l 560 983 l 385 783 l 447 783 z "},"ê":{"ha":781,"x_min":0,"x_max":0,"o":"m 683 308 b 696 411 692 338 696 372 b 626 594 696 486 673 547 b 429 664 580 641 514 664 b 165 547 325 664 237 625 b 58 269 94 469 58 377 b 140 60 58 181 85 112 b 353 -18 194 8 265 -18 b 513 18 410 -18 464 -6 b 635 117 563 42 603 75 l 586 156 b 358 46 526 82 450 46 b 196 108 292 46 238 66 b 133 267 154 149 133 202 b 136 308 133 285 134 299 z m 618 364 l 146 364 b 242 531 160 428 192 483 b 428 601 293 578 355 601 b 570 551 489 601 536 584 b 621 415 604 517 621 472 b 618 364 621 403 620 386 z m 464 983 l 278 783 l 356 783 l 504 943 l 596 783 l 665 783 l 554 983 z "},"ë":{"ha":781,"x_min":0,"x_max":0,"o":"m 683 308 b 696 411 692 338 696 372 b 626 594 696 486 673 547 b 429 664 580 641 514 664 b 165 547 325 664 237 625 b 58 269 94 469 58 377 b 140 60 58 181 85 112 b 353 -18 194 8 265 -18 b 513 18 410 -18 464 -6 b 635 117 563 42 603 75 l 586 156 b 358 46 526 82 450 46 b 196 108 292 46 238 66 b 133 267 154 149 133 202 b 136 308 133 285 134 299 z m 618 364 l 146 364 b 242 531 160 428 192 483 b 428 601 293 578 355 601 b 570 551 489 601 536 584 b 621 415 604 517 621 472 b 618 364 621 403 620 386 z m 356 846 b 396 864 371 846 385 852 b 413 907 407 876 413 890 b 398 947 413 924 408 937 b 360 963 388 957 375 963 b 318 944 344 963 330 956 b 300 901 306 932 300 918 b 317 861 300 885 306 871 b 356 846 328 851 341 846 z m 610 846 b 651 864 625 846 639 852 b 668 907 662 876 668 890 b 653 947 668 924 663 937 b 614 963 643 957 630 963 b 573 945 598 963 584 957 b 556 901 561 934 556 919 b 571 861 556 885 561 871 b 610 846 581 851 594 846 z "},"ì":{"ha":338,"x_min":0,"x_max":0,"o":"m 136 0 l 250 647 l 176 647 l 61 0 z m 43 983 l 218 783 l 282 783 l 140 983 z "},"í":{"ha":338,"x_min":0,"x_max":0,"o":"m 136 0 l 250 647 l 176 647 l 61 0 z m 464 983 l 367 983 l 192 783 l 254 783 z "},"î":{"ha":338,"x_min":0,"x_max":0,"o":"m 136 0 l 250 647 l 176 647 l 61 0 z m 231 983 l 44 783 l 122 783 l 271 943 l 363 783 l 432 783 l 321 983 z "},"ï":{"ha":338,"x_min":0,"x_max":0,"o":"m 136 0 l 250 647 l 176 647 l 61 0 z m 124 846 b 164 864 139 846 153 852 b 181 907 175 876 181 890 b 166 947 181 924 176 937 b 128 963 156 957 144 963 b 86 944 112 963 98 956 b 68 901 74 932 68 918 b 85 861 68 885 74 871 b 124 846 96 851 109 846 z m 378 846 b 419 864 394 846 407 852 b 436 907 430 876 436 890 b 421 947 436 924 431 937 b 382 963 411 957 398 963 b 341 945 366 963 353 957 b 324 901 329 934 324 919 b 339 861 324 885 329 871 b 378 846 349 851 362 846 z "},"ð":{"ha":829,"x_min":0,"x_max":0,"o":"m 675 378 b 590 144 675 287 647 209 b 375 46 534 78 462 46 b 210 109 305 46 250 67 b 150 269 170 151 150 205 b 235 503 150 360 178 438 b 449 601 292 569 363 601 b 615 538 519 601 574 580 b 675 378 655 496 675 443 z m 451 664 b 179 547 341 664 250 625 b 72 265 108 469 72 375 b 154 61 72 182 100 114 b 371 -18 209 8 281 -18 b 590 49 457 -18 530 4 b 717 215 649 94 692 149 b 756 428 743 280 756 351 b 704 695 756 519 738 609 b 569 919 670 782 625 856 l 728 997 l 689 1036 l 533 960 b 414 1074 492 1006 452 1044 l 347 1033 b 465 926 396 996 436 961 l 299 846 l 332 806 l 501 886 b 603 745 538 847 572 800 b 669 578 633 690 656 634 l 665 575 b 451 664 612 634 540 664 z "},"ñ":{"ha":797,"x_min":0,"x_max":0,"o":"m 224 518 b 242 647 228 543 234 586 l 169 647 b 149 499 168 623 161 574 l 61 0 l 135 0 l 193 329 b 287 531 209 416 240 483 b 449 601 334 578 388 601 b 562 556 499 601 536 586 b 600 433 587 526 600 485 b 593 365 600 414 598 391 l 528 0 l 601 0 l 665 358 b 674 443 671 389 674 417 b 619 606 674 513 656 568 b 464 664 583 645 531 664 b 327 624 416 664 370 650 b 226 518 284 597 250 562 z m 485 904 b 393 938 447 926 416 938 b 257 807 331 938 286 894 l 306 807 b 382 876 323 853 349 876 b 467 844 398 876 426 866 b 558 811 507 822 538 811 b 694 940 619 811 665 854 l 646 940 b 569 872 627 895 602 872 b 485 904 551 872 523 883 z "},"ò":{"ha":829,"x_min":0,"x_max":0,"o":"m 660 378 b 575 144 660 287 631 209 b 360 46 519 78 447 46 b 195 109 289 46 234 67 b 136 269 156 151 136 205 b 221 503 136 360 164 438 b 433 601 277 569 348 601 b 599 538 504 601 559 580 b 660 378 640 496 660 443 z m 58 265 b 140 61 58 182 85 114 b 356 -18 194 8 266 -18 b 628 99 467 -18 558 21 b 735 382 699 176 735 271 b 654 585 735 465 708 533 b 439 664 600 638 529 664 b 165 547 328 664 237 625 b 58 265 94 469 58 375 z m 281 983 l 456 783 l 519 783 l 378 983 z "},"ó":{"ha":829,"x_min":0,"x_max":0,"o":"m 660 378 b 575 144 660 287 631 209 b 360 46 519 78 447 46 b 195 109 289 46 234 67 b 136 269 156 151 136 205 b 221 503 136 360 164 438 b 433 601 277 569 348 601 b 599 538 504 601 559 580 b 660 378 640 496 660 443 z m 58 265 b 140 61 58 182 85 114 b 356 -18 194 8 266 -18 b 628 99 467 -18 558 21 b 735 382 699 176 735 271 b 654 585 735 465 708 533 b 439 664 600 638 529 664 b 165 547 328 664 237 625 b 58 265 94 469 58 375 z m 679 983 l 582 983 l 407 783 l 469 783 z "},"ô":{"ha":829,"x_min":0,"x_max":0,"o":"m 660 378 b 575 144 660 287 631 209 b 360 46 519 78 447 46 b 195 109 289 46 234 67 b 136 269 156 151 136 205 b 221 503 136 360 164 438 b 433 601 277 569 348 601 b 599 538 504 601 559 580 b 660 378 640 496 660 443 z m 58 265 b 140 61 58 182 85 114 b 356 -18 194 8 266 -18 b 628 99 467 -18 558 21 b 735 382 699 176 735 271 b 654 585 735 465 708 533 b 439 664 600 638 529 664 b 165 547 328 664 237 625 b 58 265 94 469 58 375 z m 476 983 l 290 783 l 368 783 l 517 943 l 608 783 l 678 783 l 567 983 z "},"õ":{"ha":829,"x_min":0,"x_max":0,"o":"m 660 378 b 575 144 660 287 631 209 b 360 46 519 78 447 46 b 195 109 289 46 234 67 b 136 269 156 151 136 205 b 221 503 136 360 164 438 b 433 601 277 569 348 601 b 599 538 504 601 559 580 b 660 378 640 496 660 443 z m 58 265 b 140 61 58 182 85 114 b 356 -18 194 8 266 -18 b 628 99 467 -18 558 21 b 735 382 699 176 735 271 b 654 585 735 465 708 533 b 439 664 600 638 529 664 b 165 547 328 664 237 625 b 58 265 94 469 58 375 z m 496 904 b 404 938 458 926 427 938 b 268 807 342 938 297 894 l 317 807 b 393 876 334 853 360 876 b 478 844 409 876 437 866 b 569 811 519 822 549 811 b 706 940 631 811 676 854 l 657 940 b 581 872 638 895 613 872 b 496 904 562 872 534 883 z "},"ö":{"ha":829,"x_min":0,"x_max":0,"o":"m 660 378 b 575 144 660 287 631 209 b 360 46 519 78 447 46 b 195 109 289 46 234 67 b 136 269 156 151 136 205 b 221 503 136 360 164 438 b 433 601 277 569 348 601 b 599 538 504 601 559 580 b 660 378 640 496 660 443 z m 58 265 b 140 61 58 182 85 114 b 356 -18 194 8 266 -18 b 628 99 467 -18 558 21 b 735 382 699 176 735 271 b 654 585 735 465 708 533 b 439 664 600 638 529 664 b 165 547 328 664 237 625 b 58 265 94 469 58 375 z m 364 846 b 404 864 380 846 393 852 b 421 907 415 876 421 890 b 406 947 421 924 416 937 b 368 963 397 957 384 963 b 326 944 352 963 338 956 b 308 901 314 932 308 918 b 325 861 308 885 314 871 b 364 846 336 851 349 846 z m 618 846 b 659 864 634 846 647 852 b 676 907 671 876 676 890 b 661 947 676 924 671 937 b 622 963 651 957 638 963 b 581 945 606 963 593 957 b 564 901 570 934 564 919 b 579 861 564 885 569 871 b 618 846 589 851 602 846 z "},"÷":{"ha":925,"x_min":0,"x_max":0,"o":"m 531 647 b 511 696 531 666 524 682 b 463 717 498 710 482 717 b 415 696 444 717 428 710 b 396 647 402 682 396 666 b 415 600 396 630 402 614 b 463 579 428 586 444 579 b 510 600 481 579 497 586 b 531 647 524 614 531 630 z m 811 388 l 811 454 l 115 454 l 115 388 z m 531 194 b 510 242 531 212 524 228 b 463 263 497 256 481 263 b 415 242 443 263 427 256 b 396 194 402 229 396 213 b 415 146 396 176 402 160 b 463 125 428 132 444 125 b 511 146 482 125 498 132 b 531 194 524 160 531 176 z "},"ø":{"ha":829,"x_min":0,"x_max":0,"o":"m 360 46 b 192 113 289 46 233 68 l 628 500 b 660 378 649 465 660 424 b 575 144 660 287 631 209 b 360 46 519 78 447 46 z m 165 150 b 136 269 146 183 136 223 b 221 503 136 360 164 438 b 433 601 277 569 348 601 b 600 538 504 601 559 580 z m 33 -31 l 139 63 b 356 -18 194 9 267 -18 b 629 99 467 -18 558 21 b 736 382 700 176 736 271 b 683 553 736 448 719 505 l 788 643 l 757 679 l 654 588 b 439 664 600 638 529 664 b 165 547 328 664 236 625 b 57 265 93 469 57 375 b 108 96 57 201 74 145 l 4 6 z "},"ù":{"ha":797,"x_min":0,"x_max":0,"o":"m 300 -18 b 433 21 346 -18 391 -5 b 535 128 475 47 509 82 l 538 128 b 519 0 532 99 526 56 l 592 0 b 613 149 594 41 601 90 l 700 647 l 626 647 l 568 318 b 474 117 552 231 521 164 b 314 46 426 69 373 46 b 161 207 212 46 161 100 b 168 281 161 226 163 251 l 233 647 l 160 647 l 94 281 b 86 194 89 249 86 220 b 141 36 86 125 104 72 b 300 -18 178 0 231 -18 z m 243 983 l 418 783 l 482 783 l 340 983 z "},"ú":{"ha":797,"x_min":0,"x_max":0,"o":"m 300 -18 b 433 21 346 -18 391 -5 b 535 128 475 47 509 82 l 538 128 b 519 0 532 99 526 56 l 592 0 b 613 149 594 41 601 90 l 700 647 l 626 647 l 568 318 b 474 117 552 231 521 164 b 314 46 426 69 373 46 b 161 207 212 46 161 100 b 168 281 161 226 163 251 l 233 647 l 160 647 l 94 281 b 86 194 89 249 86 220 b 141 36 86 125 104 72 b 300 -18 178 0 231 -18 z m 663 983 l 565 983 l 390 783 l 453 783 z "},"û":{"ha":797,"x_min":0,"x_max":0,"o":"m 300 -18 b 433 21 346 -18 391 -5 b 535 128 475 47 509 82 l 538 128 b 519 0 532 99 526 56 l 592 0 b 613 149 594 41 601 90 l 700 647 l 626 647 l 568 318 b 474 117 552 231 521 164 b 314 46 426 69 373 46 b 161 207 212 46 161 100 b 168 281 161 226 163 251 l 233 647 l 160 647 l 94 281 b 86 194 89 249 86 220 b 141 36 86 125 104 72 b 300 -18 178 0 231 -18 z m 450 983 l 264 783 l 342 783 l 490 943 l 582 783 l 651 783 l 540 983 z "},"ü":{"ha":797,"x_min":0,"x_max":0,"o":"m 300 -18 b 433 21 346 -18 391 -5 b 535 128 475 47 509 82 l 538 128 b 519 0 532 99 526 56 l 592 0 b 613 149 594 41 601 90 l 700 647 l 626 647 l 568 318 b 474 117 552 231 521 164 b 314 46 426 69 373 46 b 161 207 212 46 161 100 b 168 281 161 226 163 251 l 233 647 l 160 647 l 94 281 b 86 194 89 249 86 220 b 141 36 86 125 104 72 b 300 -18 178 0 231 -18 z m 342 846 b 382 864 357 846 371 852 b 399 907 393 876 399 890 b 384 947 399 924 394 937 b 346 963 374 957 362 963 b 304 944 330 963 316 956 b 286 901 292 932 286 918 b 303 861 286 885 292 871 b 342 846 314 851 327 846 z m 596 846 b 637 864 612 846 625 852 b 654 907 648 876 654 890 b 639 947 654 924 649 937 b 600 963 629 957 616 963 b 559 945 584 963 571 957 b 542 901 547 934 542 919 b 557 861 542 885 547 871 b 596 846 567 851 580 846 z "},"ý":{"ha":649,"x_min":0,"x_max":0,"o":"m -19 -335 b 90 -297 23 -335 60 -322 b 182 -181 121 -271 151 -232 l 667 647 l 585 647 l 263 76 l 260 76 l 150 647 l 71 647 l 207 -4 l 124 -150 b 58 -238 102 -189 80 -218 b -22 -268 35 -258 8 -268 b -81 -260 -44 -268 -64 -265 l -92 -325 b -19 -335 -66 -331 -42 -335 z m 608 983 l 511 983 l 336 783 l 399 783 z "},"þ":{"ha":871,"x_min":0,"x_max":0,"o":"m 229 524 l 322 1050 l 247 1050 l 4 -333 l 78 -333 l 161 131 l 164 131 b 256 22 182 84 213 48 b 401 -18 299 -5 348 -18 b 671 99 510 -18 600 21 b 778 382 742 178 778 272 b 699 586 778 466 752 534 b 486 664 647 638 576 664 b 337 624 432 664 383 650 b 233 524 291 597 256 563 z m 481 601 b 643 538 550 601 604 580 b 701 378 682 496 701 443 b 618 142 701 285 674 207 b 403 46 563 78 491 46 b 242 109 336 46 282 67 b 181 269 201 151 181 205 b 268 503 181 359 210 437 b 481 601 326 569 397 601 z "},"ÿ":{"ha":649,"x_min":0,"x_max":0,"o":"m -19 -335 b 90 -297 23 -335 60 -322 b 182 -181 121 -271 151 -232 l 667 647 l 585 647 l 263 76 l 260 76 l 150 647 l 71 647 l 207 -4 l 124 -150 b 58 -238 102 -189 80 -218 b -22 -268 35 -258 8 -268 b -81 -260 -44 -268 -64 -265 l -92 -325 b -19 -335 -66 -331 -42 -335 z m 275 846 b 315 864 291 846 304 852 b 332 907 326 876 332 890 b 317 947 332 924 327 937 b 279 963 308 957 295 963 b 238 944 263 963 250 956 b 219 901 225 932 219 918 b 236 861 219 885 225 871 b 275 846 247 851 260 846 z m 529 846 b 570 864 545 846 559 852 b 588 907 582 876 588 890 b 572 947 588 924 582 937 b 533 963 562 957 549 963 b 492 945 518 963 504 957 b 475 901 481 934 475 919 b 490 861 475 885 480 871 b 529 846 500 851 513 846 z "},"¤":{"ha":1169,"x_min":0,"x_max":0,"o":"m 807 151 b 939 21 818 142 862 99 l 988 69 l 857 200 b 936 429 910 263 936 339 b 863 653 936 516 912 591 l 988 778 l 938 826 l 901 790 b 849 737 882 771 864 753 b 811 700 833 721 820 708 b 586 779 750 753 675 779 b 358 699 498 779 422 752 l 231 826 l 182 778 b 219 740 190 769 203 756 b 272 687 235 723 253 706 b 310 650 292 668 304 656 b 239 429 263 590 239 516 b 315 203 239 338 264 262 l 182 69 l 229 21 l 364 154 b 586 78 426 103 500 78 b 807 151 671 78 745 102 z m 854 429 b 780 231 854 350 829 284 b 586 151 730 178 666 151 b 392 231 506 151 442 178 b 318 429 343 284 318 350 b 392 625 318 507 343 572 b 586 704 441 678 506 704 b 781 625 667 704 731 678 b 854 429 830 572 854 507 z "},"¦":{"ha":308,"x_min":0,"x_max":0,"o":"m 188 460 l 188 938 l 122 938 l 122 460 z m 188 -243 l 188 235 l 122 235 l 122 -243 z "},"¨":{"ha":333,"x_min":0,"x_max":0,"o":"m 126 846 b 167 864 142 846 156 852 b 183 907 178 876 183 890 b 169 947 183 924 178 937 b 131 963 159 957 146 963 b 89 944 115 963 101 956 b 71 901 77 932 71 918 b 88 861 71 885 76 871 b 126 846 99 851 112 846 z m 381 846 b 422 864 396 846 410 852 b 439 907 433 876 439 890 b 424 947 439 924 434 937 b 385 963 413 957 400 963 b 344 945 369 963 355 957 b 326 901 332 934 326 919 b 342 861 326 885 331 871 b 381 846 352 851 365 846 z "},"´":{"ha":333,"x_min":0,"x_max":0,"o":"m 425 983 l 328 983 l 153 783 l 215 783 z "},"¸":{"ha":333,"x_min":0,"x_max":0,"o":"m 40 -318 b 157 -287 85 -318 124 -308 b 207 -192 190 -266 207 -234 b 175 -123 207 -160 196 -137 b 101 -101 154 -109 129 -101 b 50 -108 82 -101 65 -104 l 140 0 l 89 0 l -24 -137 l -6 -156 b 68 -142 18 -146 42 -142 b 121 -156 89 -142 107 -146 b 142 -197 135 -165 142 -179 b 112 -251 142 -220 132 -238 b 36 -269 92 -263 67 -269 b -71 -247 -6 -269 -42 -262 l -92 -290 b 40 -318 -55 -309 -11 -318 z "},"¼":{"ha":1150,"x_min":0,"x_max":0,"o":"m 879 140 l 854 0 l 917 0 l 940 140 l 1031 140 l 1040 200 l 949 200 l 1017 588 l 938 588 l 622 200 l 611 140 z m 692 200 l 935 499 l 939 499 l 888 200 z m 1007 994 l 958 1025 l 154 -11 l 204 -42 z m 306 399 l 410 983 l 351 983 l 176 865 l 210 818 l 326 900 l 238 399 z "},"½":{"ha":1150,"x_min":0,"x_max":0,"o":"m 1007 994 l 958 1025 l 154 -11 l 204 -42 z m 306 399 l 410 983 l 351 983 l 176 865 l 210 818 l 326 900 l 238 399 z m 718 60 l 929 240 b 1038 349 981 285 1017 321 b 1068 450 1058 378 1068 411 b 1026 556 1068 494 1054 530 b 907 596 999 583 959 596 b 790 559 863 596 825 584 b 715 456 756 534 731 500 l 776 439 b 903 538 800 505 843 538 b 978 513 934 538 959 529 b 1006 446 996 497 1006 475 b 900 289 1006 402 970 350 l 643 67 l 632 0 l 1010 0 l 1022 60 z "},"¾":{"ha":1150,"x_min":0,"x_max":0,"o":"m 461 576 b 433 662 461 610 452 638 b 358 707 414 685 389 700 l 360 708 l 361 708 b 452 757 397 716 428 732 b 489 857 477 782 489 815 b 447 962 489 901 475 936 b 336 1000 418 987 381 1000 b 164 908 262 1000 205 969 l 215 875 b 328 942 243 919 281 942 b 396 918 356 942 378 934 b 422 853 413 902 422 881 b 383 767 422 817 409 788 b 271 736 356 747 319 736 l 243 736 l 233 681 l 258 681 b 356 654 298 681 331 672 b 394 571 382 637 394 609 b 358 484 394 535 382 506 b 261 451 334 462 302 451 b 143 531 201 451 162 478 l 78 511 b 145 424 91 474 113 445 b 261 392 177 402 216 392 b 405 441 319 392 367 408 b 461 576 442 474 461 519 z m 879 140 l 854 0 l 917 0 l 940 140 l 1031 140 l 1040 200 l 949 200 l 1017 588 l 938 588 l 622 200 l 611 140 z m 1007 994 l 958 1025 l 154 -11 l 204 -42 z m 692 200 l 935 499 l 939 499 l 888 200 z "},"Ā":{"ha":939,"x_min":0,"x_max":0,"o":"m 844 0 l 649 983 l 567 983 l -67 0 l 26 0 l 193 265 l 711 265 l 763 0 z m 699 338 l 238 338 l 592 899 z m 804 1119 l 815 1181 l 456 1181 l 446 1119 z "},"ā":{"ha":732,"x_min":0,"x_max":0,"o":"m 567 146 l 614 406 b 619 475 618 430 619 453 b 558 615 619 536 599 583 b 396 664 516 648 463 664 b 265 640 353 664 310 656 b 151 575 221 623 183 602 l 186 525 b 388 601 249 576 316 601 b 549 461 495 601 549 555 b 540 392 549 442 546 419 b 356 383 471 392 409 389 b 199 349 302 377 250 366 b 83 276 149 333 110 309 b 42 153 55 243 42 202 b 101 26 42 95 62 53 b 242 -14 141 0 188 -14 b 493 119 345 -14 429 31 l 496 119 b 485 0 488 78 485 38 l 551 0 b 567 146 551 36 556 85 z m 521 278 b 435 114 510 214 481 159 b 265 46 390 69 333 46 b 161 72 225 46 190 55 b 118 161 132 90 118 119 b 503 333 118 276 246 333 l 531 333 z m 614 842 l 625 903 l 265 903 l 256 842 z "},"Ă":{"ha":939,"x_min":0,"x_max":0,"o":"m 844 0 l 649 983 l 567 983 l -67 0 l 26 0 l 193 265 l 711 265 l 763 0 z m 699 338 l 238 338 l 592 899 z m 833 1257 l 783 1257 b 724 1167 773 1217 753 1187 b 617 1138 694 1147 658 1138 b 492 1257 533 1138 492 1177 l 442 1257 b 488 1123 442 1199 457 1154 b 615 1076 518 1092 561 1076 b 757 1126 670 1076 717 1093 b 833 1257 797 1159 822 1202 z "},"ă":{"ha":732,"x_min":0,"x_max":0,"o":"m 567 146 l 614 406 b 619 475 618 430 619 453 b 558 615 619 536 599 583 b 396 664 516 648 463 664 b 265 640 353 664 310 656 b 151 575 221 623 183 602 l 186 525 b 388 601 249 576 316 601 b 549 461 495 601 549 555 b 540 392 549 442 546 419 b 356 383 471 392 409 389 b 199 349 302 377 250 366 b 83 276 149 333 110 309 b 42 153 55 243 42 202 b 101 26 42 95 62 53 b 242 -14 141 0 188 -14 b 493 119 345 -14 429 31 l 496 119 b 485 0 488 78 485 38 l 551 0 b 567 146 551 36 556 85 z m 521 278 b 435 114 510 214 481 159 b 265 46 390 69 333 46 b 161 72 225 46 190 55 b 118 161 132 90 118 119 b 503 333 118 276 246 333 l 531 333 z m 643 979 l 593 979 b 533 890 583 939 563 909 b 426 860 504 870 468 860 b 301 979 343 860 301 900 l 251 979 b 297 845 251 921 267 876 b 425 799 328 814 370 799 b 567 848 480 799 527 815 b 643 979 606 881 632 925 z "},"Ą":{"ha":939,"x_min":0,"x_max":0,"o":"m -67 0 l 26 0 l 193 265 l 711 265 l 763 0 b 647 -107 713 -37 675 -73 b 604 -217 618 -141 604 -178 b 635 -286 604 -247 615 -270 b 713 -310 656 -302 682 -310 b 836 -261 757 -310 798 -294 l 822 -217 b 738 -250 797 -239 769 -250 b 672 -196 694 -250 672 -232 b 708 -110 672 -169 684 -141 b 819 0 731 -80 769 -44 l 844 0 l 649 983 l 567 983 z m 238 338 l 592 899 l 699 338 z "},"ą":{"ha":732,"x_min":0,"x_max":0,"o":"m 433 -310 b 557 -261 476 -310 517 -294 l 542 -217 b 457 -250 518 -239 489 -250 b 393 -196 414 -250 393 -232 b 428 -110 393 -169 405 -141 b 540 0 452 -80 489 -44 l 551 0 b 567 146 551 44 556 93 l 614 406 b 619 476 618 430 619 453 b 558 616 619 538 599 584 b 396 664 516 648 463 664 b 265 640 353 664 310 656 b 151 575 221 623 183 602 l 186 525 b 388 601 249 576 316 601 b 549 461 495 601 549 555 b 540 392 549 442 546 419 b 356 383 471 392 409 389 b 199 349 302 377 250 366 b 83 276 149 333 110 309 b 42 153 55 243 42 202 b 102 26 42 95 62 53 b 240 -14 142 0 188 -14 b 493 119 345 -14 429 31 l 496 119 b 483 0 488 73 483 33 b 366 -108 433 -38 394 -74 b 324 -217 338 -141 324 -178 b 356 -286 324 -247 334 -270 b 433 -310 377 -302 403 -310 z m 265 46 b 161 72 225 46 190 55 b 118 161 132 90 118 119 b 503 333 118 276 246 333 l 531 333 l 521 278 b 435 114 510 214 481 159 b 265 46 390 69 333 46 z "},"Ć":{"ha":1001,"x_min":0,"x_max":0,"o":"m 856 183 b 538 43 771 90 665 43 b 271 146 423 43 334 77 b 176 407 208 214 176 301 b 320 779 176 548 224 672 b 675 940 416 887 534 940 b 832 904 734 940 787 928 b 932 813 877 880 911 850 l 999 861 b 869 970 970 907 927 944 b 678 1010 811 997 747 1010 b 264 830 515 1010 377 950 b 94 399 151 710 94 566 b 213 91 94 272 134 169 b 535 -26 292 13 400 -26 b 907 136 688 -26 812 28 z m 890 1261 l 793 1261 l 618 1061 l 681 1061 z "},"ć":{"ha":681,"x_min":0,"x_max":0,"o":"m 363 44 b 199 107 293 44 239 65 b 140 268 160 149 140 202 b 228 503 140 359 169 437 b 446 601 286 569 359 601 b 611 521 519 601 574 575 l 668 560 b 447 664 626 629 553 664 b 172 547 335 664 243 625 b 64 261 100 468 64 373 b 141 58 64 178 90 110 b 353 -19 192 6 263 -19 b 604 83 447 -19 531 15 l 560 129 b 363 44 503 73 438 44 z m 676 983 l 579 983 l 404 783 l 467 783 z "},"Ĉ":{"ha":1001,"x_min":0,"x_max":0,"o":"m 856 183 b 538 43 771 90 665 43 b 271 146 423 43 334 77 b 176 407 208 214 176 301 b 320 779 176 548 224 672 b 675 940 416 887 534 940 b 832 904 734 940 787 928 b 932 813 877 880 911 850 l 999 861 b 869 970 970 907 927 944 b 678 1010 811 997 747 1010 b 264 830 515 1010 377 950 b 94 399 151 710 94 566 b 213 91 94 272 134 169 b 535 -26 292 13 400 -26 b 907 136 688 -26 812 28 z m 679 1261 l 493 1061 l 571 1061 l 719 1221 l 811 1061 l 881 1061 l 769 1261 z "},"ĉ":{"ha":681,"x_min":0,"x_max":0,"o":"m 363 44 b 199 107 293 44 239 65 b 140 268 160 149 140 202 b 228 503 140 359 169 437 b 446 601 286 569 359 601 b 611 521 519 601 574 575 l 668 560 b 447 664 626 629 553 664 b 172 547 335 664 243 625 b 64 261 100 468 64 373 b 141 58 64 178 90 110 b 353 -19 192 6 263 -19 b 604 83 447 -19 531 15 l 560 129 b 363 44 503 73 438 44 z m 472 983 l 286 783 l 364 783 l 513 943 l 604 783 l 674 783 l 563 983 z "},"Ċ":{"ha":1001,"x_min":0,"x_max":0,"o":"m 856 183 b 538 43 771 90 665 43 b 271 146 423 43 334 77 b 176 407 208 214 176 301 b 320 779 176 548 224 672 b 675 940 416 887 534 940 b 832 904 734 940 787 928 b 932 813 877 880 911 850 l 999 861 b 869 970 970 907 927 944 b 678 1010 811 997 747 1010 b 264 830 515 1010 377 950 b 94 399 151 710 94 566 b 213 91 94 272 134 169 b 535 -26 292 13 400 -26 b 907 136 688 -26 812 28 z m 713 1126 b 753 1144 728 1126 742 1132 b 769 1185 764 1155 769 1169 b 754 1224 769 1201 764 1215 b 717 1239 744 1234 731 1239 b 676 1222 701 1239 688 1233 b 660 1179 665 1210 660 1196 b 675 1141 660 1163 665 1151 b 713 1126 685 1131 698 1126 z "},"ċ":{"ha":681,"x_min":0,"x_max":0,"o":"m 363 44 b 199 107 293 44 239 65 b 140 268 160 149 140 202 b 228 503 140 359 169 437 b 446 601 286 569 359 601 b 611 521 519 601 574 575 l 668 560 b 447 664 626 629 553 664 b 172 547 335 664 243 625 b 64 261 100 468 64 373 b 141 58 64 178 90 110 b 353 -19 192 6 263 -19 b 604 83 447 -19 531 15 l 560 129 b 363 44 503 73 438 44 z m 492 849 b 532 866 507 849 521 854 b 549 907 543 878 549 891 b 533 947 549 924 544 937 b 496 961 523 956 511 961 b 456 944 480 961 467 955 b 439 901 444 932 439 918 b 454 863 439 886 444 873 b 492 849 464 853 477 849 z "},"Č":{"ha":1001,"x_min":0,"x_max":0,"o":"m 856 183 b 538 43 771 90 665 43 b 271 146 423 43 334 77 b 176 407 208 214 176 301 b 320 779 176 548 224 672 b 675 940 416 887 534 940 b 832 904 734 940 787 928 b 932 813 877 880 911 850 l 999 861 b 869 970 970 907 927 944 b 678 1010 811 997 747 1010 b 264 830 515 1010 377 950 b 94 399 151 710 94 566 b 213 91 94 272 134 169 b 535 -26 292 13 400 -26 b 907 136 688 -26 812 28 z m 735 1061 l 919 1261 l 843 1261 l 693 1101 l 603 1261 l 533 1261 l 644 1061 z "},"č":{"ha":681,"x_min":0,"x_max":0,"o":"m 363 44 b 199 107 293 44 239 65 b 140 268 160 149 140 202 b 228 503 140 359 169 437 b 446 601 286 569 359 601 b 611 521 519 601 574 575 l 668 560 b 447 664 626 629 553 664 b 172 547 335 664 243 625 b 64 261 100 468 64 373 b 141 58 64 178 90 110 b 353 -19 192 6 263 -19 b 604 83 447 -19 531 15 l 560 129 b 363 44 503 73 438 44 z m 513 783 l 697 983 l 621 983 l 471 824 l 381 983 l 311 983 l 422 783 z "},"Ď":{"ha":1058,"x_min":0,"x_max":0,"o":"m 376 0 b 815 154 554 0 700 51 b 988 574 930 257 988 397 b 949 757 988 642 975 703 b 844 886 923 811 888 854 b 697 959 800 919 751 943 b 525 983 644 975 586 983 l 240 983 l 67 0 z m 508 914 b 801 818 634 914 732 882 b 904 565 870 754 904 670 b 761 209 904 421 856 302 b 381 69 666 116 539 69 l 157 69 l 307 914 z m 607 1061 l 792 1261 l 715 1261 l 565 1101 l 475 1261 l 406 1261 l 517 1061 z "},"ď":{"ha":925,"x_min":0,"x_max":0,"o":"m 346 -18 b 498 22 400 -18 451 -5 b 603 124 545 49 580 83 l 606 124 l 582 0 l 657 0 l 843 1050 l 768 1050 l 675 517 l 671 517 b 578 624 652 562 621 598 b 429 664 534 651 485 664 b 163 549 321 664 232 626 b 58 269 93 473 58 380 b 135 60 58 182 84 113 b 346 -18 187 8 257 -18 z m 356 46 b 193 109 286 46 232 67 b 135 269 154 151 135 205 b 217 506 135 364 162 443 b 433 601 272 570 344 601 b 594 539 500 601 553 581 b 654 379 634 497 654 444 b 567 145 654 289 625 211 b 356 46 509 79 439 46 z m 1076 983 l 997 983 l 863 725 l 925 725 z "},"Đ":{"ha":1058,"x_min":0,"x_max":0,"o":"m 151 486 l 67 0 l 376 0 b 815 154 554 0 700 51 b 988 574 930 257 988 397 b 949 757 988 642 975 703 b 844 886 923 811 888 854 b 697 959 800 919 751 943 b 525 983 644 975 586 983 l 240 983 l 164 547 l 63 547 l 51 486 z m 242 547 l 307 914 l 508 914 b 801 818 634 914 732 882 b 904 565 870 754 904 670 b 761 209 904 421 856 302 b 381 69 666 116 539 69 l 157 69 l 231 486 l 586 486 l 597 547 z "},"đ":{"ha":863,"x_min":0,"x_max":0,"o":"m 874 792 l 883 847 l 807 847 l 843 1050 l 768 1050 l 733 847 l 485 847 l 475 792 l 722 792 l 675 517 l 671 517 b 578 624 652 562 622 598 b 433 664 535 651 487 664 b 165 547 325 664 235 625 b 58 264 94 469 58 375 b 137 60 58 180 84 112 b 349 -18 189 8 260 -18 b 499 22 403 -18 453 -5 b 603 124 545 49 580 83 l 606 124 l 582 0 l 657 0 l 797 792 z m 356 46 b 193 109 286 46 232 67 b 135 269 154 151 135 205 b 218 505 135 362 163 441 b 433 601 274 569 345 601 b 594 539 500 601 553 581 b 654 379 634 497 654 444 b 567 145 654 289 625 211 b 356 46 509 79 439 46 z "},"Ē":{"ha":804,"x_min":0,"x_max":0,"o":"m 681 0 l 693 69 l 157 69 l 229 478 l 707 478 l 718 544 l 240 544 l 306 914 l 804 914 l 817 983 l 240 983 l 67 0 z m 731 1119 l 742 1181 l 382 1181 l 372 1119 z "},"ē":{"ha":781,"x_min":0,"x_max":0,"o":"m 683 308 b 696 411 692 338 696 372 b 626 594 696 486 673 547 b 429 664 580 641 514 664 b 165 547 325 664 237 625 b 58 269 94 469 58 377 b 140 60 58 181 85 112 b 353 -18 194 8 265 -18 b 513 18 410 -18 464 -6 b 635 117 563 42 603 75 l 586 156 b 358 46 526 82 450 46 b 196 108 292 46 238 66 b 133 267 154 149 133 202 b 136 308 133 285 134 299 z m 618 364 l 146 364 b 242 531 160 428 192 483 b 428 601 293 578 355 601 b 570 551 489 601 536 584 b 621 415 604 517 621 472 b 618 364 621 403 620 386 z m 654 842 l 665 903 l 306 903 l 296 842 z "},"Ĕ":{"ha":804,"x_min":0,"x_max":0,"o":"m 681 0 l 693 69 l 157 69 l 229 478 l 707 478 l 718 544 l 240 544 l 306 914 l 804 914 l 817 983 l 240 983 l 67 0 z m 761 1257 l 711 1257 b 651 1167 701 1217 681 1187 b 544 1138 622 1147 586 1138 b 419 1257 461 1138 419 1177 l 369 1257 b 415 1123 369 1199 385 1154 b 543 1076 446 1092 488 1076 b 685 1126 598 1076 645 1093 b 761 1257 725 1159 750 1202 z "},"ĕ":{"ha":781,"x_min":0,"x_max":0,"o":"m 683 308 b 696 411 692 338 696 372 b 626 594 696 486 673 547 b 429 664 580 641 514 664 b 165 547 325 664 237 625 b 58 269 94 469 58 377 b 140 60 58 181 85 112 b 353 -18 194 8 265 -18 b 513 18 410 -18 464 -6 b 635 117 563 42 603 75 l 586 156 b 358 46 526 82 450 46 b 196 108 292 46 238 66 b 133 267 154 149 133 202 b 136 308 133 285 134 299 z m 618 364 l 146 364 b 242 531 160 428 192 483 b 428 601 293 578 355 601 b 570 551 489 601 536 584 b 621 415 604 517 621 472 b 618 364 621 403 620 386 z m 686 979 l 636 979 b 576 890 626 939 606 909 b 469 860 547 870 511 860 b 344 979 386 860 344 900 l 294 979 b 340 845 294 921 310 876 b 468 799 371 814 413 799 b 610 848 523 799 570 815 b 686 979 650 881 675 925 z "},"Ė":{"ha":804,"x_min":0,"x_max":0,"o":"m 681 0 l 693 69 l 157 69 l 229 478 l 707 478 l 718 544 l 240 544 l 306 914 l 804 914 l 817 983 l 240 983 l 67 0 z m 561 1126 b 601 1144 577 1126 590 1132 b 618 1185 613 1155 618 1169 b 603 1224 618 1201 613 1215 b 565 1239 593 1234 580 1239 b 525 1222 550 1239 536 1233 b 508 1179 514 1210 508 1196 b 524 1141 508 1163 513 1151 b 561 1126 534 1131 546 1126 z "},"ė":{"ha":781,"x_min":0,"x_max":0,"o":"m 683 308 b 696 411 692 338 696 372 b 626 594 696 486 673 547 b 429 664 580 641 514 664 b 165 547 325 664 237 625 b 58 269 94 469 58 377 b 140 60 58 181 85 112 b 353 -18 194 8 265 -18 b 513 18 410 -18 464 -6 b 635 117 563 42 603 75 l 586 156 b 358 46 526 82 450 46 b 196 108 292 46 238 66 b 133 267 154 149 133 202 b 136 308 133 285 134 299 z m 618 364 l 146 364 b 242 531 160 428 192 483 b 428 601 293 578 355 601 b 570 551 489 601 536 584 b 621 415 604 517 621 472 b 618 364 621 403 620 386 z m 479 849 b 519 866 495 849 508 854 b 536 907 531 878 536 891 b 521 947 536 924 531 937 b 483 961 511 956 498 961 b 443 944 468 961 454 955 b 426 901 432 932 426 918 b 442 863 426 886 431 873 b 479 849 452 853 464 849 z "},"Ę":{"ha":807,"x_min":0,"x_max":0,"o":"m 657 -217 b 574 -250 633 -239 605 -250 b 508 -196 530 -250 508 -232 b 544 -110 508 -169 520 -141 b 656 0 567 -80 605 -44 l 683 0 l 696 69 l 157 69 l 229 478 l 708 478 l 721 544 l 240 544 l 306 914 l 807 914 l 819 983 l 240 983 l 67 0 l 599 0 b 481 -108 549 -38 509 -74 b 439 -217 453 -141 439 -178 b 471 -286 439 -247 450 -270 b 549 -310 492 -302 518 -310 b 672 -261 593 -310 634 -294 z "},"ę":{"ha":781,"x_min":0,"x_max":0,"o":"m 431 -217 b 346 -250 406 -239 378 -250 b 282 -196 303 -250 282 -232 b 413 -12 282 -148 325 -87 b 635 117 501 1 575 44 l 592 158 b 358 46 521 83 444 46 b 195 108 292 46 237 67 b 132 272 153 150 132 205 b 136 308 132 282 133 294 l 683 308 b 696 411 692 338 696 372 b 627 594 696 487 673 548 b 431 664 581 641 516 664 b 166 547 326 664 238 625 b 58 269 94 468 58 376 b 138 62 58 182 85 113 b 347 -18 191 10 261 -16 b 213 -217 257 -88 213 -155 b 244 -286 213 -247 223 -270 b 321 -310 265 -302 290 -310 b 444 -261 365 -310 406 -294 z m 618 364 l 146 364 b 242 531 160 428 192 483 b 428 601 293 578 355 601 b 570 551 489 601 536 584 b 621 415 604 517 621 472 b 618 364 621 403 620 386 z "},"Ě":{"ha":804,"x_min":0,"x_max":0,"o":"m 681 0 l 693 69 l 157 69 l 229 478 l 707 478 l 718 544 l 240 544 l 306 914 l 804 914 l 817 983 l 240 983 l 67 0 z m 585 1061 l 769 1261 l 693 1261 l 543 1101 l 453 1261 l 383 1261 l 494 1061 z "},"ě":{"ha":781,"x_min":0,"x_max":0,"o":"m 683 308 b 696 411 692 338 696 372 b 626 594 696 486 673 547 b 429 664 580 641 514 664 b 165 547 325 664 237 625 b 58 269 94 469 58 377 b 140 60 58 181 85 112 b 353 -18 194 8 265 -18 b 513 18 410 -18 464 -6 b 635 117 563 42 603 75 l 586 156 b 358 46 526 82 450 46 b 196 108 292 46 238 66 b 133 267 154 149 133 202 b 136 308 133 285 134 299 z m 618 364 l 146 364 b 242 531 160 428 192 483 b 428 601 293 578 355 601 b 570 551 489 601 536 584 b 621 415 604 517 621 472 b 618 364 621 403 620 386 z m 507 783 l 692 983 l 615 983 l 465 824 l 375 983 l 306 983 l 417 783 z "},"Ĝ":{"ha":1069,"x_min":0,"x_max":0,"o":"m 533 -26 b 894 67 669 -26 790 5 l 971 506 l 656 506 l 643 439 l 882 439 l 825 111 b 538 43 748 66 652 43 b 270 146 422 43 333 77 b 176 407 208 214 176 301 b 320 779 176 548 224 672 b 675 940 416 887 534 940 b 834 904 734 940 787 928 b 940 813 881 880 916 850 l 1003 861 b 873 970 974 907 931 944 b 678 1010 815 997 750 1010 b 264 830 515 1010 377 950 b 94 399 151 710 94 566 b 213 90 94 271 134 168 b 533 -26 291 13 398 -26 z m 688 1261 l 501 1061 l 579 1061 l 728 1221 l 819 1061 l 889 1061 l 778 1261 z "},"ĝ":{"ha":867,"x_min":0,"x_max":0,"o":"m 619 139 l 596 15 b 503 -194 579 -73 548 -143 b 303 -272 459 -246 392 -272 b 53 -161 200 -272 117 -235 l 8 -210 b 131 -303 39 -250 80 -281 b 299 -337 181 -326 238 -337 b 440 -315 351 -337 398 -330 b 539 -260 481 -300 514 -282 b 604 -178 564 -239 586 -211 b 645 -85 623 -146 636 -115 b 668 14 654 -56 662 -23 l 779 647 l 707 647 l 683 515 l 679 515 b 589 624 663 561 632 597 b 443 664 545 650 497 664 b 176 551 336 664 247 626 b 69 279 105 476 69 386 b 147 74 69 196 95 128 b 357 -6 198 21 268 -6 b 506 33 411 -6 460 7 b 617 139 552 59 589 94 z m 368 57 b 203 120 298 57 243 78 b 144 278 164 162 144 215 b 227 510 144 371 172 449 b 442 601 282 571 354 601 b 603 538 508 601 562 580 b 664 379 644 495 664 442 b 579 153 664 292 636 217 b 368 57 523 89 452 57 z m 490 983 l 304 783 l 382 783 l 531 943 l 622 783 l 692 783 l 581 983 z "},"Ğ":{"ha":1069,"x_min":0,"x_max":0,"o":"m 533 -26 b 894 67 669 -26 790 5 l 971 506 l 656 506 l 643 439 l 882 439 l 825 111 b 538 43 748 66 652 43 b 270 146 422 43 333 77 b 176 407 208 214 176 301 b 320 779 176 548 224 672 b 675 940 416 887 534 940 b 834 904 734 940 787 928 b 940 813 881 880 916 850 l 1003 861 b 873 970 974 907 931 944 b 678 1010 815 997 750 1010 b 264 830 515 1010 377 950 b 94 399 151 710 94 566 b 213 90 94 271 134 168 b 533 -26 291 13 398 -26 z m 911 1257 l 861 1257 b 801 1167 851 1217 831 1187 b 694 1138 772 1147 736 1138 b 569 1257 611 1138 569 1177 l 519 1257 b 565 1123 519 1199 535 1154 b 693 1076 596 1092 638 1076 b 835 1126 748 1076 795 1093 b 911 1257 875 1159 900 1202 z "},"ğ":{"ha":867,"x_min":0,"x_max":0,"o":"m 619 139 l 596 15 b 503 -194 579 -73 548 -143 b 303 -272 459 -246 392 -272 b 53 -161 200 -272 117 -235 l 8 -210 b 131 -303 39 -250 80 -281 b 299 -337 181 -326 238 -337 b 440 -315 351 -337 398 -330 b 539 -260 481 -300 514 -282 b 604 -178 564 -239 586 -211 b 645 -85 623 -146 636 -115 b 668 14 654 -56 662 -23 l 779 647 l 707 647 l 683 515 l 679 515 b 589 624 663 561 632 597 b 443 664 545 650 497 664 b 176 551 336 664 247 626 b 69 279 105 476 69 386 b 147 74 69 196 95 128 b 357 -6 198 21 268 -6 b 506 33 411 -6 460 7 b 617 139 552 59 589 94 z m 368 57 b 203 120 298 57 243 78 b 144 278 164 162 144 215 b 227 510 144 371 172 449 b 442 601 282 571 354 601 b 603 538 508 601 562 580 b 664 379 644 495 664 442 b 579 153 664 292 636 217 b 368 57 523 89 452 57 z m 714 979 l 664 979 b 604 890 654 939 634 909 b 497 860 575 870 539 860 b 372 979 414 860 372 900 l 322 979 b 368 845 322 921 338 876 b 496 799 399 814 441 799 b 638 848 550 799 598 815 b 714 979 677 881 703 925 z "},"Ġ":{"ha":1069,"x_min":0,"x_max":0,"o":"m 533 -26 b 894 67 669 -26 790 5 l 971 506 l 656 506 l 643 439 l 882 439 l 825 111 b 538 43 748 66 652 43 b 270 146 422 43 333 77 b 176 407 208 214 176 301 b 320 779 176 548 224 672 b 675 940 416 887 534 940 b 834 904 734 940 787 928 b 940 813 881 880 916 850 l 1003 861 b 873 970 974 907 931 944 b 678 1010 815 997 750 1010 b 264 830 515 1010 377 950 b 94 399 151 710 94 566 b 213 90 94 271 134 168 b 533 -26 291 13 398 -26 z m 713 1126 b 753 1144 728 1126 742 1132 b 769 1185 764 1155 769 1169 b 754 1224 769 1201 764 1215 b 717 1239 744 1234 731 1239 b 676 1222 701 1239 688 1233 b 660 1179 665 1210 660 1196 b 675 1141 660 1163 665 1151 b 713 1126 685 1131 698 1126 z "},"ġ":{"ha":867,"x_min":0,"x_max":0,"o":"m 619 139 l 596 15 b 503 -194 579 -73 548 -143 b 303 -272 459 -246 392 -272 b 53 -161 200 -272 117 -235 l 8 -210 b 131 -303 39 -250 80 -281 b 299 -337 181 -326 238 -337 b 440 -315 351 -337 398 -330 b 539 -260 481 -300 514 -282 b 604 -178 564 -239 586 -211 b 645 -85 623 -146 636 -115 b 668 14 654 -56 662 -23 l 779 647 l 707 647 l 683 515 l 679 515 b 589 624 663 561 632 597 b 443 664 545 650 497 664 b 176 551 336 664 247 626 b 69 279 105 476 69 386 b 147 74 69 196 95 128 b 357 -6 198 21 268 -6 b 506 33 411 -6 460 7 b 617 139 552 59 589 94 z m 368 57 b 203 120 298 57 243 78 b 144 278 164 162 144 215 b 227 510 144 371 172 449 b 442 601 282 571 354 601 b 603 538 508 601 562 580 b 664 379 644 495 664 442 b 579 153 664 292 636 217 b 368 57 523 89 452 57 z m 507 849 b 547 866 523 849 536 854 b 564 907 558 878 564 891 b 549 947 564 924 559 937 b 511 961 538 956 526 961 b 471 944 495 961 482 955 b 454 901 460 932 454 918 b 469 863 454 886 459 873 b 507 849 480 853 492 849 z "},"Ģ":{"ha":1069,"x_min":0,"x_max":0,"o":"m 533 -26 b 894 67 669 -26 790 5 l 971 506 l 656 506 l 643 439 l 882 439 l 825 111 b 538 43 748 66 652 43 b 270 146 422 43 333 77 b 176 407 208 214 176 301 b 320 779 176 548 224 672 b 675 940 416 887 534 940 b 834 904 734 940 787 928 b 940 813 881 880 916 850 l 1003 861 b 873 970 974 907 931 944 b 678 1010 815 997 750 1010 b 264 830 515 1010 377 950 b 94 399 151 710 94 566 b 213 90 94 271 134 168 b 533 -26 291 13 398 -26 z m 588 -62 l 508 -62 l 374 -321 l 436 -321 z "},"ģ":{"ha":867,"x_min":0,"x_max":0,"o":"m 619 139 l 596 15 b 503 -194 579 -73 548 -143 b 303 -272 459 -246 392 -272 b 53 -161 200 -272 117 -235 l 8 -210 b 131 -303 39 -250 80 -281 b 299 -337 181 -326 238 -337 b 440 -315 351 -337 398 -330 b 539 -260 481 -300 514 -282 b 604 -178 564 -239 586 -211 b 645 -85 623 -146 636 -115 b 668 14 654 -56 662 -23 l 779 647 l 707 647 l 683 515 l 679 515 b 589 624 663 561 632 597 b 443 664 545 650 497 664 b 176 551 336 664 247 626 b 69 279 105 476 69 386 b 147 74 69 196 95 128 b 357 -6 198 21 268 -6 b 506 33 411 -6 460 7 b 617 139 552 59 589 94 z m 368 57 b 203 120 298 57 243 78 b 144 278 164 162 144 215 b 227 510 144 371 172 449 b 442 601 282 571 354 601 b 603 538 508 601 562 580 b 664 379 644 495 664 442 b 579 153 664 292 636 217 b 368 57 523 89 452 57 z m 422 783 l 501 783 l 636 1042 l 574 1042 z "},"Ĥ":{"ha":989,"x_min":0,"x_max":0,"o":"m 782 0 l 956 983 l 878 983 l 800 546 l 240 546 l 318 983 l 240 983 l 67 0 l 144 0 l 228 475 l 788 475 l 704 0 z m 603 1261 l 417 1061 l 494 1061 l 643 1221 l 735 1061 l 804 1061 l 693 1261 z "},"ĥ":{"ha":797,"x_min":0,"x_max":0,"o":"m 228 521 l 319 1050 l 246 1050 l 61 0 l 135 0 l 193 329 b 287 531 209 416 240 483 b 449 601 334 578 388 601 b 562 556 499 601 536 586 b 600 433 587 526 600 485 b 593 365 600 414 598 391 l 528 0 l 601 0 l 665 358 b 674 443 671 389 674 417 b 619 606 674 513 656 568 b 464 664 583 645 531 664 b 329 625 416 664 371 651 b 231 521 288 599 255 564 z m 503 1306 l 317 1106 l 394 1106 l 543 1265 l 635 1106 l 704 1106 l 593 1306 z "},"Ħ":{"ha":989,"x_min":0,"x_max":0,"o":"m 782 0 l 956 983 l 878 983 l 836 750 l 276 750 l 318 983 l 240 983 l 67 0 l 144 0 l 228 475 l 788 475 l 704 0 z m 240 546 l 267 694 l 826 694 l 800 546 z "},"ħ":{"ha":797,"x_min":0,"x_max":0,"o":"m 228 521 l 274 792 l 519 792 l 529 847 l 285 847 l 319 1050 l 246 1050 l 210 847 l 131 847 l 121 792 l 200 792 l 61 0 l 135 0 l 193 329 b 286 531 209 416 240 483 b 444 601 332 578 385 601 b 600 444 548 601 600 549 b 593 365 598 408 596 382 l 528 0 l 601 0 l 671 393 b 679 463 676 426 679 450 b 622 608 679 523 660 571 b 463 664 583 645 530 664 b 329 626 414 664 370 651 b 231 521 288 601 256 566 z "},"Ĩ":{"ha":350,"x_min":0,"x_max":0,"o":"m 144 0 l 318 983 l 240 983 l 67 0 z m 314 1182 b 222 1215 276 1204 245 1215 b 86 1085 160 1215 115 1172 l 135 1085 b 211 1154 152 1131 178 1154 b 296 1122 227 1154 255 1143 b 388 1089 337 1100 367 1089 b 524 1218 449 1089 494 1132 l 475 1218 b 399 1150 456 1173 431 1150 b 314 1182 380 1150 352 1161 z "},"ĩ":{"ha":338,"x_min":0,"x_max":0,"o":"m 136 0 l 250 647 l 176 647 l 61 0 z m 260 904 b 168 938 222 926 191 938 b 32 807 106 938 61 894 l 81 807 b 157 876 98 853 124 876 b 242 844 173 876 201 866 b 333 811 282 822 313 811 b 469 940 394 811 440 854 l 421 940 b 344 872 402 895 377 872 b 260 904 326 872 298 883 z "},"Ī":{"ha":350,"x_min":0,"x_max":0,"o":"m 144 0 l 318 983 l 240 983 l 67 0 z m 476 1119 l 488 1181 l 128 1181 l 118 1119 z "},"ī":{"ha":338,"x_min":0,"x_max":0,"o":"m 136 0 l 250 647 l 176 647 l 61 0 z m 421 842 l 432 903 l 72 903 l 63 842 z "},"Ĭ":{"ha":350,"x_min":0,"x_max":0,"o":"m 144 0 l 318 983 l 240 983 l 67 0 z m 521 1257 l 471 1257 b 411 1167 461 1217 441 1187 b 304 1138 381 1147 346 1138 b 179 1257 221 1138 179 1177 l 129 1257 b 175 1123 129 1199 144 1154 b 303 1076 206 1092 248 1076 b 444 1126 357 1076 405 1093 b 521 1257 484 1159 510 1202 z "},"ĭ":{"ha":338,"x_min":0,"x_max":0,"o":"m 136 0 l 250 647 l 176 647 l 61 0 z m 467 979 l 417 979 b 357 890 406 939 387 909 b 250 860 327 870 292 860 b 125 979 167 860 125 900 l 75 979 b 121 845 75 921 90 876 b 249 799 151 814 194 799 b 390 848 303 799 350 815 b 467 979 430 881 456 925 z "},"Į":{"ha":350,"x_min":0,"x_max":0,"o":"m 38 -310 b 161 -261 80 -310 121 -294 l 146 -217 b 61 -250 122 -239 94 -250 b -3 -196 19 -250 -3 -232 b 33 -110 -3 -169 9 -140 b 143 0 56 -79 93 -43 l 318 983 l 240 983 l 67 0 l 88 0 b -72 -217 -19 -79 -72 -151 b -40 -286 -72 -247 -62 -270 b 38 -310 -19 -302 7 -310 z "},"į":{"ha":338,"x_min":0,"x_max":0,"o":"m 136 -217 b 51 -250 112 -239 84 -250 b -12 -196 9 -250 -12 -232 b 22 -111 -12 -169 -1 -141 b 133 0 45 -81 82 -44 l 136 0 l 250 647 l 176 647 l 61 0 l 78 0 b -40 -107 28 -37 -11 -73 b -82 -217 -68 -141 -82 -178 b -51 -286 -82 -247 -72 -270 b 26 -310 -30 -302 -4 -310 b 150 -261 71 -310 112 -294 z m 250 849 b 290 866 266 849 279 854 b 307 907 301 878 307 891 b 292 947 307 924 302 937 b 254 961 281 956 269 961 b 214 944 238 961 225 955 b 197 901 203 932 197 918 b 213 863 197 886 202 873 b 250 849 223 853 235 849 z "},"İ":{"ha":350,"x_min":0,"x_max":0,"o":"m 144 0 l 318 983 l 240 983 l 67 0 z m 306 1126 b 346 1144 321 1126 335 1132 b 363 1185 357 1155 363 1169 b 347 1224 363 1201 357 1215 b 310 1239 337 1234 325 1239 b 269 1222 294 1239 281 1233 b 253 1179 258 1210 253 1196 b 268 1141 253 1163 258 1151 b 306 1126 278 1131 291 1126 z "},"ı":{"ha":338,"x_min":0,"x_max":0,"o":"m 136 0 l 250 647 l 176 647 l 61 0 z "},"Ĳ":{"ha":1015,"x_min":0,"x_max":0,"o":"m 144 0 l 318 983 l 240 983 l 67 0 z m 867 279 l 990 983 l 913 983 l 789 285 b 720 107 775 209 752 150 b 571 43 688 64 638 43 b 463 81 527 43 491 56 b 408 179 435 107 417 139 l 339 156 b 414 26 348 104 373 61 b 574 -25 455 -8 508 -25 b 702 1 623 -25 666 -16 b 789 74 739 18 768 42 b 838 169 810 106 827 138 b 867 279 850 201 859 238 z "},"ĳ":{"ha":690,"x_min":0,"x_max":0,"o":"m 136 0 l 250 647 l 176 647 l 61 0 z m 250 849 b 290 866 266 849 279 854 b 307 907 301 878 307 891 b 292 947 307 924 302 937 b 254 961 281 956 269 961 b 214 944 238 961 225 955 b 197 901 203 932 197 918 b 213 863 197 886 202 873 b 250 849 223 853 235 849 z m 467 -131 l 604 647 l 529 647 l 394 -121 b 356 -231 386 -169 373 -206 b 269 -269 339 -257 310 -269 b 218 -262 252 -269 235 -267 l 203 -325 b 269 -333 219 -331 241 -333 b 408 -279 333 -333 379 -315 b 467 -131 436 -243 456 -194 z m 603 849 b 642 866 618 849 631 854 b 658 907 653 878 658 891 b 644 947 658 924 653 937 b 607 961 634 956 622 961 b 567 944 591 961 578 955 b 550 901 556 932 550 918 b 565 863 550 886 555 873 b 603 849 575 853 588 849 z "},"Ĵ":{"ha":668,"x_min":0,"x_max":0,"o":"m 644 983 l 565 983 l 443 285 b 374 108 429 210 406 151 b 229 43 342 65 294 43 b 58 178 141 43 84 88 l -7 156 b 69 26 2 104 28 61 b 229 -25 110 -8 163 -25 b 357 1 278 -25 321 -16 b 442 74 393 18 422 42 b 491 169 463 106 479 138 b 519 279 503 201 512 238 z m 607 1261 l 421 1061 l 499 1061 l 647 1221 l 739 1061 l 808 1061 l 697 1261 z "},"ĵ":{"ha":339,"x_min":0,"x_max":0,"o":"m 114 -131 l 251 647 l 178 647 l 42 -121 b 3 -232 32 -170 19 -207 b -83 -269 -14 -257 -43 -269 b -135 -262 -101 -269 -118 -267 l -149 -325 b -82 -333 -134 -331 -112 -333 b 56 -279 -18 -333 28 -315 b 114 -131 83 -243 103 -194 z m 222 983 l 36 783 l 114 783 l 263 943 l 354 783 l 424 783 l 313 983 z "},"Ķ":{"ha":789,"x_min":0,"x_max":0,"o":"m 240 540 l 318 983 l 240 983 l 67 0 l 144 0 l 238 525 l 642 0 l 743 0 l 328 528 l 869 983 l 756 983 l 242 540 z m 431 -62 l 351 -62 l 217 -321 l 279 -321 z "},"ķ":{"ha":656,"x_min":0,"x_max":0,"o":"m 199 354 l 322 1050 l 247 1050 l 63 0 l 138 0 l 197 340 l 201 340 l 492 0 l 589 0 l 286 346 l 653 647 l 547 647 l 201 354 z m 361 -64 l 282 -64 l 147 -322 l 210 -322 z "},"ĸ":{"ha":656,"x_min":0,"x_max":0,"o":"m 250 647 l 176 647 l 63 0 l 138 0 l 197 340 l 200 340 l 490 0 l 589 0 l 286 346 l 653 647 l 549 647 l 203 354 l 199 354 z "},"Ĺ":{"ha":703,"x_min":0,"x_max":0,"o":"m 613 0 l 625 69 l 156 69 l 318 983 l 240 983 l 67 0 z m 524 1261 l 426 1261 l 251 1061 l 314 1061 z "},"ĺ":{"ha":339,"x_min":0,"x_max":0,"o":"m 138 0 l 322 1050 l 247 1050 l 63 0 z m 525 1300 l 428 1300 l 253 1100 l 315 1100 z "},"Ļ":{"ha":703,"x_min":0,"x_max":0,"o":"m 613 0 l 625 69 l 156 69 l 318 983 l 240 983 l 67 0 z m 394 -62 l 315 -62 l 181 -321 l 243 -321 z "},"ļ":{"ha":339,"x_min":0,"x_max":0,"o":"m 138 0 l 322 1050 l 247 1050 l 63 0 z m 165 -64 l 86 -64 l -49 -322 l 14 -322 z "},"Ľ":{"ha":703,"x_min":0,"x_max":0,"o":"m 67 0 l 613 0 l 625 69 l 156 69 l 318 983 l 240 983 z m 413 725 l 475 725 l 626 983 l 549 983 z "},"ľ":{"ha":393,"x_min":0,"x_max":0,"o":"m 138 0 l 322 1050 l 247 1050 l 63 0 z m 572 983 l 493 983 l 358 725 l 421 725 z "},"Ŀ":{"ha":703,"x_min":0,"x_max":0,"o":"m 613 0 l 625 69 l 156 69 l 318 983 l 240 983 l 67 0 z m 467 404 b 507 422 482 404 496 410 b 524 463 518 433 524 447 b 508 502 524 479 519 492 b 471 517 498 512 486 517 b 431 499 455 517 442 511 b 414 457 419 488 414 474 b 429 419 414 441 419 428 b 467 404 439 409 452 404 z "},"ŀ":{"ha":408,"x_min":0,"x_max":0,"o":"m 138 0 l 322 1050 l 247 1050 l 63 0 z m 382 585 b 422 602 398 585 411 591 b 439 643 433 614 439 627 b 424 683 439 660 434 673 b 386 697 413 692 401 697 b 346 680 370 697 357 691 b 329 638 335 668 329 654 b 344 599 329 622 334 609 b 382 585 355 590 367 585 z "},"Ł":{"ha":703,"x_min":0,"x_max":0,"o":"m 126 343 l 67 0 l 613 0 l 625 71 l 158 71 l 215 399 l 558 658 l 572 736 l 231 478 l 319 983 l 240 983 l 140 422 l 18 329 l 3 250 z "},"ł":{"ha":339,"x_min":0,"x_max":0,"o":"m 147 472 l 64 0 l 138 0 l 232 533 l 360 642 l 375 722 l 247 614 l 322 1050 l 249 1050 l 163 554 l 38 449 l 24 367 z "},"Ń":{"ha":1042,"x_min":0,"x_max":0,"o":"m 836 0 l 1010 983 l 931 983 l 776 110 l 774 110 l 340 983 l 240 983 l 67 0 l 146 0 l 300 882 l 304 882 l 736 0 z m 839 1261 l 742 1261 l 567 1061 l 629 1061 z "},"ń":{"ha":797,"x_min":0,"x_max":0,"o":"m 224 518 b 242 647 228 543 234 586 l 169 647 b 149 499 168 623 161 574 l 61 0 l 135 0 l 193 329 b 287 531 209 416 240 483 b 449 601 334 578 388 601 b 562 556 499 601 536 586 b 600 433 587 526 600 485 b 593 365 600 414 598 391 l 528 0 l 601 0 l 665 358 b 674 443 671 389 674 417 b 619 606 674 513 656 568 b 464 664 583 645 531 664 b 327 624 416 664 370 650 b 226 518 284 597 250 562 z m 657 983 l 560 983 l 385 783 l 447 783 z "},"Ņ":{"ha":1042,"x_min":0,"x_max":0,"o":"m 836 0 l 1010 983 l 931 983 l 776 110 l 774 110 l 340 983 l 240 983 l 67 0 l 146 0 l 300 882 l 304 882 l 736 0 z m 506 -62 l 426 -62 l 292 -321 l 354 -321 z "},"ņ":{"ha":797,"x_min":0,"x_max":0,"o":"m 224 518 b 242 647 228 543 234 586 l 169 647 b 149 499 168 623 161 574 l 61 0 l 135 0 l 193 329 b 287 531 209 416 240 483 b 449 601 334 578 388 601 b 562 556 499 601 536 586 b 600 433 587 526 600 485 b 593 365 600 414 598 391 l 528 0 l 601 0 l 665 358 b 674 443 671 389 674 417 b 619 606 674 513 656 568 b 464 664 583 645 531 664 b 327 624 416 664 370 650 b 226 518 284 597 250 562 z m 389 -62 l 310 -62 l 175 -321 l 238 -321 z "},"Ň":{"ha":1042,"x_min":0,"x_max":0,"o":"m 836 0 l 1010 983 l 931 983 l 776 110 l 774 110 l 340 983 l 240 983 l 67 0 l 146 0 l 300 882 l 304 882 l 736 0 z m 674 1061 l 858 1261 l 782 1261 l 632 1101 l 542 1261 l 472 1261 l 583 1061 z "},"ň":{"ha":797,"x_min":0,"x_max":0,"o":"m 224 518 b 242 647 228 543 234 586 l 169 647 b 149 499 168 623 161 574 l 61 0 l 135 0 l 193 329 b 287 531 209 416 240 483 b 449 601 334 578 388 601 b 562 556 499 601 536 586 b 600 433 587 526 600 485 b 593 365 600 414 598 391 l 528 0 l 601 0 l 665 358 b 674 443 671 389 674 417 b 619 606 674 513 656 568 b 464 664 583 645 531 664 b 327 624 416 664 370 650 b 226 518 284 597 250 562 z m 494 783 l 679 983 l 603 983 l 453 824 l 363 983 l 293 983 l 404 783 z "},"ŉ":{"ha":797,"x_min":0,"x_max":0,"o":"m 224 518 b 242 647 228 543 234 586 l 169 647 b 149 499 168 623 161 574 l 61 0 l 135 0 l 193 329 b 287 531 209 416 240 483 b 449 601 334 578 388 601 b 562 556 499 601 536 586 b 600 433 587 526 600 485 b 593 365 600 414 598 391 l 528 0 l 601 0 l 665 358 b 674 443 671 389 674 417 b 619 606 674 513 656 568 b 464 664 583 645 531 664 b 327 624 416 664 370 650 b 226 518 284 597 250 562 z m 331 983 l 251 983 l 117 725 l 179 725 z "},"Ŋ":{"ha":1042,"x_min":0,"x_max":0,"o":"m 67 0 l 146 0 l 300 882 l 304 882 l 758 -14 l 739 -121 b 701 -233 730 -171 717 -208 b 614 -269 684 -257 656 -269 b 563 -262 596 -269 579 -267 l 549 -325 b 615 -333 563 -331 586 -333 b 753 -278 678 -333 724 -315 b 813 -131 781 -242 801 -193 l 1010 983 l 931 983 l 781 126 l 778 126 l 340 983 l 240 983 z "},"ŋ":{"ha":797,"x_min":0,"x_max":0,"o":"m 315 -325 b 382 -333 331 -331 353 -333 b 520 -279 446 -333 492 -315 b 579 -131 548 -243 568 -194 l 671 393 b 679 463 676 426 679 450 b 622 608 679 523 660 571 b 461 664 583 645 530 664 b 328 626 414 664 369 651 b 226 518 286 600 252 564 l 224 518 b 242 647 228 543 234 586 l 169 647 b 149 499 168 623 161 574 l 61 0 l 135 0 l 193 329 b 288 530 209 415 240 482 b 446 601 335 578 388 601 b 600 444 549 601 600 549 b 593 365 598 408 596 382 l 507 -121 b 468 -232 498 -170 485 -207 b 382 -269 451 -257 423 -269 b 331 -262 364 -269 347 -267 z "},"Ō":{"ha":1174,"x_min":0,"x_max":0,"o":"m 1019 576 b 960 316 1019 484 1000 397 b 788 119 920 235 863 169 b 536 43 713 68 629 43 b 271 146 422 43 334 77 b 176 407 208 214 176 301 b 313 780 176 549 222 673 b 661 940 404 887 520 940 b 926 838 775 940 863 906 b 1019 576 988 769 1019 682 z m 94 401 b 214 92 94 274 134 170 b 533 -26 294 13 400 -26 b 827 57 642 -26 740 1 b 1031 279 915 112 982 187 b 1103 583 1079 372 1103 473 b 983 892 1103 710 1063 813 b 664 1010 904 970 797 1010 b 258 832 502 1010 366 950 b 94 401 149 713 94 570 z m 882 1119 l 893 1181 l 533 1181 l 524 1119 z "},"ō":{"ha":829,"x_min":0,"x_max":0,"o":"m 660 378 b 575 144 660 287 631 209 b 360 46 519 78 447 46 b 195 109 289 46 234 67 b 136 269 156 151 136 205 b 221 503 136 360 164 438 b 433 601 277 569 348 601 b 599 538 504 601 559 580 b 660 378 640 496 660 443 z m 58 265 b 140 61 58 182 85 114 b 356 -18 194 8 266 -18 b 628 99 467 -18 558 21 b 735 382 699 176 735 271 b 654 585 735 465 708 533 b 439 664 600 638 529 664 b 165 547 328 664 237 625 b 58 265 94 469 58 375 z m 663 842 l 674 903 l 314 903 l 304 842 z "},"Ŏ":{"ha":1174,"x_min":0,"x_max":0,"o":"m 1019 576 b 960 316 1019 484 1000 397 b 788 119 920 235 863 169 b 536 43 713 68 629 43 b 271 146 422 43 334 77 b 176 407 208 214 176 301 b 313 780 176 549 222 673 b 661 940 404 887 520 940 b 926 838 775 940 863 906 b 1019 576 988 769 1019 682 z m 94 401 b 214 92 94 274 134 170 b 533 -26 294 13 400 -26 b 827 57 642 -26 740 1 b 1031 279 915 112 982 187 b 1103 583 1079 372 1103 473 b 983 892 1103 710 1063 813 b 664 1010 904 970 797 1010 b 258 832 502 1010 366 950 b 94 401 149 713 94 570 z m 907 1257 l 857 1257 b 797 1167 847 1217 827 1187 b 690 1138 768 1147 732 1138 b 565 1257 607 1138 565 1177 l 515 1257 b 561 1123 515 1199 531 1154 b 689 1076 592 1092 634 1076 b 831 1126 744 1076 791 1093 b 907 1257 870 1159 896 1202 z "},"ŏ":{"ha":829,"x_min":0,"x_max":0,"o":"m 660 378 b 575 144 660 287 631 209 b 360 46 519 78 447 46 b 195 109 289 46 234 67 b 136 269 156 151 136 205 b 221 503 136 360 164 438 b 433 601 277 569 348 601 b 599 538 504 601 559 580 b 660 378 640 496 660 443 z m 58 265 b 140 61 58 182 85 114 b 356 -18 194 8 266 -18 b 628 99 467 -18 558 21 b 735 382 699 176 735 271 b 654 585 735 465 708 533 b 439 664 600 638 529 664 b 165 547 328 664 237 625 b 58 265 94 469 58 375 z m 686 979 l 636 979 b 576 890 626 939 606 909 b 469 860 547 870 511 860 b 344 979 386 860 344 900 l 294 979 b 340 845 294 921 310 876 b 468 799 371 814 413 799 b 610 848 523 799 570 815 b 686 979 650 881 675 925 z "},"Ő":{"ha":1174,"x_min":0,"x_max":0,"o":"m 1019 576 b 960 316 1019 484 1000 397 b 788 119 920 235 863 169 b 536 43 713 68 629 43 b 271 146 422 43 334 77 b 176 407 208 214 176 301 b 313 780 176 549 222 673 b 661 940 404 887 520 940 b 926 838 775 940 863 906 b 1019 576 988 769 1019 682 z m 94 401 b 214 92 94 274 134 170 b 533 -26 294 13 400 -26 b 827 57 642 -26 740 1 b 1031 279 915 112 982 187 b 1103 583 1079 372 1103 473 b 983 892 1103 710 1063 813 b 664 1010 904 970 797 1010 b 258 832 502 1010 366 950 b 94 401 149 713 94 570 z m 535 1061 l 600 1061 l 811 1261 l 711 1261 z m 751 1061 l 817 1061 l 1026 1261 l 926 1261 z "},"ő":{"ha":829,"x_min":0,"x_max":0,"o":"m 660 378 b 575 144 660 287 631 209 b 360 46 519 78 447 46 b 195 109 289 46 234 67 b 136 269 156 151 136 205 b 221 503 136 360 164 438 b 433 601 277 569 348 601 b 599 538 504 601 559 580 b 660 378 640 496 660 443 z m 58 265 b 140 61 58 182 85 114 b 356 -18 194 8 266 -18 b 628 99 467 -18 558 21 b 735 382 699 176 735 271 b 654 585 735 465 708 533 b 439 664 600 638 529 664 b 165 547 328 664 237 625 b 58 265 94 469 58 375 z m 317 783 l 382 783 l 593 983 l 493 983 z m 533 783 l 599 783 l 808 983 l 708 983 z "},"Ŕ":{"ha":831,"x_min":0,"x_max":0,"o":"m 718 0 l 499 476 b 709 555 584 485 654 511 b 792 757 764 599 792 666 b 708 927 792 833 764 890 b 494 983 653 965 581 983 l 240 983 l 67 0 l 144 0 l 228 471 l 418 471 l 629 0 z m 713 747 b 428 538 713 607 618 538 l 239 538 l 306 917 l 481 917 b 650 874 552 917 608 903 b 713 747 692 846 713 804 z m 711 1261 l 614 1261 l 439 1061 l 501 1061 z "},"ŕ":{"ha":467,"x_min":0,"x_max":0,"o":"m 226 518 l 224 518 b 240 647 232 572 238 615 l 169 647 b 149 499 168 623 161 574 l 61 0 l 135 0 l 193 332 b 280 524 208 413 237 478 b 433 594 323 571 374 594 b 485 589 455 594 472 593 l 501 658 b 451 664 488 662 471 664 b 323 626 405 664 362 651 b 226 518 284 600 251 564 z m 488 983 l 390 983 l 215 783 l 278 783 z "},"Ŗ":{"ha":831,"x_min":0,"x_max":0,"o":"m 718 0 l 499 476 b 709 555 584 485 654 511 b 792 757 764 599 792 666 b 708 927 792 833 764 890 b 494 983 653 965 581 983 l 240 983 l 67 0 l 144 0 l 228 471 l 418 471 l 629 0 z m 713 747 b 428 538 713 607 618 538 l 239 538 l 306 917 l 481 917 b 650 874 552 917 608 903 b 713 747 692 846 713 804 z m 415 -64 l 336 -64 l 201 -322 l 264 -322 z "},"ŗ":{"ha":467,"x_min":0,"x_max":0,"o":"m 226 518 l 224 518 b 240 647 232 572 238 615 l 169 647 b 149 499 168 623 161 574 l 61 0 l 135 0 l 193 332 b 280 524 208 413 237 478 b 433 594 323 571 374 594 b 485 589 455 594 472 593 l 501 658 b 451 664 488 662 471 664 b 323 626 405 664 362 651 b 226 518 284 600 251 564 z m 163 -64 l 83 -64 l -51 -322 l 11 -322 z "},"Ř":{"ha":831,"x_min":0,"x_max":0,"o":"m 718 0 l 499 476 b 709 555 584 485 654 511 b 792 757 764 599 792 666 b 708 927 792 833 764 890 b 494 983 653 965 581 983 l 240 983 l 67 0 l 144 0 l 228 471 l 418 471 l 629 0 z m 713 747 b 428 538 713 607 618 538 l 239 538 l 306 917 l 481 917 b 650 874 552 917 608 903 b 713 747 692 846 713 804 z m 543 1061 l 728 1261 l 651 1261 l 501 1101 l 411 1261 l 342 1261 l 453 1061 z "},"ř":{"ha":467,"x_min":0,"x_max":0,"o":"m 226 518 l 224 518 b 240 647 232 572 238 615 l 169 647 b 149 499 168 623 161 574 l 61 0 l 135 0 l 193 332 b 280 524 208 413 237 478 b 433 594 323 571 374 594 b 485 589 455 594 472 593 l 501 658 b 451 664 488 662 471 664 b 323 626 405 664 362 651 b 226 518 284 600 251 564 z m 386 783 l 571 983 l 494 983 l 344 824 l 254 983 l 185 983 l 296 783 z "},"Ś":{"ha":786,"x_min":0,"x_max":0,"o":"m 764 893 b 661 978 742 928 707 956 b 496 1010 615 999 560 1010 b 247 928 394 1010 311 983 b 150 718 182 874 150 804 b 196 584 150 664 165 620 b 306 503 226 548 263 521 b 435 450 349 484 392 467 b 546 381 478 433 515 410 b 592 268 576 351 592 313 b 517 105 592 200 567 146 b 331 43 467 64 405 43 b 92 160 228 43 148 82 l 32 115 b 153 11 60 71 100 36 b 325 -26 206 -14 263 -26 b 483 1 384 -26 437 -17 b 593 72 530 19 566 43 b 654 170 620 102 640 134 b 675 281 668 206 675 243 b 651 383 675 319 667 354 b 588 455 634 413 613 437 b 501 503 562 473 533 489 b 407 544 470 518 438 531 b 321 586 375 557 347 571 b 258 644 295 601 274 620 b 233 728 241 669 233 696 b 313 885 233 796 260 849 b 492 940 365 922 425 940 b 704 846 583 940 654 909 z m 704 1261 l 607 1261 l 432 1061 l 494 1061 z "},"ś":{"ha":599,"x_min":0,"x_max":0,"o":"m 8 90 b 249 -17 65 19 145 -17 b 421 35 315 -17 373 1 b 493 182 469 70 493 119 b 448 293 493 228 478 265 b 304 365 418 321 370 345 b 202 410 256 380 222 395 b 172 481 182 425 172 448 b 219 569 172 519 188 548 b 333 601 251 591 289 601 b 493 526 405 601 458 576 l 549 567 b 467 637 532 595 505 619 b 339 664 429 655 386 664 b 172 615 275 664 219 648 b 100 475 124 583 100 536 b 144 370 100 430 115 395 b 274 306 173 346 216 324 b 384 252 325 289 361 271 b 418 174 407 233 418 207 b 370 81 418 134 402 103 b 251 47 338 58 299 47 b 64 136 173 47 110 77 z m 574 983 l 476 983 l 301 783 l 364 783 z "},"Ŝ":{"ha":786,"x_min":0,"x_max":0,"o":"m 764 893 b 661 978 742 928 707 956 b 496 1010 615 999 560 1010 b 247 928 394 1010 311 983 b 150 718 182 874 150 804 b 196 584 150 664 165 620 b 306 503 226 548 263 521 b 435 450 349 484 392 467 b 546 381 478 433 515 410 b 592 268 576 351 592 313 b 517 105 592 200 567 146 b 331 43 467 64 405 43 b 92 160 228 43 148 82 l 32 115 b 153 11 60 71 100 36 b 325 -26 206 -14 263 -26 b 483 1 384 -26 437 -17 b 593 72 530 19 566 43 b 654 170 620 102 640 134 b 675 281 668 206 675 243 b 651 383 675 319 667 354 b 588 455 634 413 613 437 b 501 503 562 473 533 489 b 407 544 470 518 438 531 b 321 586 375 557 347 571 b 258 644 295 601 274 620 b 233 728 241 669 233 696 b 313 885 233 796 260 849 b 492 940 365 922 425 940 b 704 846 583 940 654 909 z m 508 1261 l 322 1061 l 400 1061 l 549 1221 l 640 1061 l 710 1061 l 599 1261 z "},"ŝ":{"ha":599,"x_min":0,"x_max":0,"o":"m 8 90 b 249 -17 65 19 145 -17 b 421 35 315 -17 373 1 b 493 182 469 70 493 119 b 448 293 493 228 478 265 b 304 365 418 321 370 345 b 202 410 256 380 222 395 b 172 481 182 425 172 448 b 219 569 172 519 188 548 b 333 601 251 591 289 601 b 493 526 405 601 458 576 l 549 567 b 467 637 532 595 505 619 b 339 664 429 655 386 664 b 172 615 275 664 219 648 b 100 475 124 583 100 536 b 144 370 100 430 115 395 b 274 306 173 346 216 324 b 384 252 325 289 361 271 b 418 174 407 233 418 207 b 370 81 418 134 402 103 b 251 47 338 58 299 47 b 64 136 173 47 110 77 z m 369 983 l 183 783 l 261 783 l 410 943 l 501 783 l 571 783 l 460 983 z "},"Ş":{"ha":786,"x_min":0,"x_max":0,"o":"m 276 -318 b 393 -287 321 -318 360 -308 b 443 -192 426 -266 443 -234 b 411 -123 443 -160 432 -137 b 338 -101 390 -109 365 -101 b 286 -108 318 -101 301 -104 l 354 -25 b 593 73 459 -19 538 13 b 675 281 648 133 675 202 b 651 383 675 319 667 354 b 588 455 634 413 613 437 b 501 503 562 473 533 489 b 407 544 470 518 438 531 b 321 586 375 557 347 571 b 258 644 295 601 274 620 b 233 728 241 669 233 696 b 313 885 233 796 260 849 b 492 940 365 922 425 940 b 704 846 583 940 654 909 l 764 893 b 661 978 742 928 707 956 b 496 1010 615 999 560 1010 b 247 928 394 1010 311 983 b 150 718 182 874 150 804 b 196 584 150 664 165 620 b 306 503 226 548 263 521 b 435 450 349 484 392 467 b 546 381 478 433 515 410 b 592 268 576 351 592 313 b 517 105 592 200 567 146 b 331 43 467 64 405 43 b 92 160 228 43 148 82 l 32 115 b 142 16 57 74 94 41 b 303 -25 191 -9 244 -22 l 213 -137 l 231 -156 b 304 -142 254 -146 278 -142 b 357 -156 325 -142 343 -146 b 378 -197 371 -165 378 -179 b 348 -251 378 -220 368 -238 b 272 -269 328 -263 303 -269 b 165 -247 230 -269 194 -262 l 144 -290 b 276 -318 181 -309 225 -318 z "},"ş":{"ha":599,"x_min":0,"x_max":0,"o":"m 194 -318 b 311 -287 239 -318 278 -308 b 361 -192 344 -266 361 -234 b 329 -123 361 -160 350 -137 b 256 -101 308 -109 283 -101 b 204 -108 236 -101 219 -104 l 282 -14 b 432 45 341 -8 391 11 b 493 182 473 79 493 125 b 448 293 493 228 478 265 b 304 365 418 321 370 345 b 202 410 256 380 222 395 b 172 481 182 425 172 448 b 219 569 172 519 188 548 b 333 601 251 591 289 601 b 493 526 405 601 458 576 l 549 567 b 467 637 532 595 505 619 b 339 664 429 655 386 664 b 172 615 275 664 219 648 b 100 475 124 583 100 536 b 144 370 100 430 115 395 b 274 306 173 346 216 324 b 384 252 325 289 361 271 b 418 174 407 233 418 207 b 370 81 418 134 402 103 b 251 47 338 58 299 47 b 64 136 173 47 110 77 l 8 90 b 229 -17 60 24 134 -12 l 131 -137 l 149 -156 b 222 -142 172 -146 196 -142 b 275 -156 244 -142 261 -146 b 296 -197 289 -165 296 -179 b 266 -251 296 -220 286 -238 b 190 -269 246 -263 221 -269 b 83 -247 148 -269 112 -262 l 63 -290 b 194 -318 100 -309 144 -318 z "},"Ţ":{"ha":746,"x_min":0,"x_max":0,"o":"m 829 914 l 842 983 l 101 983 l 89 914 l 421 914 l 260 0 l 338 0 l 500 914 z m 360 -62 l 281 -62 l 146 -321 l 208 -321 z "},"ţ":{"ha":421,"x_min":0,"x_max":0,"o":"m 432 647 l 254 647 l 286 832 l 213 832 l 179 647 l 43 647 l 32 585 l 169 585 l 94 161 b 90 111 92 145 90 129 b 128 18 90 69 103 38 b 224 -11 154 -1 186 -11 b 321 7 263 -11 295 -5 l 329 71 b 253 53 310 59 284 53 b 167 131 195 53 167 79 b 172 178 167 142 169 157 l 244 585 l 419 585 z m 261 -62 l 182 -62 l 47 -321 l 110 -321 z "},"Ť":{"ha":746,"x_min":0,"x_max":0,"o":"m 829 914 l 842 983 l 101 983 l 89 914 l 421 914 l 260 0 l 338 0 l 500 914 z m 528 1061 l 713 1261 l 636 1261 l 486 1101 l 396 1261 l 326 1261 l 438 1061 z "},"ť":{"ha":435,"x_min":0,"x_max":0,"o":"m 224 -11 b 321 7 263 -11 295 -5 l 329 71 b 253 53 310 59 284 53 b 167 131 195 53 167 79 b 172 178 167 142 169 157 l 244 585 l 419 585 l 432 647 l 254 647 l 286 832 l 213 832 l 179 647 l 43 647 l 32 585 l 169 585 l 94 161 b 90 111 92 145 90 129 b 128 18 90 69 103 38 b 224 -11 154 -1 186 -11 z m 586 1015 l 507 1015 l 372 757 l 435 757 z "},"Ŧ":{"ha":768,"x_min":0,"x_max":0,"o":"m 722 699 l 732 756 l 482 756 l 510 914 l 840 914 l 853 983 l 111 983 l 99 914 l 432 914 l 403 756 l 154 756 l 144 699 l 393 699 l 269 0 l 349 0 l 472 699 z "},"ŧ":{"ha":421,"x_min":0,"x_max":0,"o":"m 224 -11 b 321 7 263 -11 295 -5 l 329 71 b 253 53 310 59 284 53 b 167 131 195 53 167 79 b 172 178 167 142 169 157 l 204 365 l 365 365 l 375 421 l 214 421 l 244 585 l 419 585 l 432 647 l 254 647 l 286 832 l 213 832 l 179 647 l 43 647 l 32 585 l 169 585 l 140 421 l 28 421 l 18 365 l 131 365 l 94 161 b 90 111 92 145 90 129 b 128 18 90 69 103 38 b 224 -11 154 -1 186 -11 z "},"Ũ":{"ha":989,"x_min":0,"x_max":0,"o":"m 965 983 l 888 983 l 781 378 b 747 254 772 331 761 290 b 690 149 733 218 714 183 b 591 71 665 116 632 89 b 446 43 550 52 501 43 b 257 106 362 43 299 64 b 194 283 215 147 194 206 b 204 379 194 308 198 340 l 310 983 l 232 983 l 128 386 b 118 281 121 351 118 316 b 202 53 118 182 146 107 b 442 -26 258 0 338 -26 b 622 8 510 -26 570 -15 b 746 104 674 31 715 63 b 817 228 776 145 800 186 b 857 368 834 271 848 317 z m 633 1182 b 542 1215 595 1204 565 1215 b 406 1085 480 1215 434 1172 l 454 1085 b 531 1154 472 1131 497 1154 b 615 1122 546 1154 575 1143 b 707 1089 656 1100 687 1089 b 843 1218 768 1089 813 1132 l 794 1218 b 718 1150 776 1173 750 1150 b 633 1182 700 1150 671 1161 z "},"ũ":{"ha":797,"x_min":0,"x_max":0,"o":"m 300 -18 b 433 21 346 -18 391 -5 b 535 128 475 47 509 82 l 538 128 b 519 0 532 99 526 56 l 592 0 b 613 149 594 41 601 90 l 700 647 l 626 647 l 568 318 b 474 117 552 231 521 164 b 314 46 426 69 373 46 b 161 207 212 46 161 100 b 168 281 161 226 163 251 l 233 647 l 160 647 l 94 281 b 86 194 89 249 86 220 b 141 36 86 125 104 72 b 300 -18 178 0 231 -18 z m 476 904 b 385 938 438 926 408 938 b 249 807 323 938 277 894 l 297 807 b 374 876 315 853 340 876 b 458 844 389 876 418 866 b 550 811 499 822 530 811 b 686 940 611 811 656 854 l 638 940 b 561 872 619 895 594 872 b 476 904 543 872 514 883 z "},"Ū":{"ha":989,"x_min":0,"x_max":0,"o":"m 965 983 l 888 983 l 781 378 b 747 254 772 331 761 290 b 690 149 733 218 714 183 b 591 71 665 116 632 89 b 446 43 550 52 501 43 b 257 106 362 43 299 64 b 194 283 215 147 194 206 b 204 379 194 308 198 340 l 310 983 l 232 983 l 128 386 b 118 281 121 351 118 316 b 202 53 118 182 146 107 b 442 -26 258 0 338 -26 b 622 8 510 -26 570 -15 b 746 104 674 31 715 63 b 817 228 776 145 800 186 b 857 368 834 271 848 317 z m 797 1119 l 808 1181 l 449 1181 l 439 1119 z "},"ū":{"ha":797,"x_min":0,"x_max":0,"o":"m 300 -18 b 433 21 346 -18 391 -5 b 535 128 475 47 509 82 l 538 128 b 519 0 532 99 526 56 l 592 0 b 613 149 594 41 601 90 l 700 647 l 626 647 l 568 318 b 474 117 552 231 521 164 b 314 46 426 69 373 46 b 161 207 212 46 161 100 b 168 281 161 226 163 251 l 233 647 l 160 647 l 94 281 b 86 194 89 249 86 220 b 141 36 86 125 104 72 b 300 -18 178 0 231 -18 z m 639 842 l 650 903 l 290 903 l 281 842 z "},"Ŭ":{"ha":989,"x_min":0,"x_max":0,"o":"m 965 983 l 888 983 l 781 378 b 747 254 772 331 761 290 b 690 149 733 218 714 183 b 591 71 665 116 632 89 b 446 43 550 52 501 43 b 257 106 362 43 299 64 b 194 283 215 147 194 206 b 204 379 194 308 198 340 l 310 983 l 232 983 l 128 386 b 118 281 121 351 118 316 b 202 53 118 182 146 107 b 442 -26 258 0 338 -26 b 622 8 510 -26 570 -15 b 746 104 674 31 715 63 b 817 228 776 145 800 186 b 857 368 834 271 848 317 z m 825 1257 l 775 1257 b 715 1167 765 1217 745 1187 b 608 1138 686 1147 650 1138 b 483 1257 525 1138 483 1177 l 433 1257 b 479 1123 433 1199 449 1154 b 607 1076 510 1092 552 1076 b 749 1126 662 1076 709 1093 b 825 1257 788 1159 814 1202 z "},"ŭ":{"ha":797,"x_min":0,"x_max":0,"o":"m 300 -18 b 433 21 346 -18 391 -5 b 535 128 475 47 509 82 l 538 128 b 519 0 532 99 526 56 l 592 0 b 613 149 594 41 601 90 l 700 647 l 626 647 l 568 318 b 474 117 552 231 521 164 b 314 46 426 69 373 46 b 161 207 212 46 161 100 b 168 281 161 226 163 251 l 233 647 l 160 647 l 94 281 b 86 194 89 249 86 220 b 141 36 86 125 104 72 b 300 -18 178 0 231 -18 z m 665 979 l 615 979 b 556 890 605 939 585 909 b 449 860 526 870 490 860 b 324 979 365 860 324 900 l 274 979 b 319 845 274 921 289 876 b 447 799 350 814 393 799 b 589 848 502 799 549 815 b 665 979 629 881 654 925 z "},"Ů":{"ha":989,"x_min":0,"x_max":0,"o":"m 965 983 l 888 983 l 781 378 b 747 254 772 331 761 290 b 690 149 733 218 714 183 b 591 71 665 116 632 89 b 446 43 550 52 501 43 b 257 106 362 43 299 64 b 194 283 215 147 194 206 b 204 379 194 308 198 340 l 310 983 l 232 983 l 128 386 b 118 281 121 351 118 316 b 202 53 118 182 146 107 b 442 -26 258 0 338 -26 b 622 8 510 -26 570 -15 b 746 104 674 31 715 63 b 817 228 776 145 800 186 b 857 368 834 271 848 317 z m 718 1201 b 688 1118 718 1169 708 1141 b 614 1083 668 1095 644 1083 b 557 1106 590 1083 571 1091 b 536 1161 543 1120 536 1139 b 565 1244 536 1194 546 1221 b 640 1279 585 1268 610 1279 b 697 1257 664 1279 683 1272 b 718 1201 711 1242 718 1224 z m 494 1158 b 526 1078 494 1126 505 1099 b 611 1047 548 1058 576 1047 b 717 1093 654 1047 689 1063 b 760 1203 746 1124 760 1160 b 728 1283 760 1236 749 1263 b 642 1314 706 1304 678 1314 b 536 1268 599 1314 564 1299 b 494 1158 508 1238 494 1201 z "},"ů":{"ha":797,"x_min":0,"x_max":0,"o":"m 300 -18 b 433 21 346 -18 391 -5 b 535 128 475 47 509 82 l 538 128 b 519 0 532 99 526 56 l 592 0 b 613 149 594 41 601 90 l 700 647 l 626 647 l 568 318 b 474 117 552 231 521 164 b 314 46 426 69 373 46 b 161 207 212 46 161 100 b 168 281 161 226 163 251 l 233 647 l 160 647 l 94 281 b 86 194 89 249 86 220 b 141 36 86 125 104 72 b 300 -18 178 0 231 -18 z m 561 924 b 531 840 561 891 551 863 b 457 806 511 817 487 806 b 400 828 433 806 414 813 b 379 883 386 843 379 861 b 408 967 379 916 389 944 b 483 1001 428 990 453 1001 b 540 979 507 1001 526 994 b 561 924 554 964 561 946 z m 338 881 b 369 801 338 848 348 822 b 454 769 391 780 419 769 b 560 815 497 769 532 785 b 603 925 589 846 603 882 b 571 1006 603 958 592 985 b 485 1036 550 1026 521 1036 b 379 990 442 1036 407 1021 b 338 881 351 960 338 923 z "},"Ű":{"ha":989,"x_min":0,"x_max":0,"o":"m 965 983 l 888 983 l 781 378 b 747 254 772 331 761 290 b 690 149 733 218 714 183 b 591 71 665 116 632 89 b 446 43 550 52 501 43 b 257 106 362 43 299 64 b 194 283 215 147 194 206 b 204 379 194 308 198 340 l 310 983 l 232 983 l 128 386 b 118 281 121 351 118 316 b 202 53 118 182 146 107 b 442 -26 258 0 338 -26 b 622 8 510 -26 570 -15 b 746 104 674 31 715 63 b 817 228 776 145 800 186 b 857 368 834 271 848 317 z m 456 1061 l 521 1061 l 732 1261 l 632 1261 z m 672 1061 l 738 1061 l 947 1261 l 847 1261 z "},"ű":{"ha":797,"x_min":0,"x_max":0,"o":"m 300 -18 b 433 21 346 -18 391 -5 b 535 128 475 47 509 82 l 538 128 b 519 0 532 99 526 56 l 592 0 b 613 149 594 41 601 90 l 700 647 l 626 647 l 568 318 b 474 117 552 231 521 164 b 314 46 426 69 373 46 b 161 207 212 46 161 100 b 168 281 161 226 163 251 l 233 647 l 160 647 l 94 281 b 86 194 89 249 86 220 b 141 36 86 125 104 72 b 300 -18 178 0 231 -18 z m 297 783 l 363 783 l 574 983 l 474 983 z m 514 783 l 579 783 l 789 983 l 689 983 z "},"Ų":{"ha":989,"x_min":0,"x_max":0,"o":"m 546 -217 b 461 -250 522 -239 494 -250 b 397 -196 419 -250 397 -232 b 426 -118 397 -171 407 -145 b 519 -19 446 -91 477 -58 b 857 368 704 8 816 138 l 965 983 l 888 983 l 781 378 b 747 254 772 331 761 290 b 690 149 733 218 714 183 b 591 71 665 116 632 89 b 446 43 550 52 501 43 b 256 111 360 43 296 66 b 194 288 215 156 194 215 b 204 379 194 304 197 335 l 310 983 l 232 983 l 125 372 b 115 274 119 343 115 310 b 197 59 115 188 142 116 b 442 -26 251 2 332 -26 l 453 -26 b 328 -217 369 -93 328 -156 b 359 -286 328 -247 338 -270 b 436 -310 380 -302 406 -310 b 560 -261 481 -310 522 -294 z "},"ų":{"ha":797,"x_min":0,"x_max":0,"o":"m 467 -310 b 590 -261 511 -310 552 -294 l 576 -217 b 492 -250 552 -239 524 -250 b 428 -196 449 -250 428 -232 b 463 -111 428 -169 439 -141 b 574 0 486 -81 523 -44 l 592 1 b 613 149 597 55 604 104 l 700 647 l 626 647 l 568 318 b 474 117 552 231 521 164 b 314 46 426 69 373 46 b 161 203 212 46 161 98 b 168 281 161 225 163 251 l 233 647 l 160 647 l 89 254 b 82 183 84 232 82 208 b 140 38 82 123 101 75 b 300 -18 178 0 231 -18 b 433 21 346 -18 391 -5 b 535 128 475 47 509 82 l 538 128 b 519 0 533 107 527 65 l 518 0 b 401 -108 468 -38 429 -74 b 358 -217 372 -141 358 -178 b 390 -286 358 -247 369 -270 b 467 -310 410 -302 436 -310 z "},"Ŵ":{"ha":1326,"x_min":0,"x_max":0,"o":"m 1424 983 l 1340 983 l 910 106 l 907 106 l 826 983 l 728 983 l 296 106 l 293 106 l 214 983 l 131 983 l 226 0 l 322 0 l 758 878 l 761 878 l 840 0 l 936 0 z m 782 1261 l 596 1061 l 674 1061 l 822 1221 l 914 1061 l 983 1061 l 872 1261 z "},"ŵ":{"ha":1001,"x_min":0,"x_max":0,"o":"m 1010 647 l 929 647 l 657 94 l 653 94 l 575 647 l 500 647 l 208 94 l 206 94 l 160 647 l 82 647 l 147 0 l 229 0 l 519 550 l 522 550 l 597 0 l 681 0 z m 553 983 l 367 783 l 444 783 l 593 943 l 685 783 l 754 783 l 643 983 z "},"Ŷ":{"ha":756,"x_min":0,"x_max":0,"o":"m 878 983 l 781 983 l 378 492 l 178 983 l 86 983 l 329 425 l 253 0 l 332 0 l 407 425 z m 482 1261 l 296 1061 l 374 1061 l 522 1221 l 614 1061 l 683 1061 l 572 1261 z "},"ŷ":{"ha":649,"x_min":0,"x_max":0,"o":"m -19 -335 b 90 -297 23 -335 60 -322 b 182 -181 121 -271 151 -232 l 667 647 l 585 647 l 263 76 l 260 76 l 150 647 l 71 647 l 207 -4 l 124 -150 b 58 -238 102 -189 80 -218 b -22 -268 35 -258 8 -268 b -81 -260 -44 -268 -64 -265 l -92 -325 b -19 -335 -66 -331 -42 -335 z m 381 983 l 194 783 l 272 783 l 421 943 l 513 783 l 582 783 l 471 983 z "},"Ź":{"ha":804,"x_min":0,"x_max":0,"o":"m 686 0 l 699 69 l 93 69 l 839 913 l 851 983 l 178 983 l 165 914 l 740 914 l -6 69 l -18 0 z m 724 1261 l 626 1261 l 451 1061 l 514 1061 z "},"ź":{"ha":608,"x_min":0,"x_max":0,"o":"m 490 0 l 501 65 l 89 65 l 579 590 l 590 647 l 114 647 l 103 583 l 479 583 l -11 56 l -21 0 z m 571 983 l 474 983 l 299 783 l 361 783 z "},"Ż":{"ha":804,"x_min":0,"x_max":0,"o":"m 686 0 l 699 69 l 93 69 l 839 913 l 851 983 l 178 983 l 165 914 l 740 914 l -6 69 l -18 0 z m 539 1126 b 579 1144 555 1126 568 1132 b 596 1185 590 1155 596 1169 b 581 1224 596 1201 591 1215 b 543 1239 570 1234 558 1239 b 503 1222 527 1239 514 1233 b 486 1179 492 1210 486 1196 b 501 1141 486 1163 491 1151 b 539 1126 512 1131 524 1126 z "},"ż":{"ha":608,"x_min":0,"x_max":0,"o":"m 490 0 l 501 65 l 89 65 l 579 590 l 590 647 l 114 647 l 103 583 l 479 583 l -11 56 l -21 0 z m 386 849 b 426 866 402 849 415 854 b 443 907 438 878 443 891 b 428 947 443 924 438 937 b 390 961 418 956 405 961 b 350 944 375 961 361 955 b 333 901 339 932 333 918 b 349 863 333 886 338 873 b 386 849 359 853 371 849 z "},"ƒ":{"ha":797,"x_min":0,"x_max":0,"o":"m 804 964 b 690 1000 775 988 737 1000 b 453 789 582 1000 503 930 l 378 578 l 214 578 l 203 517 l 354 517 l 179 28 b 119 -86 163 -20 143 -58 b 25 -128 96 -114 65 -128 b -43 -111 -1 -128 -24 -122 l -86 -167 b 13 -194 -64 -185 -31 -194 b 160 -140 75 -194 124 -176 b 246 4 196 -104 225 -56 l 433 517 l 599 517 l 610 578 l 456 578 l 525 774 b 685 933 562 880 615 933 b 758 910 712 933 736 925 z "},"Ș":{"ha":786,"x_min":0,"x_max":0,"o":"m 764 893 b 661 978 742 928 707 956 b 496 1010 615 999 560 1010 b 247 928 394 1010 311 983 b 150 718 182 874 150 804 b 196 584 150 664 165 620 b 306 503 226 548 263 521 b 435 450 349 484 392 467 b 546 381 478 433 515 410 b 592 268 576 351 592 313 b 517 105 592 200 567 146 b 331 43 467 64 405 43 b 92 160 228 43 148 82 l 32 115 b 153 11 60 71 100 36 b 325 -26 206 -14 263 -26 b 483 1 384 -26 437 -17 b 593 72 530 19 566 43 b 654 170 620 102 640 134 b 675 281 668 206 675 243 b 651 383 675 319 667 354 b 588 455 634 413 613 437 b 501 503 562 473 533 489 b 407 544 470 518 438 531 b 321 586 375 557 347 571 b 258 644 295 601 274 620 b 233 728 241 669 233 696 b 313 885 233 796 260 849 b 492 940 365 922 425 940 b 704 846 583 940 654 909 z m 390 -62 l 311 -62 l 176 -321 l 239 -321 z "},"ș":{"ha":599,"x_min":0,"x_max":0,"o":"m 8 90 b 249 -17 65 19 145 -17 b 421 35 315 -17 373 1 b 493 182 469 70 493 119 b 448 293 493 228 478 265 b 304 365 418 321 370 345 b 202 410 256 380 222 395 b 172 481 182 425 172 448 b 219 569 172 519 188 548 b 333 601 251 591 289 601 b 493 526 405 601 458 576 l 549 567 b 467 637 532 595 505 619 b 339 664 429 655 386 664 b 172 615 275 664 219 648 b 100 475 124 583 100 536 b 144 370 100 430 115 395 b 274 306 173 346 216 324 b 384 252 325 289 361 271 b 418 174 407 233 418 207 b 370 81 418 134 402 103 b 251 47 338 58 299 47 b 64 136 173 47 110 77 z m 296 -62 l 217 -62 l 82 -321 l 144 -321 z "},"Ț":{"ha":746,"x_min":0,"x_max":0,"o":"m 829 914 l 842 983 l 101 983 l 89 914 l 421 914 l 260 0 l 338 0 l 500 914 z m 360 -62 l 281 -62 l 146 -321 l 208 -321 z "},"ț":{"ha":421,"x_min":0,"x_max":0,"o":"m 224 -11 b 321 7 263 -11 295 -5 l 329 71 b 253 53 310 59 284 53 b 167 131 195 53 167 79 b 172 178 167 142 169 157 l 244 585 l 419 585 l 432 647 l 254 647 l 286 832 l 213 832 l 179 647 l 43 647 l 32 585 l 169 585 l 94 161 b 90 111 92 145 90 129 b 128 18 90 69 103 38 b 224 -11 154 -1 186 -11 z m 47 -321 l 110 -321 l 261 -62 l 182 -62 z "},"ȷ":{"ha":339,"x_min":0,"x_max":0,"o":"m 114 -131 l 251 647 l 178 647 l 42 -121 b 3 -232 32 -170 19 -207 b -83 -269 -14 -257 -43 -269 b -135 -262 -101 -269 -118 -267 l -149 -325 b -82 -333 -134 -331 -112 -333 b 56 -279 -18 -333 28 -315 b 114 -131 83 -243 103 -194 z "},"ˆ":{"ha":333,"x_min":0,"x_max":0,"o":"m 226 983 l 40 783 l 118 783 l 267 943 l 358 783 l 428 783 l 317 983 z "},"ˇ":{"ha":333,"x_min":0,"x_max":0,"o":"m 278 783 l 463 983 l 386 983 l 236 824 l 146 983 l 76 983 l 188 783 z "},"ˉ":{"ha":333,"x_min":0,"x_max":0,"o":"m 425 1119 l 436 1181 l 76 1181 l 67 1119 z "},"˘":{"ha":333,"x_min":0,"x_max":0,"o":"m 467 979 l 417 979 b 357 890 406 939 387 909 b 250 860 327 870 292 860 b 125 979 167 860 125 900 l 75 979 b 121 845 75 921 90 876 b 249 799 151 814 194 799 b 390 848 303 799 350 815 b 467 979 430 881 456 925 z "},"˙":{"ha":333,"x_min":0,"x_max":0,"o":"m 256 849 b 296 866 271 849 285 854 b 313 907 307 878 313 891 b 297 947 313 924 307 937 b 260 961 287 956 275 961 b 219 944 244 961 231 955 b 203 901 208 932 203 918 b 218 863 203 886 208 873 b 256 849 228 853 241 849 z "},"˚":{"ha":333,"x_min":0,"x_max":0,"o":"m 350 924 b 320 840 350 891 340 863 b 246 806 300 817 275 806 b 189 828 222 806 203 813 b 168 883 175 843 168 861 b 197 967 168 916 178 944 b 272 1001 217 990 242 1001 b 329 979 296 1001 315 994 b 350 924 343 964 350 946 z m 126 881 b 158 801 126 848 137 822 b 243 769 180 780 208 769 b 349 815 286 769 321 785 b 392 925 378 846 392 882 b 360 1006 392 958 381 985 b 274 1036 338 1026 310 1036 b 168 990 231 1036 196 1021 b 126 881 140 960 126 923 z "},"˛":{"ha":333,"x_min":0,"x_max":0,"o":"m 161 -217 b 76 -250 137 -239 109 -250 b 13 -196 34 -250 13 -232 b 47 -111 13 -169 24 -141 b 158 0 70 -81 107 -44 l 103 0 b -15 -107 53 -37 14 -73 b -57 -217 -43 -141 -57 -178 b -26 -286 -57 -247 -47 -270 b 51 -310 -5 -302 21 -310 b 175 -261 96 -310 137 -294 z "},"˜":{"ha":333,"x_min":0,"x_max":0,"o":"m 261 904 b 169 938 223 926 193 938 b 33 807 107 938 62 894 l 82 807 b 158 876 100 853 125 876 b 243 844 174 876 202 866 b 335 811 284 822 314 811 b 471 940 396 811 441 854 l 422 940 b 346 872 404 895 378 872 b 261 904 327 872 299 883 z "},"˝":{"ha":333,"x_min":0,"x_max":0,"o":"m 21 783 l 86 783 l 297 983 l 197 983 z m 238 783 l 303 783 l 513 983 l 413 983 z "},"Δ":{"ha":925,"x_min":0,"x_max":0,"o":"m 897 0 l 503 989 l 418 989 l 31 0 z m 792 68 l 131 68 l 460 915 z "},"Ω":{"ha":1031,"x_min":0,"x_max":0,"o":"m 507 933 b 764 832 609 933 694 900 b 868 578 833 764 868 680 b 801 357 868 492 846 418 b 611 243 757 296 694 258 l 611 0 l 942 0 l 942 65 l 671 65 l 671 196 b 870 338 756 220 822 267 b 942 581 918 408 942 489 b 815 881 942 701 899 801 b 508 1001 730 961 628 1001 b 201 881 389 1001 287 961 b 74 579 116 800 74 700 b 146 338 74 488 98 408 b 344 196 194 267 260 220 l 344 65 l 74 65 l 74 0 l 404 0 l 404 243 b 214 356 322 257 258 294 b 147 578 169 417 147 491 b 251 832 147 680 182 764 b 507 933 321 900 406 933 z "},"μ":{"ha":772,"x_min":0,"x_max":0,"o":"m 110 647 l 110 -317 l 182 -317 l 182 46 b 350 -18 222 3 278 -18 b 483 22 396 -18 441 -5 b 578 124 526 49 557 83 l 581 124 l 581 0 l 660 0 b 654 149 656 59 654 109 l 654 647 l 581 647 l 581 318 b 520 121 581 235 560 169 b 367 49 480 73 429 49 b 224 107 299 49 251 68 b 182 281 196 146 182 204 l 182 647 z "},"π":{"ha":779,"x_min":0,"x_max":0,"o":"m 726 13 l 726 65 b 672 54 709 58 691 54 b 625 74 648 54 632 61 b 614 136 618 88 614 108 l 614 581 l 719 581 l 719 647 l 49 647 l 49 581 l 147 581 l 147 0 l 218 0 l 218 581 l 543 581 l 543 147 b 544 97 543 125 543 108 b 550 56 544 85 546 71 b 565 21 554 40 559 28 b 594 1 572 13 581 7 b 643 -8 607 -5 624 -8 b 726 13 668 -8 696 -1 z "},"Ѐ":{"ha":810,"x_min":0,"x_max":0,"o":"m 681 0 l 693 69 l 157 69 l 229 478 l 707 478 l 718 544 l 240 544 l 306 914 l 804 914 l 817 983 l 240 983 l 67 0 z m 372 1261 l 547 1061 l 611 1061 l 469 1261 z "},"Ё":{"ha":810,"x_min":0,"x_max":0,"o":"m 488 1185 b 472 1225 488 1201 482 1215 b 433 1240 462 1235 449 1240 b 392 1222 418 1240 404 1234 b 375 1179 381 1210 375 1196 b 391 1139 375 1163 380 1149 b 431 1124 402 1129 415 1124 b 471 1142 446 1124 460 1130 b 488 1185 482 1154 488 1168 z m 743 1185 b 727 1225 743 1201 738 1215 b 688 1240 716 1235 703 1240 b 647 1223 672 1240 658 1234 b 631 1179 636 1211 631 1197 b 646 1139 631 1163 636 1149 b 685 1124 656 1129 669 1124 b 726 1142 700 1124 714 1130 b 743 1185 737 1154 743 1168 z m 67 0 l 681 0 l 693 69 l 157 69 l 229 478 l 707 478 l 718 544 l 240 544 l 306 914 l 804 914 l 817 983 l 240 983 z "},"Ђ":{"ha":1071,"x_min":0,"x_max":0,"o":"m 589 -12 b 881 68 714 -12 811 14 b 986 314 951 122 986 204 b 903 503 986 393 958 456 b 674 575 847 551 771 575 b 433 543 592 575 512 564 l 499 914 l 829 914 l 842 983 l 101 983 l 88 914 l 419 914 l 260 0 l 338 0 l 421 472 b 658 507 488 495 568 507 b 906 308 823 507 906 441 b 820 124 906 230 877 168 b 593 57 763 79 688 57 b 507 65 562 57 533 60 l 494 -6 b 589 -12 520 -10 552 -12 z "},"Ѓ":{"ha":676,"x_min":0,"x_max":0,"o":"m 696 1261 l 599 1261 l 424 1061 l 486 1061 z m 67 0 l 144 0 l 306 914 l 760 914 l 772 983 l 240 983 z "},"Є":{"ha":1001,"x_min":0,"x_max":0,"o":"m 535 -26 b 908 139 687 -26 811 29 l 854 183 b 538 43 769 90 663 43 b 272 147 425 43 336 78 b 176 410 208 216 176 303 l 176 432 l 181 476 l 708 476 l 721 546 l 193 546 b 360 828 221 659 276 753 b 657 940 443 903 542 940 b 825 904 718 940 774 928 b 935 815 876 880 913 850 l 997 861 b 861 969 969 906 923 943 b 658 1010 799 996 731 1010 b 370 928 553 1010 457 982 b 167 709 284 873 216 800 b 94 410 119 618 94 518 b 213 94 94 279 134 174 b 535 -26 292 14 400 -26 z "},"Ѕ":{"ha":786,"x_min":0,"x_max":0,"o":"m 764 893 b 661 978 742 928 707 956 b 496 1010 615 999 560 1010 b 247 928 394 1010 311 983 b 150 718 182 874 150 804 b 196 584 150 664 165 620 b 306 503 226 548 263 521 b 435 450 349 484 392 467 b 546 381 478 433 515 410 b 592 268 576 351 592 313 b 517 105 592 200 567 146 b 331 43 467 64 405 43 b 92 160 228 43 148 82 l 32 115 b 153 11 60 71 100 36 b 325 -26 206 -14 263 -26 b 483 1 384 -26 437 -17 b 593 72 530 19 566 43 b 654 170 620 102 640 134 b 675 281 668 206 675 243 b 651 383 675 319 667 354 b 588 455 634 413 613 437 b 501 503 562 473 533 489 b 407 544 470 518 438 531 b 321 586 375 557 347 571 b 258 644 295 601 274 620 b 233 728 241 669 233 696 b 313 885 233 796 260 849 b 492 940 365 922 425 940 b 704 846 583 940 654 909 z "},"І":{"ha":350,"x_min":0,"x_max":0,"o":"m 67 0 l 144 0 l 318 983 l 240 983 z "},"Ї":{"ha":350,"x_min":0,"x_max":0,"o":"m 236 1185 b 221 1225 236 1201 231 1215 b 182 1240 211 1235 198 1240 b 141 1222 166 1240 153 1234 b 124 1179 129 1210 124 1196 b 140 1139 124 1163 129 1149 b 178 1124 150 1129 163 1124 b 219 1142 194 1124 207 1130 b 236 1185 230 1154 236 1168 z m 490 1185 b 475 1225 490 1201 485 1215 b 436 1240 465 1235 452 1240 b 395 1222 420 1240 407 1234 b 378 1179 384 1210 378 1196 b 394 1139 378 1163 383 1149 b 432 1124 404 1129 417 1124 b 473 1142 448 1124 461 1130 b 490 1185 484 1154 490 1168 z m 67 0 l 144 0 l 318 983 l 240 983 z "},"Ј":{"ha":668,"x_min":0,"x_max":0,"o":"m 226 -25 b 356 1 276 -25 319 -16 b 442 74 392 18 420 42 b 491 169 463 106 479 138 b 519 279 503 201 512 238 l 644 983 l 565 983 l 443 285 b 373 108 429 210 406 151 b 224 43 340 65 290 43 b 117 81 181 43 146 56 b 63 179 89 107 71 139 l -7 156 b 68 26 2 104 27 61 b 226 -25 109 -8 162 -25 z "},"Љ":{"ha":1494,"x_min":0,"x_max":0,"o":"m 838 69 l 910 481 l 1099 481 b 1328 300 1251 481 1328 420 b 1251 130 1328 227 1302 170 b 1036 69 1200 90 1129 69 z m 436 983 l 399 767 b 251 224 355 515 306 334 b 35 58 196 113 124 58 b -22 65 13 58 -6 61 l -37 -1 b 43 -10 -12 -7 14 -10 b 306 162 156 -10 244 47 b 468 732 368 276 422 466 l 500 914 l 907 914 l 747 0 l 1026 0 b 1308 81 1146 0 1240 27 b 1411 306 1377 135 1411 210 b 1327 487 1411 384 1383 445 b 1101 550 1271 529 1196 550 l 922 550 l 997 983 z "},"Њ":{"ha":1453,"x_min":0,"x_max":0,"o":"m 67 0 l 144 0 l 229 481 l 789 481 l 704 0 l 985 0 b 1265 81 1103 0 1197 27 b 1368 306 1334 135 1368 210 b 1284 487 1368 384 1340 445 b 1060 550 1228 529 1153 550 l 881 550 l 956 983 l 878 983 l 800 550 l 240 550 l 318 983 l 240 983 z m 794 69 l 867 481 l 1057 481 b 1286 300 1210 481 1286 420 b 1209 130 1286 227 1260 170 b 993 69 1158 90 1086 69 z "},"Ћ":{"ha":1078,"x_min":0,"x_max":0,"o":"m 260 0 l 338 0 l 422 474 b 665 506 486 495 567 506 b 864 356 798 506 864 456 b 860 311 864 342 863 327 l 804 0 l 883 0 l 939 310 b 944 372 943 328 944 349 b 675 575 944 507 855 575 b 435 543 594 575 513 564 l 500 914 l 829 914 l 842 983 l 101 983 l 89 914 l 421 914 z "},"Ќ":{"ha":789,"x_min":0,"x_max":0,"o":"m 738 1261 l 640 1261 l 465 1061 l 528 1061 z m 67 0 l 144 0 l 238 525 l 642 0 l 743 0 l 328 528 l 869 983 l 756 983 l 240 540 l 318 983 l 240 983 z "},"Ѝ":{"ha":1014,"x_min":0,"x_max":0,"o":"m 622 1061 l 685 1061 l 543 1261 l 446 1261 z m 67 0 l 158 0 l 879 864 l 882 864 l 731 0 l 808 0 l 982 983 l 890 983 l 169 128 l 167 128 l 318 983 l 240 983 z "},"Ў":{"ha":840,"x_min":0,"x_max":0,"o":"m 104 -10 b 231 26 153 -10 196 2 b 342 140 267 50 304 88 l 961 983 l 869 983 l 431 383 l 213 983 l 124 983 l 372 306 l 275 172 b 194 88 246 133 219 105 b 110 61 169 70 141 61 b 46 72 84 61 63 65 l 31 -3 b 104 -10 56 -7 80 -10 z m 558 1076 b 697 1122 613 1076 659 1092 b 772 1250 735 1153 760 1195 l 722 1260 b 658 1169 708 1220 687 1190 b 558 1138 630 1148 596 1138 b 472 1170 523 1138 494 1148 b 438 1260 449 1192 438 1222 l 385 1250 b 433 1122 386 1195 402 1153 b 558 1076 464 1092 506 1076 z "},"Џ":{"ha":985,"x_min":0,"x_max":0,"o":"m 343 -247 l 417 -247 l 461 0 l 779 0 l 953 983 l 874 983 l 713 69 l 157 69 l 319 983 l 240 983 l 67 0 l 386 0 z "},"А":{"ha":939,"x_min":0,"x_max":0,"o":"m -65 0 l 26 0 l 193 265 l 711 265 l 763 0 l 846 0 l 650 983 l 568 983 z m 238 338 l 592 899 l 699 338 z "},"Б":{"ha":851,"x_min":0,"x_max":0,"o":"m 67 0 l 360 0 b 642 81 479 0 573 27 b 744 306 710 135 744 210 b 660 487 744 384 716 445 b 436 550 604 529 530 550 l 242 550 l 306 913 l 786 913 l 797 983 l 240 983 z m 157 69 l 240 481 l 433 481 b 663 300 586 481 663 420 b 586 130 663 227 637 170 b 371 69 535 90 463 69 z "},"В":{"ha":856,"x_min":0,"x_max":0,"o":"m 67 0 l 357 0 b 650 77 478 0 576 26 b 761 301 724 128 761 203 b 706 446 761 360 743 408 b 571 515 670 484 625 507 l 571 518 b 736 606 641 534 696 563 b 796 769 776 649 796 704 b 713 931 796 842 768 895 b 514 983 657 966 591 983 l 240 983 z m 157 68 l 240 481 l 451 481 b 617 434 520 481 575 465 b 681 303 659 403 681 359 b 592 126 681 224 651 165 b 361 68 534 88 456 68 z m 240 547 l 306 915 l 493 915 b 652 875 558 915 611 902 b 714 754 693 848 714 808 b 636 598 714 684 688 632 b 450 547 584 564 522 547 z "},"Г":{"ha":676,"x_min":0,"x_max":0,"o":"m 67 0 l 144 0 l 306 914 l 760 914 l 772 983 l 240 983 z "},"Д":{"ha":1026,"x_min":0,"x_max":0,"o":"m -78 -247 l -4 -247 l 39 0 l 833 0 l 789 -247 l 864 -247 l 919 69 l 807 69 l 968 983 l 394 983 l 347 713 b 56 69 294 404 196 190 l -22 69 z m 156 69 b 424 713 280 194 369 409 l 460 914 l 878 914 l 729 69 z "},"Е":{"ha":804,"x_min":0,"x_max":0,"o":"m 67 0 l 681 0 l 693 69 l 157 69 l 229 478 l 707 478 l 718 544 l 240 544 l 306 914 l 804 914 l 817 983 l 240 983 z "},"Ж":{"ha":1204,"x_min":0,"x_max":0,"o":"m -111 0 l 3 0 l 592 525 l 499 0 l 578 0 l 671 525 l 1057 0 l 1158 0 l 760 528 l 1285 983 l 1171 983 l 672 540 l 750 983 l 672 983 l 593 540 l 261 983 l 160 983 l 504 536 z "},"З":{"ha":785,"x_min":0,"x_max":0,"o":"m 317 -25 b 574 58 419 -25 505 3 b 678 293 643 114 678 192 b 626 435 678 348 660 395 b 496 513 591 476 548 501 l 496 514 b 649 607 556 528 607 559 b 713 774 691 655 713 711 b 639 945 713 846 688 903 b 443 1008 590 987 525 1008 b 157 888 325 1008 230 968 l 210 838 b 443 940 267 906 345 940 b 581 892 500 940 545 924 b 633 771 616 860 633 820 b 554 607 633 700 607 645 b 365 550 501 569 438 550 l 304 550 l 292 481 l 354 481 b 528 429 424 481 481 463 b 597 290 574 395 597 349 b 515 109 597 213 570 153 b 321 43 459 65 395 43 b 173 77 266 43 217 54 b 78 164 129 100 97 129 l 11 119 b 133 14 39 74 80 39 b 317 -25 187 -11 248 -24 z "},"И":{"ha":1014,"x_min":0,"x_max":0,"o":"m 67 0 l 158 0 l 879 864 l 882 864 l 731 0 l 808 0 l 982 983 l 890 983 l 169 128 l 167 128 l 318 983 l 240 983 z "},"Й":{"ha":1014,"x_min":0,"x_max":0,"o":"m 67 0 l 158 0 l 879 864 l 882 864 l 731 0 l 808 0 l 982 983 l 890 983 l 169 128 l 167 128 l 318 983 l 240 983 z m 613 1076 b 751 1122 667 1076 713 1092 b 826 1250 789 1153 814 1195 l 776 1260 b 713 1169 763 1220 741 1190 b 613 1138 684 1148 650 1138 b 526 1170 577 1138 548 1148 b 492 1260 503 1192 492 1222 l 439 1250 b 487 1122 440 1195 456 1153 b 613 1076 518 1092 560 1076 z "},"К":{"ha":789,"x_min":0,"x_max":0,"o":"m 67 0 l 144 0 l 238 525 l 642 0 l 743 0 l 328 528 l 869 983 l 756 983 l 240 540 l 318 983 l 240 983 z "},"Л":{"ha":1029,"x_min":0,"x_max":0,"o":"m 43 -10 b 306 162 156 -10 244 47 b 468 732 368 276 422 466 l 500 914 l 907 914 l 747 0 l 825 0 l 997 983 l 436 983 l 399 767 b 251 224 355 515 306 334 b 35 58 196 113 124 58 b -22 65 13 58 -6 61 l -37 -1 b 43 -10 -12 -7 14 -10 z "},"М":{"ha":1236,"x_min":0,"x_max":0,"o":"m 67 0 l 143 0 l 299 879 l 301 879 l 525 0 l 569 0 l 1103 879 l 1106 879 l 951 0 l 1029 0 l 1203 983 l 1081 983 l 569 132 l 360 983 l 240 983 z "},"Н":{"ha":989,"x_min":0,"x_max":0,"o":"m 67 0 l 144 0 l 228 475 l 788 475 l 704 0 l 782 0 l 956 983 l 878 983 l 800 546 l 240 546 l 318 983 l 240 983 z "},"О":{"ha":1174,"x_min":0,"x_max":0,"o":"m 533 -26 b 827 57 642 -26 740 1 b 1031 279 915 112 982 187 b 1103 583 1079 372 1103 473 b 983 892 1103 710 1063 813 b 664 1010 904 970 797 1010 b 258 832 502 1010 366 950 b 94 401 149 713 94 570 b 214 92 94 274 134 170 b 533 -26 294 13 400 -26 z m 536 43 b 271 146 422 43 334 77 b 176 407 208 214 176 301 b 313 780 176 549 222 673 b 661 940 404 887 520 940 b 926 838 775 940 863 906 b 1019 576 988 769 1019 682 b 960 316 1019 484 1000 397 b 788 119 920 235 863 169 b 536 43 713 68 629 43 z "},"П":{"ha":985,"x_min":0,"x_max":0,"o":"m 67 0 l 144 0 l 306 914 l 863 914 l 700 0 l 779 0 l 953 983 l 240 983 z "},"Р":{"ha":797,"x_min":0,"x_max":0,"o":"m 67 0 l 144 0 l 226 464 l 428 464 b 693 541 540 464 628 490 b 790 753 758 592 790 663 b 711 924 790 827 764 884 b 499 983 658 963 588 983 l 240 983 z m 238 531 l 306 915 l 494 915 b 711 746 639 915 711 859 b 638 587 711 677 687 624 b 435 531 590 549 522 531 z "},"С":{"ha":1001,"x_min":0,"x_max":0,"o":"m 535 -26 b 910 139 688 -26 813 29 l 854 183 b 538 43 769 90 663 43 b 271 146 423 43 334 77 b 176 407 208 214 176 301 b 320 779 176 548 224 672 b 675 940 416 887 534 940 b 832 904 734 940 787 928 b 932 813 877 880 911 850 l 1003 861 b 871 970 974 907 930 944 b 678 1010 812 997 747 1010 b 264 830 515 1010 377 950 b 94 399 151 710 94 566 b 213 91 94 272 134 169 b 535 -26 292 13 400 -26 z "},"Т":{"ha":746,"x_min":0,"x_max":0,"o":"m 260 0 l 338 0 l 500 914 l 829 914 l 842 983 l 101 983 l 89 914 l 421 914 z "},"У":{"ha":840,"x_min":0,"x_max":0,"o":"m 94 -10 b 222 26 144 -10 186 2 b 332 140 257 50 294 88 l 951 983 l 860 983 l 421 383 l 203 983 l 114 983 l 363 306 l 265 172 b 185 88 237 133 210 105 b 100 61 160 70 131 61 b 36 72 74 61 53 65 l 21 -3 b 94 -10 46 -7 70 -10 z "},"Ф":{"ha":1124,"x_min":0,"x_max":0,"o":"m 444 -26 l 521 -26 l 542 94 l 553 94 b 931 224 713 98 839 141 b 1068 554 1022 307 1068 417 b 964 807 1068 659 1033 743 b 686 917 894 871 802 907 l 703 1010 l 626 1010 l 611 919 b 226 792 449 919 321 877 b 85 460 132 708 85 597 b 189 208 85 355 119 271 b 465 97 258 144 350 107 z m 478 165 b 253 261 384 175 309 207 b 169 461 197 315 169 381 b 282 739 169 576 207 669 b 590 851 357 809 460 847 l 600 851 z m 556 163 l 675 851 b 900 753 769 840 844 808 b 985 553 956 699 985 632 b 869 272 985 436 946 342 b 556 163 791 201 687 164 z "},"Х":{"ha":839,"x_min":0,"x_max":0,"o":"m -71 0 l 36 0 l 426 451 l 643 0 l 738 0 l 483 508 l 903 983 l 800 983 l 443 572 l 246 983 l 153 983 l 386 517 z "},"Ц":{"ha":1010,"x_min":0,"x_max":0,"o":"m 771 -247 l 846 -247 l 901 69 l 790 69 l 951 983 l 874 983 l 713 69 l 157 69 l 318 983 l 240 983 l 67 0 l 815 0 z "},"Ч":{"ha":858,"x_min":0,"x_max":0,"o":"m 575 0 l 653 0 l 826 983 l 749 983 l 663 489 b 415 458 600 469 517 458 b 232 601 293 458 232 506 b 238 651 232 611 234 627 l 296 983 l 218 983 l 158 644 b 151 582 154 619 151 599 b 417 389 151 453 240 389 b 649 419 494 389 571 399 z "},"Ш":{"ha":1453,"x_min":0,"x_max":0,"o":"m 67 0 l 1247 0 l 1421 983 l 1343 983 l 1183 69 l 710 69 l 869 983 l 792 983 l 631 69 l 157 69 l 318 983 l 240 983 z "},"Щ":{"ha":1479,"x_min":0,"x_max":0,"o":"m 1240 -247 l 1315 -247 l 1371 69 l 1260 69 l 1421 983 l 1343 983 l 1182 69 l 708 69 l 869 983 l 792 983 l 631 69 l 157 69 l 318 983 l 240 983 l 67 0 l 1285 0 z "},"Ъ":{"ha":935,"x_min":0,"x_max":0,"o":"m 186 0 l 467 0 b 748 81 585 0 679 27 b 851 306 817 135 851 210 b 767 487 851 384 823 445 b 542 550 711 529 636 550 l 363 550 l 439 983 l 100 983 l 89 914 l 349 914 z m 276 69 l 349 481 l 539 481 b 768 300 692 481 768 420 b 691 130 768 227 742 170 b 475 69 640 90 568 69 z "},"Ы":{"ha":1115,"x_min":0,"x_max":0,"o":"m 67 0 l 346 0 b 628 81 465 0 559 27 b 731 306 696 135 731 210 b 647 487 731 384 703 445 b 421 550 591 529 515 550 l 242 550 l 318 983 l 240 983 z m 157 69 l 240 481 l 418 481 b 647 300 571 481 647 420 b 570 130 647 227 622 170 b 354 69 519 90 447 69 z m 831 0 l 910 0 l 1083 983 l 1004 983 z "},"Ь":{"ha":814,"x_min":0,"x_max":0,"o":"m 67 0 l 346 0 b 628 81 465 0 559 27 b 731 306 696 135 731 210 b 647 487 731 384 703 445 b 421 550 591 529 515 550 l 242 550 l 318 983 l 240 983 z m 157 69 l 240 481 l 418 481 b 647 300 571 481 647 420 b 570 130 647 227 622 170 b 354 69 519 90 447 69 z "},"Э":{"ha":1001,"x_min":0,"x_max":0,"o":"m 376 -26 b 658 55 478 -26 572 1 b 858 271 743 109 810 181 b 931 560 906 361 931 457 b 813 890 931 700 891 809 b 490 1010 734 970 626 1010 b 115 844 338 1010 213 955 l 171 800 b 486 940 255 894 360 940 b 758 832 607 940 698 904 b 847 546 817 760 847 664 l 332 546 l 319 476 l 838 476 b 684 172 823 360 772 258 b 376 43 597 86 494 43 b 200 79 311 43 252 55 b 89 168 148 103 111 133 l 26 122 b 163 13 55 76 101 40 b 376 -26 226 -13 297 -26 z "},"Ю":{"ha":1447,"x_min":0,"x_max":0,"o":"m 840 -25 b 1122 65 945 -25 1039 5 b 1312 298 1206 125 1269 203 b 1376 603 1355 393 1376 494 b 1269 895 1376 722 1341 820 b 978 1008 1198 971 1101 1008 b 647 876 850 1008 740 964 b 461 546 553 788 492 678 l 240 546 l 318 983 l 240 983 l 67 0 l 144 0 l 229 476 l 447 476 b 442 381 444 448 442 416 b 549 88 442 260 477 163 b 840 -25 620 13 717 -25 z m 844 43 b 606 140 741 43 661 75 b 524 388 551 205 524 288 b 579 653 524 481 542 570 b 740 860 616 737 670 806 b 975 940 809 913 888 940 b 1212 843 1078 940 1157 908 b 1294 596 1267 778 1294 696 b 1239 328 1294 501 1276 412 b 1078 123 1202 245 1148 176 b 844 43 1009 70 931 43 z "},"Я":{"ha":821,"x_min":0,"x_max":0,"o":"m -4 0 l 93 0 l 436 433 l 613 433 l 536 0 l 615 0 l 789 983 l 517 983 b 236 902 398 983 305 956 b 133 678 168 848 133 773 b 192 521 133 613 153 561 b 351 442 231 481 284 455 z m 443 503 b 214 683 290 503 214 563 b 291 853 214 756 240 813 b 506 914 342 894 414 914 l 697 914 l 625 503 z "},"а":{"ha":732,"x_min":0,"x_max":0,"o":"m 240 -14 b 493 119 345 -14 429 31 l 496 119 b 485 0 488 78 485 38 l 551 0 b 567 146 551 44 556 93 l 614 406 b 619 476 618 430 619 453 b 558 616 619 538 599 584 b 396 664 516 648 463 664 b 265 640 353 664 310 656 b 151 575 221 623 183 602 l 186 525 b 388 601 249 576 316 601 b 549 461 495 601 549 555 b 540 392 549 442 546 419 b 356 383 471 392 409 389 b 199 349 302 377 250 366 b 83 276 149 333 110 309 b 42 153 55 243 42 202 b 102 26 42 95 62 53 b 240 -14 142 0 188 -14 z m 265 46 b 161 72 225 46 190 55 b 118 161 132 90 118 119 b 503 333 118 276 246 333 l 531 333 l 521 278 b 435 114 510 214 481 159 b 265 46 390 69 333 46 z "},"б":{"ha":839,"x_min":0,"x_max":0,"o":"m 368 -18 b 639 97 477 -18 568 20 b 746 371 710 174 746 265 b 669 583 746 459 720 530 b 457 664 617 637 547 664 b 167 500 330 664 233 609 l 163 500 b 274 796 184 630 221 728 b 493 915 326 863 400 903 l 697 940 b 797 973 741 946 774 957 b 851 1047 819 989 838 1014 l 799 1065 b 683 1003 784 1031 745 1010 l 471 978 b 306 921 407 970 352 951 b 192 794 259 890 222 848 b 122 624 163 741 140 684 b 76 406 105 563 89 491 b 68 294 71 374 68 337 b 142 69 68 203 93 128 b 368 -18 191 11 266 -18 z m 369 46 b 206 109 299 46 244 67 b 147 267 167 151 147 204 b 234 502 147 357 176 436 b 444 601 292 568 362 601 b 608 538 514 601 569 580 b 668 378 648 496 668 443 b 583 144 668 287 640 209 b 369 46 527 78 456 46 z "},"в":{"ha":746,"x_min":0,"x_max":0,"o":"m 61 0 l 358 0 b 551 51 438 0 502 17 b 625 199 600 84 625 134 b 589 293 625 237 613 268 b 500 339 565 318 535 333 l 500 340 b 608 399 546 351 582 371 b 647 507 634 428 647 463 b 592 613 647 554 629 589 b 461 647 556 636 512 647 l 174 647 z m 147 65 l 174 306 l 414 306 b 511 278 454 306 486 297 b 549 203 536 260 549 235 b 497 100 549 157 531 123 b 361 65 462 77 417 65 z m 201 368 l 239 583 l 442 583 b 534 560 480 583 510 575 b 569 489 558 544 569 520 b 524 399 569 449 554 419 b 415 368 493 378 457 368 z "},"г":{"ha":569,"x_min":0,"x_max":0,"o":"m 61 0 l 135 0 l 238 583 l 565 583 l 576 647 l 174 647 z "},"д":{"ha":831,"x_min":0,"x_max":0,"o":"m -74 -212 l -4 -212 l 33 0 l 632 0 l 594 -212 l 664 -212 l 713 65 l 607 65 l 710 647 l 261 647 l 231 472 b 157 233 215 383 190 304 b 49 65 124 163 88 107 l -25 65 z m 136 65 b 300 453 217 155 271 284 l 322 583 l 625 583 l 533 65 z "},"е":{"ha":781,"x_min":0,"x_max":0,"o":"m 683 308 b 696 411 692 338 696 372 b 626 594 696 486 673 547 b 429 664 580 641 514 664 b 165 547 325 664 237 625 b 58 269 94 469 58 377 b 140 60 58 181 85 112 b 353 -18 194 8 265 -18 b 513 18 410 -18 464 -6 b 635 117 563 42 603 75 l 586 156 b 358 46 526 82 450 46 b 196 108 292 46 238 66 b 133 267 154 149 133 202 b 136 308 133 285 134 299 z m 618 364 l 146 364 b 242 531 160 428 192 483 b 428 601 293 578 355 601 b 570 551 489 601 536 584 b 621 415 604 517 621 472 b 618 364 621 403 620 386 z "},"ж":{"ha":969,"x_min":0,"x_max":0,"o":"m -61 0 l 44 0 l 431 333 l 433 333 l 375 0 l 450 0 l 508 333 l 513 333 l 803 0 l 901 0 l 599 339 l 965 647 l 861 647 l 514 347 l 511 347 l 563 647 l 489 647 l 436 347 l 432 347 l 169 647 l 71 647 l 346 342 z "},"з":{"ha":611,"x_min":0,"x_max":0,"o":"m 229 -17 b 414 40 303 -17 365 2 b 488 189 463 77 488 127 b 453 288 488 228 476 261 b 358 339 430 314 398 331 l 358 340 b 470 398 404 349 441 368 b 514 506 499 428 514 464 b 457 621 514 554 495 592 b 306 664 419 650 369 664 b 175 635 260 664 217 654 b 75 557 133 616 100 590 l 122 517 b 299 601 172 573 231 601 b 400 576 340 601 374 593 b 439 503 426 559 439 534 b 384 402 439 458 421 425 b 250 368 347 379 303 368 l 208 368 l 196 307 l 243 307 b 364 276 292 307 332 297 b 411 189 395 256 411 227 b 358 82 411 142 393 106 b 232 46 322 58 280 46 b 43 139 151 46 88 77 l -14 96 b 229 -17 34 21 115 -17 z "},"и":{"ha":817,"x_min":0,"x_max":0,"o":"m 61 0 l 146 0 l 628 546 l 631 546 l 533 0 l 607 0 l 721 647 l 636 647 l 154 106 l 250 647 l 174 647 z "},"й":{"ha":817,"x_min":0,"x_max":0,"o":"m 469 799 b 608 844 524 799 570 814 b 683 972 646 875 671 918 l 633 982 b 569 891 619 942 598 912 b 469 860 541 870 507 860 b 382 892 433 860 404 871 b 347 982 360 914 348 944 l 294 972 b 342 844 295 918 311 875 b 469 799 373 814 416 799 z m 61 0 l 146 0 l 628 546 l 631 546 l 533 0 l 607 0 l 721 647 l 636 647 l 154 106 l 250 647 l 174 647 z "},"к":{"ha":671,"x_min":0,"x_max":0,"o":"m 61 0 l 135 0 l 194 333 l 197 333 l 504 0 l 603 0 l 288 339 l 667 647 l 563 647 l 200 347 l 196 347 l 249 647 l 174 647 z "},"л":{"ha":808,"x_min":0,"x_max":0,"o":"m 7 -7 b 194 95 88 -7 150 27 b 296 399 238 163 272 264 l 328 583 l 621 583 l 518 0 l 592 0 l 706 647 l 267 647 l 226 422 b 141 147 204 297 176 206 b 7 60 106 89 62 60 b -37 67 -11 60 -25 62 l -51 0 b 7 -7 -35 -5 -15 -7 z "},"м":{"ha":999,"x_min":0,"x_max":0,"o":"m 61 0 l 135 0 l 233 560 l 236 560 l 403 0 l 444 0 l 810 560 l 813 560 l 714 0 l 788 0 l 901 647 l 789 647 l 442 111 l 282 647 l 174 647 z "},"н":{"ha":808,"x_min":0,"x_max":0,"o":"m 61 0 l 135 0 l 189 304 l 578 304 l 524 0 l 599 0 l 713 647 l 638 647 l 589 368 l 200 368 l 249 647 l 174 647 z "},"о":{"ha":829,"x_min":0,"x_max":0,"o":"m 356 -18 b 629 99 467 -18 558 21 b 736 382 700 176 736 271 b 655 585 736 465 709 533 b 439 664 601 638 529 664 b 165 547 328 664 236 625 b 57 265 93 469 57 375 b 139 61 57 182 84 114 b 356 -18 194 8 266 -18 z m 360 46 b 195 109 289 46 234 67 b 136 269 156 151 136 205 b 221 503 136 360 164 438 b 433 601 277 569 348 601 b 599 538 504 601 559 580 b 660 378 640 496 660 443 b 575 144 660 287 631 209 b 360 46 519 78 447 46 z "},"п":{"ha":800,"x_min":0,"x_max":0,"o":"m 61 0 l 135 0 l 238 583 l 617 583 l 515 0 l 589 0 l 703 647 l 174 647 z "},"р":{"ha":871,"x_min":0,"x_max":0,"o":"m 161 131 l 164 131 b 258 22 182 85 214 49 b 404 -18 302 -5 350 -18 b 672 99 513 -18 602 21 b 776 382 741 176 776 271 b 700 586 776 466 751 534 b 489 664 649 638 579 664 b 338 624 434 664 384 650 b 233 524 291 597 256 563 l 229 524 l 253 647 l 178 647 l 4 -333 l 79 -333 z m 481 601 b 643 538 550 601 604 580 b 701 378 682 496 701 443 b 618 142 701 285 674 207 b 403 46 563 78 491 46 b 242 109 336 46 282 67 b 181 269 201 151 181 205 b 268 503 181 359 210 437 b 481 601 326 569 397 601 z "},"с":{"ha":685,"x_min":0,"x_max":0,"o":"m 357 -19 b 607 86 453 -19 537 16 l 560 129 b 363 44 508 73 442 44 b 199 107 293 44 239 65 b 140 268 160 149 140 202 b 228 503 140 359 169 437 b 446 601 286 569 359 601 b 542 579 481 601 513 594 b 607 518 572 564 593 544 l 671 563 b 580 638 650 596 620 621 b 447 664 540 655 495 664 b 171 547 335 664 243 625 b 63 261 99 468 63 373 b 141 58 63 178 89 110 b 357 -19 193 6 265 -19 z "},"т":{"ha":601,"x_min":0,"x_max":0,"o":"m 188 0 l 263 0 l 364 583 l 597 583 l 608 647 l 68 647 l 57 583 l 290 583 z "},"у":{"ha":649,"x_min":0,"x_max":0,"o":"m -19 -335 b 90 -297 23 -335 60 -322 b 182 -181 121 -271 151 -232 l 667 647 l 583 647 l 261 76 l 258 76 l 149 647 l 71 647 l 207 -4 l 124 -150 b 58 -238 102 -189 80 -218 b -22 -268 35 -258 8 -268 b -81 -257 -44 -268 -63 -264 l -92 -325 b -19 -335 -66 -331 -42 -335 z "},"ф":{"ha":985,"x_min":0,"x_max":0,"o":"m 322 -333 l 396 -333 l 451 -18 b 772 83 585 -18 692 16 b 893 365 853 150 893 244 b 809 571 893 449 865 517 b 572 661 753 625 674 655 l 642 1057 l 568 1057 l 499 663 b 177 561 364 662 257 628 b 57 279 97 494 57 400 b 142 72 57 195 85 126 b 378 -18 198 19 277 -12 z m 389 46 b 202 116 309 50 247 73 b 135 283 157 159 135 215 b 231 514 135 382 167 459 b 486 597 296 569 381 596 z m 464 47 l 561 597 b 748 528 641 594 703 570 b 815 361 793 485 815 430 b 718 130 815 262 783 185 b 464 47 653 75 569 47 z "},"х":{"ha":643,"x_min":0,"x_max":0,"o":"m -64 0 l 29 0 l 297 289 l 449 0 l 536 0 l 349 333 l 647 647 l 556 647 l 314 383 l 181 647 l 100 647 l 263 342 z "},"ц":{"ha":824,"x_min":0,"x_max":0,"o":"m 588 -212 l 657 -212 l 706 65 l 600 65 l 703 647 l 628 647 l 526 65 l 146 65 l 249 647 l 174 647 l 61 0 l 625 0 z "},"ч":{"ha":728,"x_min":0,"x_max":0,"o":"m 442 0 l 517 0 l 629 647 l 556 647 l 501 338 b 317 311 424 320 362 311 b 215 333 271 311 237 318 b 181 411 192 347 181 373 b 185 457 181 425 182 440 l 219 647 l 144 647 l 111 454 b 106 400 106 432 105 414 b 292 247 106 298 168 247 b 490 274 354 247 420 256 z "},"ш":{"ha":1167,"x_min":0,"x_max":0,"o":"m 61 0 l 956 0 l 1069 647 l 996 647 l 893 65 l 557 65 l 660 647 l 585 647 l 482 65 l 146 65 l 249 647 l 174 647 z "},"щ":{"ha":1190,"x_min":0,"x_max":0,"o":"m 954 -212 l 1024 -212 l 1072 65 l 967 65 l 1069 647 l 996 647 l 893 65 l 557 65 l 660 647 l 585 647 l 482 65 l 146 65 l 249 647 l 174 647 l 61 0 l 992 0 z "},"ъ":{"ha":799,"x_min":0,"x_max":0,"o":"m 161 0 l 425 0 b 627 58 510 0 578 19 b 701 218 677 97 701 150 b 641 348 701 275 681 318 b 479 393 601 378 547 393 l 304 393 l 349 647 l 68 647 l 57 583 l 264 583 z m 247 65 l 293 329 l 476 329 b 624 213 575 329 624 290 b 574 104 624 166 607 130 b 436 65 541 78 495 65 z "},"ы":{"ha":961,"x_min":0,"x_max":0,"o":"m 61 0 l 311 0 b 513 58 396 0 464 19 b 588 218 563 97 588 150 b 527 348 588 275 567 318 b 365 393 487 378 433 393 l 204 393 l 249 647 l 174 647 z m 146 65 l 193 329 l 363 329 b 510 213 461 329 510 290 b 460 104 510 166 493 130 b 322 65 428 78 381 65 z m 676 0 l 750 0 l 864 647 l 789 647 z "},"ь":{"ha":697,"x_min":0,"x_max":0,"o":"m 146 65 l 193 329 l 376 329 b 522 213 474 329 522 290 b 474 104 522 166 506 130 b 336 65 441 78 395 65 z m 61 0 l 325 0 b 526 58 410 0 477 19 b 600 218 575 97 600 150 b 540 348 600 275 580 318 b 379 393 500 378 447 393 l 204 393 l 249 647 l 174 647 z "},"э":{"ha":686,"x_min":0,"x_max":0,"o":"m 217 -18 b 490 98 329 -18 420 21 b 594 383 559 175 594 270 b 515 586 594 467 568 534 b 299 664 461 638 389 664 b 51 564 200 664 118 631 l 99 519 b 293 601 153 574 218 601 b 451 542 359 601 412 582 b 517 390 491 503 513 452 l 517 368 l 203 368 l 192 304 l 508 304 b 407 118 494 229 461 167 b 217 44 353 69 290 44 b 110 69 178 44 142 53 b 38 126 77 86 53 105 l -19 83 b 217 -18 27 16 106 -18 z "},"ю":{"ha":1081,"x_min":0,"x_max":0,"o":"m 626 -18 b 883 98 726 -18 812 21 b 989 375 953 175 989 268 b 913 583 989 460 963 530 b 696 664 862 637 789 664 b 476 578 615 664 542 635 b 350 368 409 522 368 451 l 200 368 l 249 647 l 174 647 l 61 0 l 135 0 l 189 304 l 340 304 b 340 292 340 301 340 297 b 339 279 339 286 339 282 b 417 63 339 189 365 117 b 626 -18 470 9 539 -18 z m 628 47 b 476 112 565 47 514 69 b 418 276 437 155 418 210 b 500 505 418 364 445 441 b 697 601 555 569 620 601 b 853 536 762 601 814 580 b 911 371 892 493 911 438 b 828 142 911 282 883 206 b 628 47 772 79 706 47 z "},"я":{"ha":740,"x_min":0,"x_max":0,"o":"m 18 0 l 113 0 l 326 261 l 501 261 l 456 0 l 529 0 l 643 647 l 376 647 b 178 590 293 647 227 628 b 106 432 130 551 106 499 b 143 326 106 389 118 354 b 246 268 168 299 202 279 z m 324 325 b 182 439 229 325 182 363 b 230 545 182 484 198 520 b 364 583 262 571 306 583 l 558 583 l 514 325 z "},"ѐ":{"ha":781,"x_min":0,"x_max":0,"o":"m 683 308 b 696 411 692 338 696 372 b 626 594 696 486 673 547 b 429 664 580 641 514 664 b 165 547 325 664 237 625 b 58 269 94 469 58 377 b 140 60 58 181 85 112 b 353 -18 194 8 265 -18 b 513 18 410 -18 464 -6 b 635 117 563 42 603 75 l 586 156 b 358 46 526 82 450 46 b 196 108 292 46 238 66 b 133 267 154 149 133 202 b 136 308 133 285 134 299 z m 618 364 l 146 364 b 242 531 160 428 192 483 b 428 601 293 578 355 601 b 570 551 489 601 536 584 b 621 415 604 517 621 472 b 618 364 621 403 620 386 z m 271 983 l 446 783 l 510 783 l 368 983 z "},"ё":{"ha":781,"x_min":0,"x_max":0,"o":"m 413 907 b 397 947 413 924 407 937 b 358 963 387 957 374 963 b 317 944 343 963 329 956 b 300 901 306 932 300 918 b 316 861 300 885 305 871 b 356 846 327 851 340 846 b 396 864 371 846 385 852 b 413 907 407 876 413 890 z m 667 907 b 651 947 667 924 662 937 b 613 963 641 957 628 963 b 572 944 597 963 583 956 b 554 901 560 932 554 918 b 570 861 554 885 559 871 b 610 846 581 851 594 846 b 650 864 625 846 639 852 b 667 907 661 876 667 890 z m 683 308 b 696 411 692 338 696 372 b 626 594 696 486 673 547 b 429 664 580 641 514 664 b 165 547 325 664 237 625 b 58 269 94 469 58 377 b 140 60 58 181 85 112 b 353 -18 194 8 265 -18 b 513 18 410 -18 464 -6 b 635 117 563 42 603 75 l 586 156 b 358 46 526 82 450 46 b 196 108 292 46 238 66 b 133 267 154 149 133 202 b 136 308 133 285 134 299 z m 618 364 l 146 364 b 242 531 160 428 192 483 b 428 601 293 578 355 601 b 570 551 489 601 536 584 b 621 415 604 517 621 472 b 618 364 621 403 620 386 z "},"ђ":{"ha":797,"x_min":0,"x_max":0,"o":"m 357 -333 b 508 -273 419 -333 469 -313 b 583 -107 546 -233 571 -177 l 671 393 b 679 463 676 426 679 450 b 622 608 679 523 660 571 b 463 664 583 645 530 664 b 329 626 414 664 370 651 b 231 521 288 601 256 566 l 228 521 l 275 796 l 499 796 l 508 853 l 285 853 l 319 1050 l 246 1050 l 211 853 l 89 853 l 79 796 l 200 796 l 61 0 l 135 0 l 193 329 b 286 531 209 416 240 483 b 444 601 332 578 385 601 b 600 444 548 601 600 549 b 593 365 598 408 596 382 l 510 -100 b 364 -268 489 -212 441 -268 b 301 -260 342 -268 321 -265 l 285 -325 b 357 -333 307 -331 331 -333 z "},"ѓ":{"ha":569,"x_min":0,"x_max":0,"o":"m 582 983 l 485 983 l 310 783 l 372 783 z m 61 0 l 135 0 l 238 583 l 565 583 l 576 647 l 174 647 z "},"є":{"ha":686,"x_min":0,"x_max":0,"o":"m 357 -19 b 608 85 457 -19 541 15 l 560 129 b 363 43 507 72 441 43 b 201 103 294 43 240 63 b 139 258 163 143 142 194 b 140 304 139 279 139 294 l 474 304 l 485 368 l 153 368 b 261 535 173 436 209 491 b 442 601 313 579 373 601 b 547 577 480 601 515 593 b 618 519 580 561 603 542 l 675 564 b 440 664 629 631 550 664 b 167 547 328 664 237 625 b 63 261 97 468 63 373 b 141 58 63 178 89 110 b 357 -19 193 6 265 -19 z "},"ѕ":{"ha":599,"x_min":0,"x_max":0,"o":"m 8 90 b 249 -17 65 19 145 -17 b 421 35 315 -17 373 1 b 493 182 469 70 493 119 b 448 293 493 228 478 265 b 304 365 418 321 370 345 b 202 410 256 380 222 395 b 172 481 182 425 172 448 b 219 569 172 519 188 548 b 333 601 251 591 289 601 b 493 526 405 601 458 576 l 549 567 b 467 637 532 595 505 619 b 339 664 429 655 386 664 b 172 615 275 664 219 648 b 100 475 124 583 100 536 b 144 370 100 430 115 395 b 274 306 173 346 216 324 b 384 252 325 289 361 271 b 418 174 407 233 418 207 b 370 81 418 134 402 103 b 251 47 338 58 299 47 b 64 136 173 47 110 77 z "},"і":{"ha":338,"x_min":0,"x_max":0,"o":"m 61 0 l 136 0 l 250 647 l 176 647 z m 250 849 b 290 866 266 849 279 854 b 307 907 301 878 307 891 b 292 947 307 924 302 937 b 254 961 281 956 269 961 b 214 944 238 961 225 955 b 197 901 203 932 197 918 b 213 863 197 886 202 873 b 250 849 223 853 235 849 z "},"ї":{"ha":338,"x_min":0,"x_max":0,"o":"m 61 0 l 136 0 l 250 647 l 176 647 z m 182 907 b 167 947 182 924 177 937 b 128 963 156 957 144 963 b 87 944 112 963 98 956 b 69 901 75 932 69 918 b 85 861 69 885 75 871 b 124 846 96 851 109 846 b 165 864 139 846 153 852 b 182 907 176 876 182 890 z m 436 907 b 421 947 436 924 431 937 b 382 963 411 957 398 963 b 341 944 366 963 353 956 b 324 901 329 932 324 918 b 340 861 324 885 329 871 b 378 846 350 851 363 846 b 419 864 394 846 407 852 b 436 907 430 876 436 890 z "},"ј":{"ha":339,"x_min":0,"x_max":0,"o":"m -82 -333 b 56 -279 -18 -333 28 -315 b 114 -131 83 -243 103 -194 l 251 647 l 178 647 l 42 -119 b 3 -231 32 -169 19 -206 b -83 -269 -14 -257 -43 -269 b -135 -262 -101 -269 -118 -267 l -149 -325 b -82 -333 -134 -331 -112 -333 z m 250 849 b 290 866 266 849 279 854 b 307 907 301 878 307 891 b 292 947 307 924 302 937 b 254 961 281 956 269 961 b 214 944 238 961 225 955 b 197 901 203 932 197 918 b 213 863 197 886 202 873 b 250 849 223 853 235 849 z "},"љ":{"ha":1154,"x_min":0,"x_max":0,"o":"m 7 -7 b 194 95 88 -7 150 27 b 296 399 238 163 272 264 l 328 583 l 621 583 l 518 0 l 781 0 b 983 58 866 0 933 19 b 1057 218 1032 97 1057 150 b 997 348 1057 275 1037 318 b 836 393 957 378 904 393 l 661 393 l 706 647 l 267 647 l 226 422 b 141 147 204 297 176 206 b 7 60 106 89 62 60 b -37 67 -11 60 -25 62 l -51 0 b 7 -7 -35 -5 -15 -7 z m 603 65 l 649 329 l 833 329 b 979 213 931 329 979 290 b 930 104 979 166 963 130 b 792 65 897 78 851 65 z "},"њ":{"ha":1161,"x_min":0,"x_max":0,"o":"m 61 0 l 135 0 l 192 315 l 579 315 l 524 0 l 797 0 b 992 56 880 0 945 19 b 1064 210 1040 93 1064 144 b 1006 335 1064 264 1044 306 b 850 379 967 365 915 379 l 667 379 l 713 647 l 638 647 l 590 379 l 203 379 l 249 647 l 174 647 z m 611 65 l 656 315 l 849 315 b 986 206 940 315 986 279 b 940 102 986 161 971 127 b 810 65 909 78 865 65 z "},"ћ":{"ha":797,"x_min":0,"x_max":0,"o":"m 61 0 l 135 0 l 193 329 b 286 531 209 416 240 483 b 444 601 332 578 385 601 b 600 444 548 601 600 549 b 593 365 598 408 596 382 l 528 0 l 601 0 l 671 393 b 679 463 676 426 679 450 b 622 608 679 523 660 571 b 463 664 583 645 530 664 b 329 626 414 664 370 651 b 231 521 288 601 256 566 l 228 521 l 275 796 l 499 796 l 508 853 l 285 853 l 319 1050 l 246 1050 l 211 853 l 89 853 l 79 796 l 200 796 z "},"ќ":{"ha":671,"x_min":0,"x_max":0,"o":"m 626 983 l 529 983 l 354 783 l 417 783 z m 61 0 l 135 0 l 194 333 l 197 333 l 504 0 l 603 0 l 288 339 l 667 647 l 563 647 l 200 347 l 196 347 l 249 647 l 174 647 z "},"ѝ":{"ha":817,"x_min":0,"x_max":0,"o":"m 457 783 l 519 783 l 378 983 l 281 983 z m 61 0 l 146 0 l 628 546 l 631 546 l 533 0 l 607 0 l 721 647 l 636 647 l 154 106 l 250 647 l 174 647 z "},"ў":{"ha":649,"x_min":0,"x_max":0,"o":"m 400 799 b 539 844 455 799 501 814 b 614 972 577 875 602 918 l 564 982 b 500 891 550 942 529 912 b 400 860 471 870 438 860 b 313 892 364 860 335 871 b 278 982 290 914 279 944 l 225 972 b 273 844 226 918 242 875 b 400 799 304 814 346 799 z m -19 -335 b 90 -297 23 -335 60 -322 b 182 -181 121 -271 151 -232 l 667 647 l 583 647 l 261 76 l 258 76 l 149 647 l 71 647 l 207 -4 l 124 -150 b 58 -238 102 -189 80 -218 b -22 -268 35 -258 8 -268 b -81 -257 -44 -268 -63 -264 l -92 -325 b -19 -335 -66 -331 -42 -335 z "},"џ":{"ha":800,"x_min":0,"x_max":0,"o":"m 253 -212 l 322 -212 l 360 0 l 589 0 l 703 647 l 628 647 l 526 65 l 146 65 l 249 647 l 174 647 l 61 0 l 290 0 z "},"Ґ":{"ha":676,"x_min":0,"x_max":0,"o":"m 67 0 l 144 0 l 306 914 l 758 914 l 808 1186 l 733 1186 l 697 983 l 240 983 z "},"ґ":{"ha":569,"x_min":0,"x_max":0,"o":"m 61 0 l 135 0 l 239 583 l 565 583 l 607 819 l 538 819 l 507 647 l 175 647 z "},"Ẁ":{"ha":1326,"x_min":0,"x_max":0,"o":"m 1424 983 l 1340 983 l 910 106 l 907 106 l 826 983 l 728 983 l 296 106 l 293 106 l 214 983 l 131 983 l 226 0 l 322 0 l 758 878 l 761 878 l 840 0 l 936 0 z m 589 1261 l 764 1061 l 828 1061 l 686 1261 z "},"ẁ":{"ha":1001,"x_min":0,"x_max":0,"o":"m 1010 647 l 929 647 l 657 94 l 653 94 l 575 647 l 500 647 l 208 94 l 206 94 l 160 647 l 82 647 l 147 0 l 229 0 l 519 550 l 522 550 l 597 0 l 681 0 z m 351 983 l 526 783 l 590 783 l 449 983 z "},"Ẃ":{"ha":1326,"x_min":0,"x_max":0,"o":"m 1424 983 l 1340 983 l 910 106 l 907 106 l 826 983 l 728 983 l 296 106 l 293 106 l 214 983 l 131 983 l 226 0 l 322 0 l 758 878 l 761 878 l 840 0 l 936 0 z m 1025 1261 l 928 1261 l 753 1061 l 815 1061 z "},"ẃ":{"ha":1001,"x_min":0,"x_max":0,"o":"m 1010 647 l 929 647 l 657 94 l 653 94 l 575 647 l 500 647 l 208 94 l 206 94 l 160 647 l 82 647 l 147 0 l 229 0 l 519 550 l 522 550 l 597 0 l 681 0 z m 808 983 l 711 983 l 536 783 l 599 783 z "},"Ẅ":{"ha":1326,"x_min":0,"x_max":0,"o":"m 1424 983 l 1340 983 l 910 106 l 907 106 l 826 983 l 728 983 l 296 106 l 293 106 l 214 983 l 131 983 l 226 0 l 322 0 l 758 878 l 761 878 l 840 0 l 936 0 z m 686 1124 b 726 1142 702 1124 715 1130 b 743 1185 738 1154 743 1168 b 728 1225 743 1201 738 1215 b 690 1240 719 1235 706 1240 b 649 1222 675 1240 661 1234 b 631 1179 637 1210 631 1196 b 647 1139 631 1163 636 1149 b 686 1124 658 1129 671 1124 z m 940 1124 b 981 1142 956 1124 970 1130 b 999 1185 993 1154 999 1168 b 983 1225 999 1201 994 1215 b 944 1240 973 1235 960 1240 b 903 1223 929 1240 915 1234 b 886 1179 892 1211 886 1197 b 901 1139 886 1163 891 1149 b 940 1124 912 1129 925 1124 z "},"ẅ":{"ha":1001,"x_min":0,"x_max":0,"o":"m 1010 647 l 929 647 l 657 94 l 653 94 l 575 647 l 500 647 l 208 94 l 206 94 l 160 647 l 82 647 l 147 0 l 229 0 l 519 550 l 522 550 l 597 0 l 681 0 z m 454 846 b 494 864 470 846 483 852 b 511 907 506 876 511 890 b 497 947 511 924 506 937 b 458 963 487 957 474 963 b 417 944 443 963 429 956 b 399 901 405 932 399 918 b 415 861 399 885 404 871 b 454 846 426 851 439 846 z m 708 846 b 749 864 724 846 738 852 b 767 907 761 876 767 890 b 751 947 767 924 762 937 b 713 963 741 957 728 963 b 672 945 697 963 683 957 b 654 901 660 934 654 919 b 669 861 654 885 659 871 b 708 846 680 851 693 846 z "},"Ỳ":{"ha":756,"x_min":0,"x_max":0,"o":"m 878 983 l 781 983 l 378 492 l 178 983 l 86 983 l 329 425 l 253 0 l 332 0 l 407 425 z m 294 1261 l 469 1061 l 533 1061 l 392 1261 z "},"ỳ":{"ha":649,"x_min":0,"x_max":0,"o":"m -19 -335 b 90 -297 23 -335 60 -322 b 182 -181 121 -271 151 -232 l 667 647 l 585 647 l 263 76 l 260 76 l 150 647 l 71 647 l 207 -4 l 124 -150 b 58 -238 102 -189 80 -218 b -22 -268 35 -258 8 -268 b -81 -260 -44 -268 -64 -265 l -92 -325 b -19 -335 -66 -331 -42 -335 z m 201 983 l 376 783 l 440 783 l 299 983 z "},"‐":{"ha":436,"x_min":0,"x_max":0,"o":"m 361 374 l 68 374 l 57 310 l 350 310 z "},"–":{"ha":556,"x_min":0,"x_max":0,"o":"m 506 310 l 517 374 l 44 374 l 33 310 z "},"—":{"ha":833,"x_min":0,"x_max":0,"o":"m 783 310 l 794 374 l 44 374 l 33 310 z "},"‘":{"ha":307,"x_min":0,"x_max":0,"o":"m 117 660 l 196 660 l 342 983 l 279 983 z "},"’":{"ha":307,"x_min":0,"x_max":0,"o":"m 342 983 l 263 983 l 117 660 l 179 660 z "},"‚":{"ha":307,"x_min":0,"x_max":0,"o":"m 189 131 l 110 131 l -36 -193 l 26 -193 z "},"“":{"ha":522,"x_min":0,"x_max":0,"o":"m 332 660 l 411 660 l 557 983 l 494 983 z m 117 660 l 196 660 l 343 983 l 281 983 z "},"”":{"ha":522,"x_min":0,"x_max":0,"o":"m 342 983 l 263 983 l 117 660 l 179 660 z m 557 983 l 478 983 l 331 660 l 393 660 z "},"„":{"ha":522,"x_min":0,"x_max":0,"o":"m 189 131 l 110 131 l -36 -193 l 26 -193 z m 404 131 l 325 131 l 178 -193 l 240 -193 z "},"†":{"ha":757,"x_min":0,"x_max":0,"o":"m 738 632 l 749 699 l 469 699 l 521 983 l 447 983 l 396 699 l 117 699 l 104 632 l 385 632 l 243 -175 l 317 -175 l 458 632 z "},"‡":{"ha":757,"x_min":0,"x_max":0,"o":"m 386 643 l 301 165 l 31 165 l 19 97 l 290 97 l 243 -175 l 317 -175 l 364 97 l 635 97 l 646 165 l 375 165 l 460 643 l 731 643 l 742 711 l 472 711 l 521 983 l 447 983 l 399 711 l 126 711 l 115 643 z "},"•":{"ha":694,"x_min":0,"x_max":0,"o":"m 101 492 b 173 317 101 423 125 365 b 347 246 221 270 279 246 b 522 317 416 246 474 270 b 593 492 569 365 593 423 b 522 666 593 560 569 618 b 347 738 474 714 416 738 b 173 666 279 738 221 714 b 101 492 125 618 101 560 z "},"…":{"ha":1389,"x_min":0,"x_max":0,"o":"m 168 -8 b 213 11 186 -8 201 -2 b 232 58 226 24 232 40 b 215 102 232 77 226 91 b 174 118 204 113 190 118 b 128 99 155 118 140 112 b 110 50 116 86 110 69 b 126 8 110 32 115 18 b 168 -8 138 -3 151 -8 z m 632 -8 b 677 11 649 -8 664 -2 b 697 56 691 24 697 39 b 681 101 697 75 692 90 b 639 118 669 113 656 118 b 593 99 621 118 606 112 b 574 50 580 86 574 69 b 590 8 574 32 579 18 b 632 -8 601 -3 615 -8 z m 1097 -8 b 1142 11 1115 -8 1130 -2 b 1161 58 1155 24 1161 40 b 1144 102 1161 77 1156 91 b 1103 118 1133 113 1119 118 b 1057 99 1085 118 1070 112 b 1038 50 1044 86 1038 69 b 1055 8 1038 32 1043 18 b 1097 -8 1066 -3 1081 -8 z "},"‰":{"ha":1389,"x_min":0,"x_max":0,"o":"m 111 751 b 163 626 111 700 128 659 b 297 578 197 594 242 578 b 467 649 367 578 423 601 b 533 824 511 696 533 754 b 483 949 533 875 516 916 b 349 997 449 981 404 997 b 178 926 280 997 223 973 b 111 751 134 878 111 820 z m 178 758 b 224 887 178 808 193 851 b 342 940 255 922 294 940 b 435 906 381 940 413 929 b 468 817 457 882 468 853 b 421 688 468 767 452 724 b 301 635 389 653 350 635 b 211 670 263 635 233 647 b 178 758 189 694 178 723 z m 600 -14 b 769 58 669 -14 725 10 b 835 232 813 105 835 163 b 785 357 835 283 818 325 b 650 406 751 389 706 406 b 481 334 581 406 525 382 b 414 160 436 286 414 228 b 465 35 414 109 431 67 b 600 -14 498 2 544 -14 z m 603 43 b 513 78 565 43 535 55 b 479 168 490 102 479 132 b 526 297 479 218 495 261 b 644 350 557 332 596 350 b 738 315 684 350 715 338 b 771 225 760 291 771 261 b 724 97 771 175 755 132 b 603 43 692 61 652 43 z m 1083 -14 b 1252 58 1152 -14 1208 10 b 1318 232 1296 105 1318 163 b 1268 357 1318 283 1301 325 b 1133 406 1235 389 1190 406 b 963 334 1065 406 1008 382 b 896 160 918 286 896 228 b 947 35 896 109 913 67 b 1083 -14 981 2 1027 -14 z m 1086 43 b 996 78 1048 43 1018 55 b 963 168 974 102 963 132 b 1009 297 963 218 978 261 b 1128 350 1040 332 1080 350 b 1220 315 1168 350 1198 338 b 1253 225 1242 291 1253 261 b 1206 97 1253 175 1237 132 b 1086 43 1175 61 1135 43 z m 899 994 l 849 1025 l 44 -11 l 94 -42 z "},"‹":{"ha":438,"x_min":0,"x_max":0,"o":"m 79 333 l 219 47 l 275 83 l 158 328 l 363 578 l 317 618 z "},"›":{"ha":438,"x_min":0,"x_max":0,"o":"m 339 332 l 199 618 l 143 581 l 260 338 l 56 88 l 101 47 z "},"‽":{"ha":665,"x_min":0,"x_max":0,"o":"m 271 269 l 346 269 l 360 346 b 400 437 366 380 380 410 b 504 529 420 463 455 494 b 627 647 558 569 599 608 b 669 785 655 685 669 731 b 603 947 669 856 647 910 b 432 1003 558 984 501 1003 b 249 942 363 1003 302 982 b 142 776 197 901 161 846 l 213 761 b 289 887 226 813 252 855 b 433 935 326 919 374 935 b 549 895 481 935 519 922 b 593 785 578 869 593 832 b 565 681 592 746 583 711 b 472 581 548 650 517 617 l 433 549 b 385 503 424 541 408 526 l 383 503 l 433 754 l 356 754 z m 349 57 b 332 101 349 75 343 90 b 289 118 321 113 306 118 b 244 99 272 118 257 112 b 225 51 231 86 225 70 b 242 8 225 33 231 18 b 286 -8 254 -3 269 -8 b 331 11 304 -8 319 -2 b 349 57 343 24 349 39 z "},"⁄":{"ha":139,"x_min":0,"x_max":0,"o":"m 501 994 l 453 1025 l -351 -11 l -301 -42 z "},"⁰":{"ha":506,"x_min":0,"x_max":0,"o":"m 394 1225 b 280 1185 352 1225 314 1212 b 200 1083 246 1159 219 1125 b 156 952 181 1042 166 998 b 142 815 147 906 142 861 b 179 672 142 757 154 709 b 297 617 204 635 244 617 b 440 686 353 617 400 640 b 524 845 480 732 508 785 b 549 1026 541 905 549 965 b 511 1169 549 1085 536 1132 b 394 1225 486 1206 447 1225 z m 389 1165 b 479 1021 449 1165 479 1117 b 430 782 479 932 463 852 b 303 676 397 712 355 676 b 211 819 242 676 211 724 b 261 1060 211 909 228 989 b 389 1165 294 1130 337 1165 z "},"⁴":{"ha":506,"x_min":0,"x_max":0,"o":"m 524 769 l 535 828 l 443 828 l 510 1214 l 431 1214 l 115 828 l 106 769 l 371 769 l 346 628 l 408 628 l 433 769 z m 381 828 l 185 828 l 429 1124 l 433 1124 z "},"⁵":{"ha":506,"x_min":0,"x_max":0,"o":"m 506 833 b 460 956 506 884 490 925 b 336 1001 429 986 388 1001 b 269 989 311 1001 289 997 l 301 1153 l 525 1153 l 536 1214 l 250 1214 l 190 904 b 321 944 235 931 278 944 b 407 912 357 944 386 934 b 439 829 428 890 439 863 b 399 720 439 786 425 749 b 292 676 372 691 336 676 b 176 754 237 676 199 702 l 118 726 b 183 647 132 693 154 666 b 290 617 213 627 249 617 b 448 678 357 617 409 637 b 506 833 486 720 506 771 z "},"⁶":{"ha":506,"x_min":0,"x_max":0,"o":"m 521 825 b 476 942 521 874 506 913 b 363 986 447 972 409 986 b 303 971 339 986 319 981 l 301 972 l 500 1214 l 418 1214 l 218 963 b 136 785 163 894 136 835 b 185 665 136 737 152 697 b 308 617 217 633 258 617 b 461 676 370 617 421 637 b 521 825 501 716 521 766 z m 454 821 b 415 718 454 780 441 746 b 311 676 388 690 354 676 b 233 708 279 676 253 687 b 203 783 213 728 203 754 b 243 885 203 823 216 857 b 349 928 270 914 305 928 b 425 899 380 928 406 918 b 454 821 444 879 454 853 z "},"⁷":{"ha":506,"x_min":0,"x_max":0,"o":"m 235 628 l 563 1157 l 574 1214 l 226 1214 l 217 1153 l 489 1153 l 157 628 z "},"⁸":{"ha":506,"x_min":0,"x_max":0,"o":"m 538 1083 b 494 1188 538 1128 523 1163 b 382 1225 466 1213 428 1225 b 253 1175 331 1225 288 1208 b 201 1053 219 1142 201 1101 b 218 990 201 1031 207 1010 b 268 944 229 969 246 954 l 268 943 b 169 877 226 930 193 908 b 132 769 144 846 132 810 b 181 658 132 722 148 685 b 303 617 213 630 254 617 b 449 669 358 617 407 634 b 513 813 491 705 513 752 b 490 888 513 840 505 865 b 429 936 474 910 454 926 l 429 938 b 507 994 461 950 487 969 b 538 1083 527 1020 538 1050 z m 353 968 b 290 993 327 968 306 976 b 267 1054 275 1010 267 1030 b 299 1133 267 1085 277 1111 b 379 1167 320 1156 347 1167 b 447 1142 407 1167 429 1159 b 472 1076 464 1126 472 1104 b 439 1001 472 1049 461 1024 b 353 968 417 979 388 968 z m 306 676 b 228 703 274 676 248 685 b 199 775 209 720 199 744 b 240 871 199 813 212 845 b 342 910 267 897 301 910 b 416 882 371 910 396 900 b 446 813 436 863 446 840 b 408 715 446 774 433 741 b 306 676 382 689 348 676 z "},"⁹":{"ha":506,"x_min":0,"x_max":0,"o":"m 278 628 l 478 879 b 560 1057 532 948 560 1007 b 511 1177 560 1105 544 1145 b 388 1225 479 1209 438 1225 b 235 1165 325 1225 275 1205 b 175 1017 195 1125 175 1076 b 219 901 175 969 190 930 b 333 857 249 872 287 857 b 393 871 356 857 375 862 l 394 869 l 196 628 z m 493 1058 b 453 956 493 1019 480 984 b 347 914 426 928 391 914 b 271 944 316 914 290 924 b 242 1022 251 964 242 990 b 281 1124 242 1063 255 1097 b 385 1165 308 1152 342 1165 b 463 1134 417 1165 443 1155 b 493 1058 483 1113 493 1088 z "},"₀":{"ha":506,"x_min":0,"x_max":0,"o":"m 249 406 b 134 366 206 406 168 392 b 54 264 100 340 74 306 b 10 133 35 222 20 178 b -4 -4 1 87 -4 41 b 33 -147 -4 -62 8 -110 b 151 -203 58 -184 98 -203 b 294 -133 207 -203 255 -180 b 378 26 334 -87 362 -34 b 403 207 395 85 403 146 b 365 350 403 265 390 313 b 249 406 340 387 301 406 z m 243 346 b 333 201 303 346 333 298 b 284 -37 333 113 317 33 b 157 -143 251 -108 209 -143 b 65 0 96 -143 65 -95 b 115 240 65 90 82 170 b 243 346 149 311 191 346 z "},"₁":{"ha":506,"x_min":0,"x_max":0,"o":"m 186 -192 l 290 394 l 232 394 l 57 275 l 90 229 l 208 311 l 119 -192 z "},"₂":{"ha":506,"x_min":0,"x_max":0,"o":"m 344 -192 l 356 -131 l 54 -131 l 264 49 b 374 158 317 93 353 130 b 404 260 394 187 404 221 b 361 366 404 304 390 340 b 240 406 332 392 292 406 b 125 369 198 406 159 393 b 49 265 91 344 65 310 l 111 249 b 236 346 136 313 178 346 b 310 322 268 346 292 338 b 338 256 328 306 338 284 b 315 185 338 231 330 208 b 233 99 299 162 272 133 l -24 -125 l -35 -192 z "},"₃":{"ha":506,"x_min":0,"x_max":0,"o":"m 156 -203 b 298 -153 213 -203 260 -186 b 354 -17 335 -121 354 -75 b 326 67 354 16 345 44 b 253 113 308 91 283 106 b 346 162 290 120 321 136 b 383 263 371 187 383 221 b 341 367 383 307 369 342 b 231 406 313 393 276 406 b 58 314 156 406 99 375 l 110 281 b 222 347 137 325 174 347 b 290 324 250 347 273 339 b 317 258 308 308 317 286 b 278 173 317 222 304 194 b 165 142 252 152 214 142 l 138 142 l 128 86 l 153 86 b 249 60 192 86 224 77 b 288 -22 275 42 288 15 b 251 -110 288 -59 275 -89 b 156 -143 227 -132 195 -143 b 38 -64 94 -143 55 -117 l -28 -83 b 40 -171 -15 -120 8 -150 b 156 -203 72 -192 110 -203 z "},"₄":{"ha":506,"x_min":0,"x_max":0,"o":"m 378 -50 l 389 8 l 297 8 l 364 394 l 285 394 l -31 8 l -40 -50 l 225 -50 l 200 -192 l 263 -192 l 288 -50 z m 235 8 l 39 8 l 283 304 l 288 304 z "},"₅":{"ha":506,"x_min":0,"x_max":0,"o":"m 360 14 b 314 136 360 65 344 106 b 190 182 283 167 242 182 b 124 169 165 182 143 178 l 156 333 l 379 333 l 390 394 l 104 394 l 44 85 b 175 125 89 112 132 125 b 261 92 211 125 240 114 b 293 10 282 71 293 43 b 253 -99 293 -34 280 -70 b 146 -143 226 -128 190 -143 b 31 -65 91 -143 53 -117 l -28 -93 b 38 -173 -14 -126 8 -153 b 144 -203 67 -193 103 -203 b 302 -141 211 -203 264 -182 b 360 14 341 -100 360 -48 z "},"₆":{"ha":506,"x_min":0,"x_max":0,"o":"m 375 6 b 331 123 375 55 360 94 b 217 167 301 152 263 167 b 157 151 194 167 174 162 l 156 153 l 354 394 l 272 394 l 72 143 b -10 -35 18 75 -10 15 b 39 -155 -10 -83 6 -123 b 163 -203 71 -187 113 -203 b 315 -143 225 -203 275 -183 b 375 6 355 -103 375 -54 z m 308 1 b 269 -101 308 -39 295 -74 b 165 -143 242 -129 208 -143 b 87 -112 133 -143 107 -133 b 57 -36 67 -91 57 -66 b 97 66 57 4 70 38 b 203 108 124 94 159 108 b 279 79 234 108 260 99 b 308 1 299 60 308 34 z "},"₇":{"ha":506,"x_min":0,"x_max":0,"o":"m 89 -192 l 417 338 l 428 394 l 81 394 l 71 333 l 343 333 l 11 -192 z "},"₈":{"ha":506,"x_min":0,"x_max":0,"o":"m 392 264 b 349 368 392 308 377 343 b 236 406 320 393 282 406 b 108 356 185 406 142 389 b 56 233 73 322 56 281 b 72 170 56 212 61 191 b 122 125 83 149 100 134 l 122 124 b 23 58 81 111 47 89 b -14 -50 -2 27 -14 -9 b 35 -162 -14 -97 2 -134 b 157 -203 67 -189 108 -203 b 303 -150 213 -203 261 -185 b 367 -7 346 -115 367 -67 b 344 68 367 21 359 46 b 283 117 328 90 308 106 l 283 118 b 361 175 315 130 341 149 b 392 264 381 201 392 231 z m 207 149 b 144 174 181 149 160 157 b 121 235 129 190 121 211 b 153 314 121 265 131 292 b 233 347 174 336 201 347 b 301 323 261 347 284 339 b 326 257 318 307 326 285 b 293 182 326 229 315 204 b 207 149 271 160 242 149 z m 160 -143 b 83 -117 128 -143 103 -134 b 53 -44 63 -99 53 -75 b 94 51 53 -6 66 25 b 196 90 121 77 155 90 b 270 63 225 90 250 81 b 300 -7 290 44 300 21 b 262 -104 300 -46 287 -78 b 160 -143 236 -130 202 -143 z "},"₉":{"ha":506,"x_min":0,"x_max":0,"o":"m 132 -192 l 332 60 b 414 238 387 128 414 187 b 365 358 414 286 398 326 b 242 406 333 390 292 406 b 89 346 180 406 129 386 b 29 197 49 306 29 256 b 74 81 29 149 44 110 b 188 38 103 52 141 38 b 247 51 210 38 230 42 l 249 50 l 50 -192 z m 347 239 b 307 137 347 199 334 165 b 201 94 280 109 245 94 b 125 124 170 94 144 104 b 96 203 106 144 96 170 b 135 305 96 244 109 278 b 239 346 162 332 196 346 b 317 315 271 346 297 335 b 347 239 337 294 347 269 z "},"℅":{"ha":1153,"x_min":0,"x_max":0,"o":"m 322 528 b 504 607 389 528 450 554 l 460 649 b 325 588 421 608 376 588 b 222 626 281 588 246 600 b 186 728 198 652 186 686 b 241 878 186 787 204 837 b 379 940 278 920 324 940 b 489 881 429 940 466 920 l 546 919 b 382 1000 513 973 458 1000 b 188 919 303 1000 239 973 b 113 722 138 865 113 799 b 168 581 113 664 131 617 b 322 528 205 546 256 528 z m 215 -42 l 1018 994 l 969 1025 l 164 -11 z m 1072 258 b 1015 400 1072 317 1053 364 b 861 454 976 436 925 454 b 669 374 783 454 719 428 b 593 181 618 321 593 256 b 651 38 593 122 613 75 b 806 -18 690 0 742 -18 b 997 63 883 -18 947 9 b 1072 258 1047 116 1072 181 z m 1000 254 b 946 105 1000 196 982 146 b 808 43 910 64 864 43 b 703 83 763 43 728 56 b 665 183 678 109 665 143 b 719 332 665 241 683 290 b 857 394 756 374 801 394 b 963 356 902 394 938 381 b 1000 254 988 330 1000 296 z "},"ℓ":{"ha":694,"x_min":0,"x_max":0,"o":"m 653 872 b 620 964 653 910 642 941 b 538 999 598 987 571 999 b 411 942 489 999 447 980 b 333 771 375 904 349 847 l 254 403 l 115 288 b 139 244 120 277 128 263 l 142 244 l 240 333 b 197 106 212 205 197 129 b 235 13 197 65 210 34 b 333 -19 261 -9 294 -19 b 511 50 392 -19 451 4 l 490 93 l 488 93 b 351 36 437 55 391 36 b 269 117 297 36 269 63 b 321 383 269 144 287 233 b 653 872 542 571 653 734 z m 590 865 b 513 660 590 802 564 734 b 336 456 461 586 402 518 b 358 559 343 488 350 522 b 384 681 366 596 374 636 b 407 785 394 726 401 761 b 529 949 429 894 470 949 b 573 925 547 949 561 941 b 590 865 584 909 590 889 z "},"№":{"ha":1435,"x_min":0,"x_max":0,"o":"m 67 0 l 146 0 l 300 879 l 303 879 l 660 0 l 767 0 l 940 983 l 863 983 l 707 111 l 704 111 l 347 983 l 240 983 z m 1001 432 l 1388 432 l 1400 496 l 1014 496 z m 1232 582 b 1401 653 1300 582 1357 606 b 1468 824 1446 700 1468 757 b 1417 947 1468 874 1451 915 b 1283 994 1384 978 1339 994 b 1116 924 1216 994 1160 971 b 1050 753 1072 876 1050 819 b 1100 630 1050 703 1067 662 b 1232 582 1133 598 1177 582 z m 1238 633 b 1146 669 1199 633 1168 645 b 1113 758 1124 692 1113 722 b 1160 889 1113 809 1128 853 b 1279 943 1191 925 1231 943 b 1372 908 1319 943 1350 931 b 1406 818 1394 884 1406 854 b 1358 688 1406 767 1390 724 b 1238 633 1327 651 1287 633 z "},"℗":{"ha":1111,"x_min":0,"x_max":0,"o":"m 28 490 b 183 122 28 346 79 223 b 557 -31 286 20 411 -31 b 929 122 702 -31 826 20 b 1083 490 1032 223 1083 346 b 929 861 1083 636 1032 759 b 557 1014 826 963 702 1014 b 183 861 411 1014 286 963 b 28 490 79 759 28 636 z m 96 490 b 231 815 96 617 141 725 b 557 950 322 905 430 950 b 881 815 684 950 792 905 b 1015 490 971 725 1015 617 b 881 167 1015 364 971 257 b 557 33 792 78 684 33 b 231 167 430 33 322 78 b 96 490 141 257 96 364 z m 393 178 l 467 178 l 467 406 l 608 406 b 766 458 674 406 727 423 b 825 597 805 492 825 539 b 766 738 825 658 805 705 b 607 788 727 771 674 788 l 393 788 z m 467 471 l 467 722 l 604 722 b 711 690 650 722 685 711 b 750 597 737 668 750 637 b 713 504 750 557 738 526 b 606 471 688 482 652 471 z "},"™":{"ha":1389,"x_min":0,"x_max":0,"o":"m 1351 411 l 1351 983 l 1247 983 l 1056 519 l 863 983 l 757 983 l 757 411 l 825 411 l 825 910 l 828 910 l 1032 411 l 1075 411 l 1281 910 l 1283 910 l 1283 411 z m 629 922 l 629 983 l 189 983 l 189 922 l 376 922 l 376 411 l 444 411 l 444 922 z "},"Ω":{"ha":1031,"x_min":0,"x_max":0,"o":"m 507 933 b 764 832 609 933 694 900 b 868 578 833 764 868 680 b 801 357 868 492 846 418 b 611 243 757 296 694 258 l 611 0 l 942 0 l 942 65 l 671 65 l 671 196 b 870 338 756 220 822 267 b 942 581 918 408 942 489 b 815 881 942 701 899 801 b 508 1001 730 961 628 1001 b 201 881 389 1001 287 961 b 74 579 116 800 74 700 b 146 338 74 488 98 408 b 344 196 194 267 260 220 l 344 65 l 74 65 l 74 0 l 404 0 l 404 243 b 214 356 322 257 258 294 b 147 578 169 417 147 491 b 251 832 147 680 182 764 b 507 933 321 900 406 933 z "},"℮":{"ha":840,"x_min":0,"x_max":0,"o":"m 779 360 b 678 636 778 473 745 565 b 419 743 612 707 526 743 b 160 634 312 743 225 707 b 61 360 94 561 61 470 b 160 86 61 250 94 159 b 419 -24 227 13 313 -24 b 600 20 492 -24 552 -9 b 736 164 648 49 694 97 l 688 193 b 419 26 622 82 532 26 b 218 108 340 26 273 54 l 218 360 z m 218 410 l 218 611 b 418 694 274 667 340 694 b 622 611 496 694 564 667 l 622 410 z "},"∂":{"ha":681,"x_min":0,"x_max":0,"o":"m 314 -18 b 458 25 369 -18 418 -4 b 553 144 499 54 531 93 b 603 309 576 194 593 249 b 618 506 613 369 618 434 b 608 649 618 556 615 603 b 574 783 602 694 591 739 b 513 897 558 827 538 865 b 419 974 489 928 457 954 b 288 1003 380 993 337 1003 b 97 928 218 1003 155 978 l 138 879 b 292 942 190 921 242 942 b 439 881 350 942 399 921 b 524 732 479 840 507 790 b 549 540 540 674 549 610 b 548 499 549 531 548 517 b 547 456 547 480 547 466 b 442 550 519 495 483 527 b 308 585 400 573 356 585 b 119 502 230 585 166 557 b 47 290 71 447 47 376 b 121 72 47 205 72 132 b 314 -18 170 12 234 -18 z m 315 42 b 171 118 254 42 206 67 b 118 289 136 169 118 226 b 170 453 118 353 135 408 b 315 522 205 499 253 522 b 540 385 402 522 477 476 b 526 276 538 348 534 311 b 490 166 518 240 506 203 b 420 76 473 128 450 98 b 315 42 390 53 355 42 z "},"∆":{"ha":925,"x_min":0,"x_max":0,"o":"m 897 0 l 503 989 l 418 989 l 31 0 z m 792 68 l 131 68 l 460 915 z "},"∏":{"ha":985,"x_min":0,"x_max":0,"o":"m 878 -297 l 878 1092 l 107 1092 l 107 -297 l 181 -297 l 181 1024 l 804 1024 l 804 -297 z "},"∑":{"ha":835,"x_min":0,"x_max":0,"o":"m 790 -297 l 790 -229 l 132 -229 l 594 401 l 156 1024 l 774 1024 l 774 1092 l 63 1092 l 63 1028 l 504 401 l 43 -235 l 43 -297 z "},"−":{"ha":925,"x_min":0,"x_max":0,"o":"m 807 389 l 807 456 l 118 456 l 118 389 z "},"∕":{"ha":139,"x_min":0,"x_max":0,"o":"m 501 994 l 453 1025 l -351 -11 l -301 -42 z "}}}
